<?xml version="1.0" encoding="utf-8"?>
<!-- Generator: Adobe Illustrator 15.0.0, SVG Export Plug-In . SVG Version: 6.00 Build 0)  -->
<!DOCTYPE svg PUBLIC "-//W3C//DTD SVG 1.1//EN" "http://www.w3.org/Graphics/SVG/1.1/DTD/svg11.dtd">
<svg version="1.1" id="Layer_1" xmlns="http://www.w3.org/2000/svg" xmlns:xlink="http://www.w3.org/1999/xlink" x="0px" y="0px"
	 width="146px" height="40px" viewBox="0 0 146 40" enable-background="new 0 0 146 40" xml:space="preserve">
<title>Miracle Logo Blue</title>
<desc>Created with Sketch.</desc>
<g enable-background="new    ">
	<path fill="#00237E" d="M19.72,4.343c0.024-0.216,0.24-0.384,0.432-0.384h0.384c0.12,0,0.336,0.096,0.408,0.239l5.568,10.369h0.048
		l5.568-10.369c0.072-0.144,0.288-0.239,0.408-0.239h0.384c0.192,0,0.408,0.168,0.432,0.384l2.712,16.129
		C36.114,20.784,35.898,21,35.61,21h-2.833c-0.216,0-0.432-0.192-0.456-0.384l-1.08-7.417h-0.048l-4.032,7.776
		c-0.072,0.145-0.288,0.265-0.408,0.265h-0.432c-0.144,0-0.336-0.12-0.408-0.265l-4.057-7.776h-0.048l-1.056,7.417
		C20.729,20.808,20.537,21,20.296,21h-2.832c-0.288,0-0.504-0.216-0.456-0.528L19.72,4.343z"/>
	<path fill="#00237E" d="M41.248,4.654c0-0.239,0.216-0.456,0.456-0.456h2.88c0.24,0,0.456,0.217,0.456,0.456v15.89
		c0,0.24-0.216,0.456-0.456,0.456h-2.88c-0.24,0-0.456-0.216-0.456-0.456V4.654z"/>
	<path fill="#00237E" d="M51.112,4.654c0-0.239,0.192-0.456,0.456-0.456h7.177c3.048,0,5.232,2.328,5.232,5.185
		c0,2.208-1.32,3.984-3.552,4.824l3.288,6.097c0.168,0.313,0,0.696-0.408,0.696h-3.192c-0.192,0-0.336-0.12-0.384-0.216l-3.192-6.36
		H54.88v6.12c0,0.24-0.216,0.456-0.456,0.456h-2.856c-0.264,0-0.456-0.216-0.456-0.456V4.654z M58.433,11.375
		c0.984,0,1.824-0.792,1.824-1.92s-0.84-1.824-1.824-1.824H54.88v3.744H58.433z"/>
	<path fill="#00237E" d="M67.383,20.376l7.513-16.153c0.071-0.145,0.239-0.264,0.408-0.264h0.239c0.168,0,0.336,0.119,0.408,0.264
		l7.513,16.153C83.609,20.688,83.416,21,83.057,21h-2.664c-0.432,0-0.624-0.144-0.84-0.6l-0.864-1.896H72.16l-0.864,1.92
		C71.176,20.712,70.912,21,70.432,21h-2.64C67.431,21,67.239,20.688,67.383,20.376z M77.248,15.239l-1.824-3.96H75.4l-1.801,3.96
		H77.248z"/>
	<path fill="#00237E" d="M94.889,3.959c2.4,0,4.176,0.743,5.809,2.231c0.216,0.192,0.216,0.48,0.023,0.672l-1.872,1.944
		c-0.168,0.168-0.433,0.168-0.601,0c-0.983-0.863-2.063-1.224-3.24-1.224c-2.711,0-4.703,2.256-4.703,4.944
		c0,2.664,2.016,4.872,4.728,4.872c1.32,0,2.353-0.408,3.216-1.151c0.168-0.145,0.48-0.145,0.625,0.023l1.872,1.992
		c0.168,0.168,0.144,0.48-0.024,0.648c-1.632,1.584-3.696,2.328-5.832,2.328c-4.801,0-8.665-3.816-8.665-8.617
		C86.224,7.823,90.088,3.959,94.889,3.959z"/>
	<path fill="#00237E" d="M105.759,4.654c0-0.239,0.192-0.456,0.456-0.456h2.856c0.239,0,0.456,0.217,0.456,0.456v12.817h5.713
		c0.264,0,0.455,0.216,0.455,0.456v2.616c0,0.24-0.191,0.456-0.455,0.456h-9.025c-0.264,0-0.456-0.216-0.456-0.456V4.654z"/>
	<path fill="#00237E" d="M120.279,4.654c0-0.239,0.191-0.456,0.455-0.456h9.938c0.264,0,0.456,0.217,0.456,0.456v2.616
		c0,0.24-0.192,0.456-0.456,0.456h-6.648v2.977h5.473c0.24,0,0.455,0.216,0.455,0.456v2.616c0,0.264-0.215,0.456-0.455,0.456h-5.473
		v3.24h6.648c0.264,0,0.456,0.216,0.456,0.456v2.616c0,0.24-0.192,0.456-0.456,0.456h-9.938c-0.264,0-0.455-0.216-0.455-0.456V4.654
		z"/>
</g>
<g enable-background="new    ">
	<path fill="#00237E" d="M44.964,32.442c0.61,0.199,1.319,0.659,1.319,1.629c0,1.179-0.989,1.929-2.179,1.929h-2.479
		c-0.11,0-0.19-0.09-0.19-0.189v-6.617c0-0.1,0.08-0.189,0.19-0.189h2.329c1.179,0,2.149,0.81,2.149,1.859
		c0,0.799-0.57,1.339-1.14,1.568V32.442z M43.825,31.842c0.38,0,0.65-0.319,0.65-0.719c0-0.4-0.27-0.68-0.65-0.68h-0.83v1.398
		H43.825z M43.845,34.57c0.5,0,0.78-0.249,0.78-0.719c0-0.4-0.27-0.71-0.76-0.71h-0.87v1.429H43.845z"/>
	<path fill="#00237E" d="M52.076,32.632l-2.209-3.338c-0.08-0.13,0-0.29,0.16-0.29h1.299c0.08,0,0.13,0.05,0.16,0.09l1.39,2.049
		l1.389-2.049c0.03-0.04,0.07-0.09,0.16-0.09h1.299c0.16,0,0.24,0.16,0.16,0.29l-2.239,3.328v3.188c0,0.1-0.09,0.189-0.19,0.189
		h-1.189c-0.11,0-0.19-0.09-0.19-0.189V32.632z"/>
	<path fill="#00237E" d="M64.487,35.74l3.128-6.727c0.03-0.06,0.1-0.109,0.17-0.109h0.1c0.07,0,0.14,0.05,0.17,0.109l3.128,6.727
		c0.06,0.13-0.02,0.26-0.17,0.26h-1.109c-0.18,0-0.26-0.06-0.35-0.25l-0.36-0.789h-2.719l-0.36,0.799
		c-0.05,0.12-0.16,0.24-0.359,0.24h-1.1C64.507,36,64.427,35.87,64.487,35.74z M68.595,33.602l-0.76-1.649h-0.01l-0.75,1.649H68.595
		z"/>
	<path fill="#00237E" d="M75.267,29.193c0-0.1,0.08-0.189,0.19-0.189h1.189c0.1,0,0.189,0.09,0.189,0.189v5.338h2.379
		c0.109,0,0.189,0.09,0.189,0.189v1.09c0,0.1-0.08,0.189-0.189,0.189h-3.758c-0.11,0-0.19-0.09-0.19-0.189V29.193z"/>
	<path fill="#00237E" d="M86.705,28.904c1.998,0,3.598,1.608,3.598,3.607s-1.6,3.588-3.598,3.588c-1.999,0-3.588-1.589-3.588-3.588
		S84.706,28.904,86.705,28.904z M86.705,34.501c1.1,0,1.998-0.899,1.998-1.989c0-1.1-0.898-2.009-1.998-2.009
		c-1.09,0-1.989,0.909-1.989,2.009C84.716,33.602,85.615,34.501,86.705,34.501z"/>
	<path fill="#00237E" d="M94.776,29.193c0-0.1,0.08-0.189,0.19-0.189h4.137c0.11,0,0.19,0.09,0.19,0.189v1.09
		c0,0.1-0.08,0.189-0.19,0.189h-2.768v1.439h2.278c0.101,0,0.19,0.09,0.19,0.19v1.089c0,0.1-0.09,0.19-0.19,0.19h-2.278v2.429
		c0,0.1-0.09,0.189-0.19,0.189h-1.179c-0.11,0-0.19-0.09-0.19-0.189V29.193z"/>
</g>
<g enable-background="new    ">
	<path fill="#00237E" d="M104.676,30.473h-1.429c-0.11,0-0.19-0.09-0.19-0.189v-1.09c0-0.1,0.08-0.189,0.19-0.189h4.438
		c0.11,0,0.19,0.09,0.19,0.189v1.09c0,0.1-0.08,0.189-0.19,0.189h-1.429v5.338c0,0.1-0.09,0.189-0.19,0.189h-1.199
		c-0.101,0-0.19-0.09-0.19-0.189V30.473z"/>
</g>
<polygon id="Fill-1" fill="#00237E" points="6.501,7 7.409,10.834 11,9.75 8.321,12.5 11,15.252 7.409,14.168 6.501,18 
	5.592,14.168 2,15.252 4.681,12.5 2,9.75 5.592,10.834 "/>
<polygon id="Fill-1-Copy" fill="#00237E" points="139.502,7 140.409,10.834 144,9.75 141.32,12.5 144,15.252 140.409,14.168 
	139.502,18 138.592,14.168 135,15.252 137.682,12.5 135,9.75 138.592,10.834 "/>
</svg>
