<?xml version="1.0" encoding="UTF-8"?>
<svg width="21px" height="20px" viewBox="0 0 21 20" version="1.1" xmlns="http://www.w3.org/2000/svg" xmlns:xlink="http://www.w3.org/1999/xlink">
    <title>012-clock copy</title>
    <g id="Desktop" stroke="none" stroke-width="1" fill="none" fill-rule="evenodd">
        <g id="Miracle-Upsells-01" transform="translate(-766.000000, -750.000000)" fill="#012169" fill-rule="nonzero">
            <g id="Group-2" transform="translate(736.000000, 678.000000)">
                <g id="012-clock-copy" transform="translate(30.000000, 72.000000)">
                    <path d="M20.7931588,10.9623782 C20.6061036,9.08075773 19.7655555,7.30685495 18.4262613,5.96740391 C17.2817129,4.82279692 15.880813,4.08724846 14.4067511,3.76018882 L14.4067511,2.72622947 C15.0088109,2.57643396 15.4563274,2.03141596 15.4563274,1.38360429 C15.4563274,0.620668606 14.8357126,0 14.0728431,0 L11.1431116,0 C10.3802421,0 9.75962732,0.620668606 9.75962732,1.38360429 C9.75962732,2.03137526 10.2071438,2.57639327 10.8091629,2.72622947 L10.8091629,3.76307811 C9.33961776,4.09152135 7.94335656,4.82605245 6.80206338,5.9674446 C6.55230377,6.21722587 6.32199433,6.47925611 6.11117573,6.75158199 C6.10096236,6.7508088 6.09074899,6.75003561 6.08033217,6.75003561 L3.18067112,6.75003561 C2.955977,6.75003561 2.77376397,6.93222374 2.77376397,7.15697805 C2.77376397,7.38173235 2.955977,7.56392048 3.18067112,7.56392048 L5.55749717,7.56392048 C5.25915285,8.06344233 5.01858934,8.58803182 4.83548112,9.12804444 L0.406907151,9.12804444 C0.182213022,9.12804444 0,9.31023257 0,9.53498688 C0,9.75974118 0.182213022,9.94192931 0.406907151,9.94192931 L4.60553789,9.94192931 C4.48826725,10.4567522 4.42096481,10.9806906 4.40358987,11.506094 L2.60420576,11.506094 C2.37951164,11.506094 2.19729861,11.6882821 2.19729861,11.9130364 C2.19729861,12.1377907 2.37951164,12.3199788 2.60420576,12.3199788 L4.41657021,12.3199788 C4.45091318,12.8467251 4.53559055,13.3707042 4.67064304,13.8841435 L2.03453575,13.8841435 C1.80984162,13.8841435 1.6276286,14.0663316 1.6276286,14.2910859 C1.6276286,14.5158402 1.80984162,14.6980284 2.03453575,14.6980284 L4.93033118,14.6980284 C5.3295071,15.7540847 5.95333645,16.7438908 6.80206338,17.5926913 C8.14265968,18.9334039 9.91823972,19.7742283 11.8016502,19.9603231 C12.070453,19.9868558 12.3394593,20 12.6080994,20 C14.1959325,20 15.763583,19.5404399 17.0937625,18.6741408 C17.2820791,18.5514884 17.3353433,18.2993876 17.2127014,18.1110546 C17.0900596,17.9227216 16.8379807,17.8694529 16.649664,17.9921053 C13.7379585,19.888335 9.83844523,19.4783405 7.37751147,17.0171933 C4.49001695,14.1294484 4.49001695,9.43076892 7.37751147,6.5429833 C10.2649653,3.65527906 14.9632373,3.65527906 17.8507726,6.5429833 C20.3084511,9.00091562 20.720648,12.8974302 18.8308491,15.8079639 C18.7084514,15.9964596 18.7620411,16.2485197 18.9504798,16.3708873 C19.1390406,16.4932956 19.3909975,16.4397013 19.5133545,16.2512056 C20.5230539,14.696075 20.9775692,12.8178322 20.7931588,10.9623782 Z M10.5734416,1.38364498 C10.5734416,1.06948542 10.8289793,0.81392557 11.1431116,0.81392557 L14.0728431,0.81392557 C14.3869754,0.81392557 14.6425131,1.06948542 14.6425131,1.38364498 C14.6425131,1.69780455 14.3869754,1.9533644 14.0728431,1.9533644 L13.999844,1.9533644 L11.2160701,1.9533644 L11.1431116,1.9533644 C10.8289793,1.9533644 10.5734416,1.69776385 10.5734416,1.38364498 Z M11.6229772,3.6231713 L11.6229772,2.76724927 L13.5929368,2.76724927 L13.5929368,3.62170631 C12.9387929,3.54389892 12.2769991,3.54438725 11.6229772,3.6231713 Z" id="XMLID_389_"></path>
                    <path d="M18.1387001,16.8977964 C18.0312766,16.8977964 17.9267014,16.9413392 17.8510574,17.0170305 C17.7749657,17.0927218 17.7317929,17.197713 17.7317929,17.3047388 C17.7317929,17.4117647 17.7749657,17.5167559 17.8510574,17.5924471 C17.9267014,17.6685454 18.0313173,17.7116813 18.1387001,17.7116813 C18.2457166,17.7116813 18.3502918,17.6685454 18.4263834,17.5924471 C18.5020681,17.5167559 18.5456072,17.4117647 18.5456072,17.3047388 C18.5456072,17.197713 18.5021088,17.0927218 18.4263834,17.0170305 C18.3502918,16.9413392 18.2456759,16.8977964 18.1387001,16.8977964 Z" id="XMLID_391_"></path>
                    <path d="M12.6141624,5.46714957 C9.13355997,5.46714957 6.30185242,8.299062 6.30185242,11.7800069 C6.30185242,15.2609518 9.13355997,18.0928643 12.6141624,18.0928643 C16.0947647,18.0928643 18.9264723,15.2609518 18.9264723,11.7800069 C18.9264723,8.299062 16.0947647,5.46714957 12.6141624,5.46714957 Z M12.6141624,17.2789794 C9.58225649,17.2789794 7.11566672,14.812135 7.11566672,11.7800069 C7.11566672,8.74787881 9.58225649,6.28103445 12.6141624,6.28103445 C15.6460682,6.28103445 18.112658,8.74787881 18.112658,11.7800069 C18.112658,14.812135 15.6460682,17.2789794 12.6141624,17.2789794 Z" id="XMLID_394_"></path>
                    <path d="M15.1880942,8.63035384 L13.1726831,10.645899 C13.0041422,10.5625572 12.8145641,10.515474 12.6141624,10.515474 C12.4137199,10.515474 12.2241825,10.5625572 12.0556416,10.645899 L11.1536505,9.74382974 C10.9947126,9.58491871 10.7371404,9.58491871 10.5781617,9.74382974 C10.4192645,9.90274076 10.4192645,10.1604167 10.5781617,10.3193277 L11.4801528,11.221397 C11.3967775,11.3899526 11.3497391,11.5795471 11.3497391,11.7799662 C11.3497391,12.4772214 11.916927,13.0444992 12.6141624,13.0444992 C13.3113978,13.0444992 13.8785856,12.4772214 13.8785856,11.7799662 C13.8785856,11.5795471 13.8315065,11.3899526 13.7481719,11.221397 L15.7044187,9.26498057 L15.7635423,9.20585183 C15.9224396,9.04694081 15.9224396,8.78926486 15.7635423,8.63035384 C15.6046451,8.47144281 15.3470729,8.47144281 15.1880942,8.63035384 Z M12.6141624,12.230655 C12.3657049,12.230655 12.1635534,12.028486 12.1635534,11.7800069 C12.1635534,11.5315279 12.3657049,11.3293589 12.6141624,11.3293589 C12.8626199,11.3293589 13.0647713,11.5315279 13.0647713,11.7800069 C13.0647713,12.028486 12.8626199,12.230655 12.6141624,12.230655 Z" id="XMLID_397_"></path>
                    <path d="M16.9647729,11.3780292 L16.5877734,11.3780292 C16.3630793,11.3780292 16.1808663,11.5602173 16.1808663,11.7849716 C16.1808663,12.0097259 16.3630793,12.1919141 16.5877734,12.1919141 L16.9647729,12.1919141 C17.1894671,12.1919141 17.3716801,12.0097259 17.3716801,11.7849716 C17.3716801,11.5602173 17.1894671,11.3780292 16.9647729,11.3780292 Z" id="XMLID_398_"></path>
                    <path d="M8.64051058,11.3680998 L8.2635518,11.3680998 C8.03885767,11.3680998 7.85664464,11.5502879 7.85664464,11.7750422 C7.85664464,11.9997965 8.03885767,12.1819847 8.2635518,12.1819847 L8.64051058,12.1819847 C8.86520471,12.1819847 9.04741773,11.9997965 9.04741773,11.7750422 C9.04741773,11.5502879 8.86520471,11.3680998 8.64051058,11.3680998 Z" id="XMLID_399_"></path>
                    <path d="M12.6191266,8.21295298 C12.8438208,8.21295298 13.0260338,8.03076485 13.0260338,7.80601054 L13.0260338,7.42901907 C13.0260338,7.20426476 12.8438208,7.02207663 12.6191266,7.02207663 C12.3944325,7.02207663 12.2122195,7.20426476 12.2122195,7.42901907 L12.2122195,7.80601054 C12.2122195,8.03076485 12.3944325,8.21295298 12.6191266,8.21295298 Z" id="XMLID_400_"></path>
                    <path d="M12.6091981,15.3470609 C12.384504,15.3470609 12.2022909,15.529249 12.2022909,15.7540033 L12.2022909,16.1309948 C12.2022909,16.3557491 12.384504,16.5379372 12.6091981,16.5379372 C12.8338922,16.5379372 13.0161052,16.3557491 13.0161052,16.1309948 L13.0161052,15.7540033 C13.0161052,15.529249 12.8338922,15.3470609 12.6091981,15.3470609 Z" id="XMLID_424_"></path>
                    <path d="M0.406907151,13.8839807 C0.29989057,13.8839807 0.194908525,13.9275236 0.119223795,14.0032148 C0.0435390651,14.0789061 0,14.1838973 0,14.2909231 C0,14.398356 0.0434983744,14.5029402 0.119223795,14.5786315 C0.194949216,14.6543227 0.29989057,14.6978656 0.406907151,14.6978656 C0.513923731,14.6978656 0.618905776,14.6543227 0.694549815,14.5786315 C0.770234545,14.5029402 0.813814301,14.397949 0.813814301,14.2909231 C0.813814301,14.1838973 0.770275236,14.0789061 0.694549815,14.0032148 C0.618905776,13.9275236 0.513923731,13.8839807 0.406907151,13.8839807 Z" id="XMLID_425_"></path>
                </g>
            </g>
        </g>
    </g>
</svg>