<?xml version="1.0" encoding="utf-8"?>
<!-- Generator: Adobe Illustrator 24.1.1, SVG Export Plug-In . SVG Version: 6.00 Build 0)  -->
<svg version="1.1" id="Layer_1" xmlns="http://www.w3.org/2000/svg" xmlns:xlink="http://www.w3.org/1999/xlink" x="0px" y="0px"
	 viewBox="0 0 408.1 44.2" style="enable-background:new 0 0 408.1 44.2;" xml:space="preserve">
<style type="text/css">
	.st0{fill:#FCFCFC;}
	.st1{fill:#0066B2;}
	.st2{fill:#F9A533;}
	.st3{fill:#336699;}
	.st4{fill:#003366;}
	.st5{fill-rule:evenodd;clip-rule:evenodd;fill:#FBB231;}
	.st6{fill-rule:evenodd;clip-rule:evenodd;fill:#EC1C2E;}
	.st7{fill-rule:evenodd;clip-rule:evenodd;fill:#FFFFFF;}
	.st8{fill:none;stroke:#FFFFFF;stroke-width:0.216;stroke-miterlimit:2.6131;}
	.st9{fill:#F58220;}
	.st10{fill:url(#SVGID_1_);}
	.st11{fill:#001722;}
	.st12{fill:#231F20;}
	.st13{fill:#FFFFFF;}
	.st14{fill:#0078A9;}
</style>
<path class="st0" d="M155,41.8c0,1.3-1.1,2.4-2.4,2.4H86.7c-1.3,0-2.4-1.1-2.4-2.4V2.4c0-1.3,1.1-2.4,2.4-2.4h65.9
	c1.3,0,2.4,1.1,2.4,2.4V41.8z"/>
<g>
	<g>
		<polygon class="st1" points="116.9,28.7 113.4,28.7 115.6,15.5 119,15.5 		"/>
		<path class="st1" d="M110.5,15.5l-3.3,9.1l-0.4-2v0l-1.2-6c0,0-0.1-1.2-1.6-1.2h-5.4l-0.1,0.2c0,0,1.7,0.3,3.6,1.5l3,11.5h3.6
			l5.5-13.3H110.5z"/>
		<path class="st1" d="M137.7,28.7h3.2l-2.8-13.3h-2.8c-1.3,0-1.6,1-1.6,1l-5.1,12.3h3.6l0.7-2h4.4L137.7,28.7z M133.9,24l1.8-5l1,5
			H133.9z"/>
		<path class="st1" d="M128.8,18.6l0.5-2.8c0,0-1.5-0.6-3.1-0.6c-1.7,0-5.8,0.7-5.8,4.4c0,3.4,4.8,3.5,4.8,5.3
			c0,1.8-4.3,1.5-5.7,0.3l-0.5,3c0,0,1.5,0.7,3.9,0.7c2.4,0,5.9-1.2,5.9-4.5c0-3.4-4.8-3.8-4.8-5.3C124,17.6,127.3,17.8,128.8,18.6z
			"/>
	</g>
	<path class="st2" d="M106.8,22.6l-1.2-6c0,0-0.1-1.2-1.6-1.2h-5.4l-0.1,0.2c0,0,2.6,0.5,5.1,2.6C106.1,20.2,106.8,22.6,106.8,22.6z
		"/>
</g>
<path class="st0" d="M70.7,41.8c0,1.3-1.1,2.4-2.4,2.4H2.4c-1.3,0-2.4-1.1-2.4-2.4V2.4C0,1.1,1.1,0,2.4,0h65.9
	c1.3,0,2.4,1.1,2.4,2.4V41.8z"/>
<g>
	<path class="st3" d="M48.9,19.7c-0.4-0.2-1.1-0.4-2.1-0.4c-0.5,0-0.9,0-1.4,0.1c-0.4,0.1-0.4,0.1-0.6,0.1c-0.4,0.1-0.5,0.5-0.5,0.5
		l-0.1,0.6c-0.1,0.4,0.1,0.4,0.2,0.3c0.2-0.1,0.3-0.1,0.7-0.2c0.4-0.1,0.8-0.2,1.1-0.1c0.5,0,0.8,0.1,1.1,0.2
		c0.2,0.1,0.4,0.3,0.4,0.5c0,0.1,0,0.1,0,0.2c0,0-0.1,0.1-0.2,0.1c-0.7,0-1.2,0.1-1.7,0.2c-0.6,0.1-1.1,0.2-1.5,0.4
		c-0.4,0.2-0.8,0.5-1,0.8c-0.2,0.3-0.3,0.7-0.3,1.2c0,0.5,0.2,0.8,0.5,1.1c0.3,0.3,0.7,0.4,1.2,0.4c0.3,0,0.6,0,0.7-0.1
		c0.2,0,0.4-0.1,0.6-0.2c0.2-0.1,0.3-0.2,0.5-0.3c0.2-0.1,0.3-0.2,0.4-0.3l0,0l0,0.2c0,0,0,0,0,0l0,0c0,0.2,0.1,0.4,0.3,0.4l0,0h0
		l0,0c0.1,0,0.7,0,0.9,0h0.2c0,0,0,0,0,0c0.2,0,0.5-0.2,0.5-0.4l0.9-3.7c0-0.1,0-0.2,0-0.3c0-0.1,0-0.2,0-0.3
		C49.6,20.3,49.4,19.9,48.9,19.7z M46.9,24.1c-0.1,0.1-0.3,0.2-0.5,0.2c-0.2,0.1-0.4,0.1-0.6,0.1c-0.3,0-0.5,0-0.7-0.1
		c-0.2-0.1-0.2-0.2-0.2-0.4c0-0.2,0.1-0.4,0.2-0.6c0.1-0.1,0.3-0.3,0.5-0.3c0.2-0.1,0.5-0.1,0.8-0.2c0.3,0,0.8-0.1,0.9-0.1
		c0.1,0,0.1,0,0.1,0.1c0,0.1-0.2,0.7-0.2,1C47,24,46.9,24.1,46.9,24.1z"/>
	<path class="st4" d="M34.2,19.4c-0.3,0-0.6,0.2-0.7,0.5c0,0-1.7,2.9-1.9,3.2c-0.1,0.2-0.2,0.1-0.2,0c0-0.1-0.5-3.2-0.5-3.2
		c-0.1-0.2-0.3-0.5-0.6-0.5l-1.1,0c-0.3,0-0.4,0.2-0.4,0.4c0,0,0.8,4.6,1,5.6c0.1,0.6,0,0.7,0,0.7l-1,1.8c-0.2,0.2-0.1,0.4,0.2,0.4
		l1.2,0c0.3,0,0.6-0.2,0.7-0.4l4.7-7.9c0,0,0.4-0.7,0-0.7C35.3,19.4,34.2,19.4,34.2,19.4"/>
	<path class="st4" d="M19.4,21c-0.4,0.3-0.8,0.4-1.5,0.4h-0.3c-0.3,0-0.4-0.2-0.4-0.4l0.4-1.5c0.1-0.2,0.3-0.4,0.6-0.4l0.4,0
		c0.4,0,0.8,0.1,1,0.2c0.2,0.1,0.3,0.4,0.3,0.7C19.9,20.4,19.7,20.7,19.4,21 M21.9,18.7c-0.1-0.3-0.4-0.5-0.6-0.7
		c-0.3-0.2-0.6-0.3-1-0.4c-0.4-0.1-0.9-0.1-1.4-0.1l-2.5,0c-0.3,0-0.5,0.2-0.6,0.4l-1.7,7.2c-0.1,0.2,0.1,0.4,0.4,0.4h1.2
		c0.3,0,0.5-0.2,0.6-0.4l0.4-1.7c0.1-0.2,0.3-0.4,0.6-0.4h0.3c1.4,0,2.6-0.3,3.4-0.9c0.8-0.6,1.2-1.4,1.2-2.3
		C22.1,19.3,22.1,18.9,21.9,18.7"/>
	<path class="st3" d="M40.7,21c-0.4,0.3-0.8,0.4-1.5,0.4h-0.3c-0.3,0-0.4-0.2-0.4-0.4l0.4-1.5c0.1-0.2,0.3-0.4,0.6-0.4l0.4,0
		c0.5,0,0.8,0.1,1,0.2c0.2,0.2,0.3,0.4,0.3,0.7C41.2,20.4,41.1,20.8,40.7,21 M43.3,18.7c-0.1-0.3-0.4-0.5-0.6-0.7
		c-0.3-0.2-0.6-0.3-1-0.4c-0.4-0.1-0.9-0.1-1.4-0.1l-2.5,0c-0.3,0-0.5,0.2-0.6,0.4l-1.7,7.2c-0.1,0.2,0.1,0.4,0.4,0.4l1.2,0
		c0.2,0,0.5-0.2,0.6-0.4l0.4-1.7c0.1-0.2,0.3-0.5,0.6-0.4h0.3c1.4,0,2.6-0.3,3.4-0.9c0.8-0.6,1.2-1.4,1.2-2.3
		C43.5,19.3,43.4,19,43.3,18.7"/>
	<path class="st4" d="M27.6,19.7c-0.4-0.2-1.1-0.4-2.1-0.4c-0.5,0-0.9,0-1.4,0.1c-0.4,0.1-0.4,0.1-0.6,0.1c-0.4,0.1-0.5,0.5-0.5,0.5
		l-0.1,0.6C22.7,21,22.9,21,23,21c0.2-0.1,0.3-0.1,0.7-0.2c0.4-0.1,0.8-0.2,1.1-0.1c0.5,0,0.8,0.1,1.1,0.2c0.2,0.1,0.4,0.3,0.4,0.5
		c0,0.1,0,0.1,0,0.2c0,0-0.1,0.1-0.2,0.1c-0.7,0-1.2,0.1-1.7,0.2c-0.6,0.1-1.1,0.2-1.5,0.4c-0.4,0.2-0.8,0.5-1,0.8
		c-0.2,0.3-0.3,0.7-0.3,1.2c0,0.5,0.2,0.8,0.5,1.1c0.3,0.3,0.7,0.4,1.2,0.4c0.3,0,0.6,0,0.7-0.1c0.2,0,0.4-0.1,0.6-0.2
		c0.2-0.1,0.3-0.2,0.5-0.3c0.2-0.1,0.3-0.2,0.4-0.3l0,0l0,0.2c0,0,0,0,0,0l0,0c0,0.2,0.1,0.4,0.3,0.4l0,0h0l0,0c0.2,0,0.7,0,0.9,0
		h0.2c0,0,0,0,0,0c0.2,0,0.5-0.2,0.5-0.4l0.9-3.7c0-0.1,0-0.2,0-0.3c0-0.1,0-0.2,0-0.3C28.2,20.3,28,19.9,27.6,19.7z M25.5,24.1
		c-0.1,0.1-0.3,0.2-0.5,0.2c-0.2,0.1-0.4,0.1-0.6,0.1c-0.3,0-0.5,0-0.7-0.1c-0.2-0.1-0.2-0.2-0.2-0.4c0-0.2,0.1-0.4,0.2-0.6
		c0.1-0.1,0.3-0.3,0.5-0.3c0.2-0.1,0.5-0.1,0.8-0.2c0.3,0,0.8-0.1,0.9-0.1c0.1,0,0.1,0,0.1,0.1c0,0.1-0.2,0.7-0.2,1
		C25.7,23.9,25.5,24.1,25.5,24.1z"/>
	<g>
		<g>
			<path class="st3" d="M53,17.6h-1.1c0,0,0,0,0,0l0,0c-0.2,0-0.5,0.2-0.5,0.4c0,0,0,0,0,0c0,0,0,0.1-0.1,0.3l-1.4,6.6
				c0,0.2-0.1,0.3-0.1,0.3l0,0c0,0.2,0.1,0.4,0.3,0.4l0,0h1.1c0.2,0,0.5-0.2,0.5-0.4c0,0,0,0,0,0l1.6-7.1l0,0
				C53.4,17.8,53.2,17.6,53,17.6z"/>
		</g>
	</g>
	<g>
		<path class="st3" d="M54.6,19c0,0-0.1,0-0.1,0c0,0-0.1,0-0.1,0c-0.1,0-0.2,0-0.3-0.1C54,18.9,54,18.8,54,18.7V18h-0.1v-0.2H54
			v-0.3h0.2v0.3h0.4V18h-0.4v0.5c0,0.1,0,0.1,0,0.1c0,0,0,0.1,0,0.1c0,0,0,0,0.1,0.1c0,0,0.1,0,0.1,0c0,0,0.1,0,0.1,0
			c0,0,0.1,0,0.1,0h0V19z"/>
		<path class="st3" d="M56.5,19h-0.2v-0.7c0,0,0-0.1,0-0.1c0,0,0-0.1,0-0.1c0,0,0-0.1-0.1-0.1c0,0-0.1,0-0.1,0c-0.1,0-0.1,0-0.2,0
			c-0.1,0-0.1,0.1-0.2,0.1c0,0,0,0,0,0.1c0,0,0,0,0,0.1V19h-0.2v-0.7c0-0.1,0-0.1,0-0.1c0,0,0-0.1,0-0.1c0,0,0-0.1-0.1-0.1
			c0,0-0.1,0-0.1,0c-0.1,0-0.1,0-0.2,0c-0.1,0-0.1,0.1-0.2,0.1V19h-0.2v-1.1H55V18c0.1,0,0.1-0.1,0.2-0.1c0.1,0,0.1,0,0.2,0
			c0.1,0,0.1,0,0.2,0c0.1,0,0.1,0.1,0.1,0.1c0.1-0.1,0.1-0.1,0.2-0.1c0.1,0,0.1,0,0.2,0c0.1,0,0.2,0,0.3,0.1
			c0.1,0.1,0.1,0.2,0.1,0.3V19z"/>
	</g>
</g>
<path class="st0" d="M239.4,41.8c0,1.3-1.1,2.4-2.4,2.4h-65.9c-1.3,0-2.4-1.1-2.4-2.4V2.4c0-1.3,1.1-2.4,2.4-2.4H237
	c1.3,0,2.4,1.1,2.4,2.4V41.8z"/>
<g>
	<polygon class="st5" points="212.5,34.8 213.2,34.7 213.8,34.7 214.5,34.6 215.1,34.5 215.7,34.4 216.3,34.2 216.9,34 217.5,33.8 
		218,33.5 218.6,33.2 219.1,32.9 219.6,32.6 220.1,32.2 220.6,31.9 221.1,31.5 221.5,31 221.9,30.6 222.3,30.1 222.7,29.7 
		223.1,29.2 223.4,28.6 223.7,28.1 224,27.6 224.2,27 224.4,26.4 224.7,25.8 224.8,25.2 225,24.6 225.1,24 225.2,23.4 225.2,22.7 
		225.2,22.1 225.2,21.4 225.2,20.8 225.1,20.1 225,19.5 224.8,18.9 224.7,18.3 224.4,17.7 224.2,17.1 224,16.6 223.7,16 223.4,15.5 
		223.1,15 222.7,14.5 222.3,14 221.9,13.6 221.5,13.1 221.1,12.7 220.6,12.3 220.1,11.9 219.6,11.6 219.1,11.2 218.6,10.9 218,10.7 
		217.5,10.4 216.9,10.2 216.3,10 215.7,9.8 215.1,9.7 214.5,9.5 213.8,9.5 213.2,9.4 212.5,9.4 211.9,9.4 211.2,9.5 210.6,9.5 
		210,9.7 209.4,9.8 208.8,10 208.2,10.2 207.6,10.4 207,10.7 206.5,10.9 206,11.2 205.4,11.6 204.9,11.9 204.5,12.3 204,12.7 
		203.6,13.1 203.2,13.6 202.8,14 202.4,14.5 202,15 201.7,15.5 201.4,16 201.1,16.6 200.9,17.1 200.6,17.7 200.4,18.3 200.3,18.9 
		200.1,19.5 200,20.1 199.9,20.8 199.9,21.4 199.9,22.1 199.9,22.7 199.9,23.4 200,24 200.1,24.6 200.3,25.2 200.4,25.8 200.6,26.4 
		200.9,27 201.1,27.6 201.4,28.1 201.7,28.6 202,29.2 202.4,29.7 202.8,30.1 203.2,30.6 203.6,31 204,31.5 204.5,31.9 204.9,32.2 
		205.4,32.6 206,32.9 206.5,33.2 207,33.5 207.6,33.8 208.2,34 208.8,34.2 209.4,34.4 210,34.5 210.6,34.6 211.2,34.7 211.9,34.7 
		212.5,34.8 212.5,34.8 	"/>
	<polygon class="st6" points="195.6,34.8 196.2,34.7 196.9,34.7 197.5,34.6 198.1,34.5 198.7,34.4 199.3,34.2 199.9,34 200.5,33.8 
		201.1,33.5 201.6,33.2 202.1,32.9 202.6,32.6 203.1,32.2 203.6,31.9 204.1,31.5 204.5,31 204.9,30.6 205.3,30.1 205.7,29.7 
		206.1,29.2 206.4,28.6 206.7,28.1 207,27.6 207.2,27 207.5,26.4 207.6,25.8 207.8,25.2 208,24.6 208.1,24 208.2,23.4 208.2,22.7 
		208.2,22.1 208.2,21.4 208.2,20.8 208.1,20.1 208,19.5 207.8,18.9 207.6,18.3 207.5,17.7 207.2,17.1 207,16.6 206.7,16 206.4,15.5 
		206.1,15 205.7,14.5 205.3,14 204.9,13.6 204.5,13.1 204.1,12.7 203.6,12.3 203.1,11.9 202.6,11.6 202.1,11.2 201.6,10.9 
		201.1,10.7 200.5,10.4 199.9,10.2 199.3,10 198.7,9.8 198.1,9.7 197.5,9.5 196.9,9.5 196.2,9.4 195.6,9.4 194.9,9.4 194.3,9.5 
		193.6,9.5 193,9.7 192.4,9.8 191.8,10 191.2,10.2 190.6,10.4 190.1,10.7 189.5,10.9 189,11.2 188.5,11.6 188,11.9 187.5,12.3 
		187,12.7 186.6,13.1 186.2,13.6 185.8,14 185.4,14.5 185,15 184.7,15.5 184.4,16 184.1,16.6 183.9,17.1 183.6,17.7 183.4,18.3 
		183.3,18.9 183.1,19.5 183,20.1 182.9,20.8 182.9,21.4 182.9,22.1 182.9,22.7 182.9,23.4 183,24 183.1,24.6 183.3,25.2 183.4,25.8 
		183.6,26.4 183.9,27 184.1,27.6 184.4,28.1 184.7,28.6 185,29.2 185.4,29.7 185.8,30.1 186.2,30.6 186.6,31 187,31.5 187.5,31.9 
		188,32.2 188.5,32.6 189,32.9 189.5,33.2 190.1,33.5 190.6,33.8 191.2,34 191.8,34.2 192.4,34.4 193,34.5 193.6,34.6 194.3,34.7 
		194.9,34.7 195.6,34.8 195.6,34.8 	"/>
	<polygon class="st5" points="202.6,14.3 209.3,14.3 209.3,13.6 203.1,13.6 202.6,14.3 202.6,14.3 	"/>
	<polygon class="st5" points="201.5,15.8 209.3,15.8 209.3,15.1 202,15.1 201.5,15.8 201.5,15.8 	"/>
	<polygon class="st5" points="200.8,17.3 209.3,17.3 209.3,16.6 201.1,16.6 200.8,17.3 200.8,17.3 	"/>
	<polygon class="st5" points="200.3,18.9 209.3,18.9 209.3,18.2 200.5,18.2 200.3,18.9 200.3,18.9 	"/>
	<polygon class="st5" points="200.6,26.2 209.3,26.2 209.3,25.6 200.4,25.6 200.6,26.2 200.6,26.2 	"/>
	<polygon class="st5" points="201.2,27.8 209.3,27.8 209.3,27.1 200.9,27.1 201.2,27.8 201.2,27.8 	"/>
	<polygon class="st5" points="202.1,29.3 209.3,29.3 209.3,28.6 201.7,28.6 202.1,29.3 202.1,29.3 	"/>
	<polygon class="st5" points="203.4,30.8 209.3,30.8 209.3,30.1 202.8,30.1 203.4,30.8 203.4,30.8 	"/>
	<polygon class="st5" points="200,20.4 209.3,20.4 209.3,19.7 200.1,19.7 200,20.4 200,20.4 	"/>
	<polygon class="st5" points="205.7,24.7 209.2,24.7 209.2,24 205.8,24 205.7,24.7 205.7,24.7 	"/>
	<polygon class="st5" points="205.9,23.2 209.2,23.2 209.2,22.5 206.1,22.5 205.9,23.2 205.9,23.2 	"/>
	<polygon class="st5" points="199.7,22.5 200.7,22.5 200.7,23.2 199.8,23.2 199.7,22.5 199.7,22.5 	"/>
	<polygon class="st7" points="198,21.7 198,21.7 197.9,21.7 197.8,21.6 197.8,21.6 197.7,21.6 197.7,21.6 197.6,21.6 197.6,21.6 
		197.5,21.6 197.4,21.6 197.4,21.6 197.3,21.6 197.2,21.6 197.1,21.6 197,21.6 196.9,21.6 196.8,21.6 196.7,21.6 196.6,21.7 
		196.6,21.7 196.5,21.7 196.4,21.7 196.4,21.8 196.4,21.8 196.3,21.9 196.3,21.9 196.3,22 196.3,22 196.3,22.1 196.3,22.1 
		196.4,22.2 196.4,22.2 196.5,22.3 196.6,22.4 196.7,22.4 196.8,22.5 197,22.5 197.1,22.6 197.3,22.6 197.4,22.7 197.5,22.8 
		197.6,22.9 197.8,23 197.8,23.1 197.9,23.3 198,23.4 198,23.7 198,23.9 197.9,24.2 197.9,24.3 197.8,24.5 197.7,24.6 197.6,24.8 
		197.5,24.9 197.4,25 197.3,25 197.1,25.1 197,25.2 196.8,25.2 196.7,25.2 196.5,25.3 196.4,25.3 196.3,25.3 196.1,25.3 195.9,25.3 
		195.8,25.3 195.6,25.3 195.5,25.3 195.3,25.3 195.2,25.3 195.1,25.3 195,25.2 194.9,25.2 194.9,25.2 194.8,25.2 194.7,25.2 
		194.6,25.2 194.6,25.1 194.5,25.1 194.4,25.1 194.6,24.1 194.7,24.2 194.7,24.2 194.8,24.2 194.8,24.2 194.9,24.2 195,24.2 
		195.1,24.3 195.2,24.3 195.3,24.3 195.4,24.3 195.5,24.3 195.6,24.3 195.8,24.3 195.9,24.3 196,24.3 196.1,24.3 196.3,24.3 
		196.4,24.3 196.4,24.2 196.5,24.2 196.5,24.1 196.6,24 196.6,24 196.6,23.9 196.6,23.8 196.6,23.7 196.5,23.6 196.4,23.5 
		196.3,23.5 196.1,23.4 196,23.3 195.8,23.3 195.6,23.2 195.5,23.1 195.3,23 195.2,22.9 195.1,22.7 195,22.5 195,22.3 195,22 
		195,21.8 195,21.7 195.1,21.5 195.1,21.4 195.2,21.3 195.3,21.1 195.3,21 195.4,20.9 195.6,20.9 195.7,20.8 195.9,20.7 196,20.7 
		196.2,20.6 196.4,20.6 196.7,20.6 196.9,20.6 197.1,20.6 197.2,20.6 197.4,20.6 197.5,20.6 197.6,20.6 197.7,20.6 197.8,20.6 
		197.8,20.6 197.9,20.6 198,20.7 198,20.7 198.1,20.7 198.1,20.7 198.2,20.7 198.2,20.7 198.2,20.7 198,21.7 198,21.7 	"/>
	<polyline class="st8" points="198,21.7 198,21.7 198,21.7 197.9,21.7 197.8,21.6 197.8,21.6 197.7,21.6 197.7,21.6 197.6,21.6 
		197.6,21.6 197.5,21.6 197.4,21.6 197.4,21.6 197.3,21.6 197.2,21.6 197.1,21.6 197,21.6 196.9,21.6 196.9,21.6 196.8,21.6 
		196.7,21.6 196.6,21.7 196.6,21.7 196.5,21.7 196.4,21.7 196.4,21.8 196.4,21.8 196.3,21.9 196.3,21.9 196.3,22 196.3,22 
		196.3,22.1 196.3,22.1 196.4,22.2 196.4,22.2 196.4,22.2 196.5,22.3 196.6,22.4 196.7,22.4 196.8,22.5 197,22.5 197.1,22.6 
		197.3,22.6 197.4,22.7 197.5,22.8 197.6,22.9 197.8,23 197.8,23.1 197.9,23.3 198,23.4 198,23.7 198,23.9 198,23.9 197.9,24.2 
		197.9,24.3 197.8,24.5 197.7,24.6 197.6,24.8 197.5,24.9 197.4,25 197.3,25 197.1,25.1 197,25.2 196.8,25.2 196.7,25.2 196.5,25.3 
		196.4,25.3 196.3,25.3 196.1,25.3 196.1,25.3 195.9,25.3 195.8,25.3 195.6,25.3 195.5,25.3 195.3,25.3 195.2,25.3 195.1,25.3 
		195,25.2 194.9,25.2 194.9,25.2 194.8,25.2 194.7,25.2 194.6,25.2 194.6,25.1 194.5,25.1 194.4,25.1 194.6,24.1 194.6,24.1 
		194.7,24.2 194.7,24.2 194.8,24.2 194.8,24.2 194.9,24.2 195,24.2 195.1,24.3 195.2,24.3 195.3,24.3 195.4,24.3 195.5,24.3 
		195.6,24.3 195.8,24.3 195.9,24.3 196,24.3 196.1,24.3 196.1,24.3 196.3,24.3 196.4,24.3 196.4,24.2 196.5,24.2 196.5,24.1 
		196.6,24 196.6,24 196.6,23.9 196.6,23.9 196.6,23.8 196.6,23.7 196.5,23.6 196.4,23.5 196.3,23.5 196.1,23.4 196,23.3 195.8,23.3 
		195.6,23.2 195.5,23.1 195.3,23 195.2,22.9 195.1,22.7 195,22.5 195,22.3 195,22 195,22 195,21.8 195,21.7 195.1,21.5 195.1,21.4 
		195.2,21.3 195.3,21.1 195.3,21 195.4,20.9 195.6,20.9 195.7,20.8 195.9,20.7 196,20.7 196.2,20.6 196.4,20.6 196.7,20.6 
		196.9,20.6 196.9,20.6 197.1,20.6 197.2,20.6 197.4,20.6 197.5,20.6 197.6,20.6 197.7,20.6 197.8,20.6 197.8,20.6 197.9,20.6 
		198,20.7 198,20.7 198.1,20.7 198.1,20.7 198.2,20.7 198.2,20.7 198.2,20.7 198,21.7 	"/>
	<polygon class="st7" points="199,19.6 200.2,19.6 200,20.7 200.8,20.7 200.6,21.6 199.8,21.6 199.4,24 199.4,24.1 199.5,24.2 
		199.5,24.2 199.6,24.3 199.6,24.3 199.7,24.3 199.8,24.3 199.9,24.4 200,24.4 200.1,24.3 200.2,24.3 200.2,24.3 200.3,24.3 
		200.3,24.3 200.4,24.3 200.4,24.3 200.2,25.1 200.2,25.1 200.2,25.1 200.1,25.1 200.1,25.1 200.1,25.2 200,25.2 200,25.2 200,25.2 
		199.9,25.2 199.9,25.2 199.8,25.2 199.8,25.2 199.7,25.2 199.6,25.2 199.6,25.3 199.5,25.3 199.2,25.3 199,25.2 198.9,25.2 
		198.7,25.2 198.6,25.2 198.5,25.1 198.4,25.1 198.4,25 198.3,25 198.3,24.9 198.2,24.9 198.2,24.8 198.2,24.7 198.2,24.6 
		198.2,24.5 198.2,24.4 198.2,24.3 199,19.6 199,19.6 	"/>
	<polyline class="st8" points="199,19.6 200.2,19.6 200,20.7 200.8,20.7 200.6,21.6 199.8,21.6 199.4,24 199.4,24 199.4,24.1 
		199.5,24.2 199.5,24.2 199.6,24.3 199.6,24.3 199.7,24.3 199.8,24.3 199.9,24.4 199.9,24.4 200,24.4 200.1,24.3 200.2,24.3 
		200.2,24.3 200.3,24.3 200.3,24.3 200.4,24.3 200.4,24.3 200.2,25.1 200.2,25.1 200.2,25.1 200.2,25.1 200.1,25.1 200.1,25.1 
		200.1,25.2 200,25.2 200,25.2 200,25.2 199.9,25.2 199.9,25.2 199.8,25.2 199.8,25.2 199.7,25.2 199.6,25.2 199.6,25.3 199.5,25.3 
		199.2,25.3 199.2,25.3 199,25.2 198.9,25.2 198.7,25.2 198.6,25.2 198.5,25.1 198.4,25.1 198.4,25 198.3,25 198.3,24.9 198.2,24.9 
		198.2,24.8 198.2,24.7 198.2,24.6 198.2,24.5 198.2,24.4 198.2,24.3 199,19.6 	"/>
	<polyline class="st8" points="201.7,23.3 201.7,23.3 201.7,23.3 201.7,23.4 201.7,23.5 201.7,23.6 201.7,23.7 201.8,23.7 
		201.8,23.8 201.9,23.9 201.9,24 202,24 202.1,24.1 202.1,24.1 202.2,24.2 202.3,24.2 202.4,24.3 202.5,24.3 202.5,24.3 202.6,24.3 
		202.7,24.3 202.8,24.3 202.9,24.3 203,24.3 203.1,24.3 203.3,24.3 203.4,24.3 203.5,24.3 203.6,24.3 203.7,24.2 203.8,24.2 
		204,24.2 204.1,24.1 204.2,24 204.3,24 204.1,25 204.1,25 204.1,25.1 204,25.1 203.9,25.1 203.9,25.1 203.8,25.2 203.7,25.2 
		203.7,25.2 203.6,25.2 203.5,25.2 203.4,25.2 203.4,25.2 203.3,25.3 203.1,25.3 203,25.3 202.9,25.3 202.8,25.3 202.8,25.3 
		202.5,25.3 202.3,25.2 202.1,25.2 201.9,25.2 201.7,25.1 201.5,25 201.3,24.9 201.1,24.8 201,24.6 200.8,24.5 200.7,24.3 200.6,24 
		200.5,23.8 200.5,23.5 200.5,23.2 200.5,22.8 200.5,22.8 200.5,22.7 200.5,22.5 200.5,22.4 200.6,22.2 200.7,22 200.7,21.8 
		200.8,21.6 201,21.5 201.1,21.3 201.3,21.1 201.4,21 201.7,20.8 201.9,20.7 202.2,20.7 202.5,20.6 202.8,20.6 202.8,20.6 203,20.6 
		203.2,20.6 203.4,20.6 203.5,20.7 203.7,20.8 203.9,20.8 204,20.9 204.2,21.1 204.3,21.2 204.4,21.4 204.5,21.6 204.5,21.8 
		204.6,22 204.6,22.3 204.6,22.7 204.5,23 204.5,23.3 201.4,23.3 201.5,22.4 203.4,22.4 203.4,22.4 203.4,22.3 203.4,22.2 
		203.4,22.1 203.4,22.1 203.4,22 203.3,21.9 203.3,21.8 203.3,21.8 203.2,21.7 203.1,21.7 203.1,21.6 203,21.6 203,21.6 202.9,21.6 
		202.8,21.6 202.7,21.5 202.7,21.5 202.7,21.5 202.6,21.6 202.5,21.6 202.4,21.6 202.4,21.6 202.3,21.7 202.2,21.7 202.2,21.8 
		202.1,21.8 202.1,21.9 202,22 202,22 201.9,22.1 201.9,22.2 201.9,22.3 201.9,22.4 201.7,23.3 	"/>
	<polygon class="st7" points="211.9,20.9 211.8,20.9 211.8,20.9 211.7,20.9 211.7,20.8 211.6,20.8 211.5,20.8 211.5,20.7 
		211.4,20.7 211.3,20.7 211.2,20.7 211.1,20.7 211,20.7 210.9,20.6 210.8,20.6 210.7,20.6 210.6,20.6 210.5,20.6 210.4,20.6 
		210.3,20.7 210.2,20.7 210.1,20.7 209.9,20.8 209.8,20.8 209.7,20.9 209.6,21 209.5,21.1 209.4,21.2 209.3,21.4 209.2,21.6 
		209.1,21.8 209,22 208.9,22.3 208.9,22.5 208.9,22.6 208.9,22.8 208.9,22.9 208.9,23.1 208.9,23.2 209,23.3 209,23.4 209.1,23.6 
		209.1,23.7 209.2,23.8 209.3,23.9 209.5,23.9 209.6,24 209.7,24.1 209.9,24.1 210,24.1 210,24.1 210.1,24.1 210.2,24.1 210.3,24.2 
		210.4,24.2 210.5,24.2 210.6,24.1 210.7,24.1 210.8,24.1 210.9,24.1 211,24 211.1,24 211.2,23.9 211.3,23.9 211.4,23.8 211.2,24.9 
		211.2,25 211.2,25 211.1,25 211.1,25 211,25.1 211,25.1 210.9,25.1 210.8,25.2 210.7,25.2 210.6,25.2 210.5,25.2 210.3,25.2 
		210.2,25.3 210,25.3 209.8,25.3 209.5,25.2 209.3,25.2 209.1,25.2 208.9,25.1 208.7,25 208.6,24.9 208.4,24.8 208.2,24.6 208,24.5 
		207.9,24.3 207.8,24.1 207.7,23.8 207.6,23.6 207.6,23.3 207.5,23 207.5,22.6 207.6,22.3 207.6,22.1 207.7,21.9 207.7,21.8 
		207.7,21.6 207.8,21.5 207.9,21.3 207.9,21.2 208,21 208,20.9 208.1,20.8 208.2,20.7 208.2,20.6 208.3,20.5 208.4,20.3 208.5,20.3 
		208.6,20.2 208.7,20.1 208.8,20 208.9,19.9 209,19.9 209.1,19.8 209.2,19.7 209.3,19.7 209.5,19.6 209.6,19.6 209.7,19.6 
		209.9,19.5 210,19.5 210.2,19.5 210.3,19.5 210.5,19.5 210.6,19.5 210.8,19.5 210.9,19.5 211,19.5 211.2,19.5 211.3,19.5 
		211.4,19.5 211.5,19.6 211.6,19.6 211.7,19.6 211.8,19.6 211.9,19.7 211.9,19.7 212,19.7 212,19.7 212.1,19.7 212.1,19.8 
		211.9,20.9 211.9,20.9 	"/>
	<polyline class="st8" points="211.9,20.9 211.9,20.9 211.8,20.9 211.8,20.9 211.7,20.9 211.7,20.8 211.6,20.8 211.5,20.8 
		211.5,20.7 211.4,20.7 211.3,20.7 211.2,20.7 211.1,20.7 211,20.7 210.9,20.6 210.8,20.6 210.7,20.6 210.6,20.6 210.6,20.6 
		210.5,20.6 210.4,20.6 210.3,20.7 210.2,20.7 210.1,20.7 209.9,20.8 209.8,20.8 209.7,20.9 209.6,21 209.5,21.1 209.4,21.2 
		209.3,21.4 209.2,21.6 209.1,21.8 209,22 208.9,22.3 208.9,22.3 208.9,22.5 208.9,22.6 208.9,22.8 208.9,22.9 208.9,23.1 
		208.9,23.2 209,23.3 209,23.4 209.1,23.6 209.1,23.7 209.2,23.8 209.3,23.9 209.5,23.9 209.6,24 209.7,24.1 209.9,24.1 209.9,24.1 
		210,24.1 210,24.1 210.1,24.1 210.2,24.1 210.3,24.2 210.4,24.2 210.5,24.2 210.6,24.1 210.7,24.1 210.8,24.1 210.9,24.1 211,24 
		211.1,24 211.2,23.9 211.3,23.9 211.4,23.8 211.2,24.9 211.2,24.9 211.2,25 211.2,25 211.1,25 211.1,25 211,25.1 211,25.1 
		210.9,25.1 210.8,25.2 210.7,25.2 210.6,25.2 210.5,25.2 210.3,25.2 210.2,25.3 210,25.3 209.8,25.3 209.5,25.2 209.5,25.2 
		209.3,25.2 209.1,25.2 208.9,25.1 208.7,25 208.6,24.9 208.4,24.8 208.2,24.6 208,24.5 207.9,24.3 207.8,24.1 207.7,23.8 
		207.6,23.6 207.6,23.3 207.5,23 207.5,22.6 207.6,22.3 207.6,22.3 207.6,22.1 207.7,21.9 207.7,21.8 207.7,21.6 207.8,21.5 
		207.9,21.3 207.9,21.2 208,21 208,20.9 208.1,20.8 208.2,20.7 208.2,20.6 208.3,20.5 208.4,20.3 208.5,20.3 208.6,20.2 208.7,20.1 
		208.8,20 208.9,19.9 209,19.9 209.1,19.8 209.2,19.7 209.3,19.7 209.5,19.6 209.6,19.6 209.7,19.6 209.9,19.5 210,19.5 210.2,19.5 
		210.3,19.5 210.5,19.5 210.6,19.5 210.6,19.5 210.8,19.5 210.9,19.5 211,19.5 211.2,19.5 211.3,19.5 211.4,19.5 211.5,19.6 
		211.6,19.6 211.7,19.6 211.8,19.6 211.9,19.7 211.9,19.7 212,19.7 212,19.7 212.1,19.7 212.1,19.8 211.9,20.9 	"/>
	<polygon class="st7" points="222.4,25.3 221.2,25.3 221.3,24.8 221.3,24.7 221.3,24.8 221.2,24.9 221.1,25 221,25 221,25.1 
		220.9,25.1 220.8,25.2 220.7,25.2 220.6,25.2 220.6,25.3 220.5,25.3 220.4,25.3 220.3,25.3 220.2,25.3 220.1,25.3 220.1,25.3 
		219.8,25.3 219.6,25.3 219.4,25.2 219.3,25.1 219.1,25 219,24.8 218.9,24.7 218.8,24.5 218.7,24.3 218.6,24.1 218.6,23.9 
		218.5,23.7 218.5,23.4 218.5,23.2 218.5,23 218.6,22.8 218.6,22.5 218.7,22.3 218.8,22.1 218.9,21.9 219,21.7 219.1,21.5 
		219.3,21.4 219.4,21.2 219.6,21.1 219.7,21 219.9,20.9 220.1,20.8 220.2,20.8 220.4,20.7 220.6,20.7 220.7,20.7 220.9,20.7 
		221,20.7 221.1,20.7 221.2,20.8 221.3,20.8 221.4,20.8 221.5,20.9 221.5,20.9 221.6,21 221.7,21 221.7,21.1 221.8,21.1 221.8,21.2 
		221.9,21.2 221.9,21.3 221.9,21.4 221.9,21.4 222.2,19.7 223.4,19.7 222.4,25.3 222.4,25.3 	"/>
	<polyline class="st8" points="222.4,25.3 221.2,25.3 221.3,24.8 221.3,24.7 221.3,24.7 221.3,24.8 221.2,24.9 221.1,25 221,25 
		221,25.1 220.9,25.1 220.8,25.2 220.7,25.2 220.6,25.2 220.6,25.3 220.5,25.3 220.4,25.3 220.3,25.3 220.2,25.3 220.1,25.3 
		220.1,25.3 220.1,25.3 219.8,25.3 219.6,25.3 219.4,25.2 219.3,25.1 219.1,25 219,24.8 218.9,24.7 218.8,24.5 218.7,24.3 
		218.6,24.1 218.6,23.9 218.5,23.7 218.5,23.4 218.5,23.2 218.5,23 218.6,22.8 218.6,22.8 218.6,22.5 218.7,22.3 218.8,22.1 
		218.9,21.9 219,21.7 219.1,21.5 219.3,21.4 219.4,21.2 219.6,21.1 219.7,21 219.9,20.9 220.1,20.8 220.2,20.8 220.4,20.7 
		220.6,20.7 220.7,20.7 220.7,20.7 220.9,20.7 221,20.7 221.1,20.7 221.2,20.8 221.3,20.8 221.4,20.8 221.5,20.9 221.5,20.9 
		221.6,21 221.7,21 221.7,21.1 221.8,21.1 221.8,21.2 221.9,21.2 221.9,21.3 221.9,21.4 221.9,21.4 222.2,19.7 223.4,19.7 
		222.4,25.3 	"/>
	<polygon class="st5" points="220.5,24.2 220.6,24.2 220.7,24.2 220.8,24.2 220.9,24.1 221,24.1 221.1,24 221.2,23.9 221.2,23.9 
		221.3,23.8 221.4,23.7 221.4,23.6 221.5,23.5 221.5,23.4 221.6,23.3 221.6,23.1 221.6,23 221.6,22.9 221.6,22.8 221.6,22.7 
		221.6,22.5 221.6,22.4 221.6,22.3 221.6,22.2 221.5,22.1 221.5,22 221.4,22 221.4,21.9 221.3,21.8 221.3,21.8 221.2,21.7 
		221.1,21.7 221,21.7 220.9,21.7 220.8,21.7 220.7,21.8 220.6,21.8 220.5,21.9 220.4,21.9 220.3,22 220.3,22.1 220.2,22.2 
		220.1,22.3 220.1,22.4 220,22.5 220,22.6 220,22.7 219.9,22.9 219.9,23 219.9,23.2 219.9,23.4 219.9,23.6 220,23.8 220.1,24 
		220.2,24.1 220.3,24.2 220.5,24.2 220.5,24.2 	"/>
	<polygon class="st7" points="194.2,24.3 194.1,25.3 193,25.3 193,25.1 193,24.9 193,24.8 193.1,24.7 193,24.8 192.9,24.9 
		192.9,24.9 192.8,25 192.7,25.1 192.6,25.1 192.4,25.2 192.3,25.2 192.2,25.2 192.1,25.3 192,25.3 191.8,25.3 191.7,25.3 
		191.6,25.3 191.5,25.3 191.3,25.3 191.2,25.3 191.1,25.2 190.9,25.2 190.8,25.1 190.7,25 190.7,25 190.6,24.9 190.5,24.8 
		190.5,24.7 190.4,24.6 190.4,24.5 190.4,24.4 190.4,24.3 190.3,24.2 190.3,24.1 190.3,24 190.3,23.9 190.4,23.7 190.4,23.6 
		190.5,23.4 190.5,23.3 190.6,23.2 190.7,23 190.8,22.9 190.9,22.8 191,22.7 191.2,22.7 191.3,22.6 191.4,22.5 191.6,22.5 
		191.7,22.4 191.9,22.4 191.9,22.4 191.9,22.4 191.9,22.4 192,22.4 192,22.4 192.1,22.4 192.1,22.4 192.2,22.4 192.3,22.4 
		192.4,22.4 192.4,22.4 192.5,22.3 192.6,22.3 192.6,22.3 192.7,22.3 192.7,22.3 192.8,22.3 192.9,22.3 193,22.3 193.1,22.3 
		193.2,22.3 193.3,22.4 193.3,22.4 193.3,22.4 193.3,22.3 193.4,22.2 193.4,22.2 193.4,22.1 193.4,22 193.3,21.9 193.3,21.8 
		193.2,21.8 193.1,21.7 193,21.7 192.9,21.6 192.8,21.6 192.7,21.6 192.6,21.6 192.5,21.6 192.3,21.6 192.2,21.6 192,21.6 
		191.9,21.7 191.8,21.7 191.6,21.7 191.5,21.7 191.4,21.7 191.3,21.8 191.2,21.8 191.1,21.8 191.1,21.8 191,21.9 191.3,20.8 
		191.4,20.8 191.5,20.8 191.6,20.7 191.7,20.7 191.8,20.7 191.9,20.7 192,20.7 192.2,20.6 192.3,20.6 192.4,20.6 192.5,20.6 
		192.7,20.6 192.8,20.6 192.9,20.6 193.1,20.6 193.2,20.6 193.4,20.6 193.5,20.7 193.6,20.7 193.8,20.7 193.9,20.8 194,20.8 
		194.1,20.9 194.3,21 194.4,21.1 194.5,21.2 194.6,21.3 194.6,21.4 194.7,21.6 194.7,21.7 194.7,21.9 194.7,22.1 194.2,24.3 
		194.2,24.3 	"/>
	<polyline class="st8" points="194.2,24.3 194.1,25.3 193,25.3 193,25.3 193,25.1 193,24.9 193,24.8 193.1,24.7 193.1,24.7 
		193,24.8 192.9,24.9 192.9,24.9 192.8,25 192.7,25.1 192.6,25.1 192.4,25.2 192.3,25.2 192.2,25.2 192.1,25.3 192,25.3 191.8,25.3 
		191.7,25.3 191.6,25.3 191.5,25.3 191.3,25.3 191.3,25.3 191.2,25.3 191.1,25.2 190.9,25.2 190.8,25.1 190.7,25 190.7,25 
		190.6,24.9 190.5,24.8 190.5,24.7 190.4,24.6 190.4,24.5 190.4,24.4 190.4,24.3 190.3,24.2 190.3,24.1 190.3,24 190.3,24 
		190.3,23.9 190.4,23.7 190.4,23.6 190.5,23.4 190.5,23.3 190.6,23.2 190.7,23 190.8,22.9 190.9,22.8 191,22.7 191.2,22.7 
		191.3,22.6 191.4,22.5 191.6,22.5 191.7,22.4 191.9,22.4 191.9,22.4 191.9,22.4 191.9,22.4 191.9,22.4 192,22.4 192,22.4 
		192.1,22.4 192.1,22.4 192.2,22.4 192.3,22.4 192.4,22.4 192.4,22.4 192.5,22.3 192.6,22.3 192.6,22.3 192.7,22.3 192.7,22.3 
		192.7,22.3 192.8,22.3 192.9,22.3 193,22.3 193.1,22.3 193.2,22.3 193.3,22.4 193.3,22.4 193.3,22.4 193.3,22.4 193.3,22.3 
		193.4,22.2 193.4,22.2 193.4,22.1 193.4,22.1 193.4,22 193.3,21.9 193.3,21.8 193.2,21.8 193.1,21.7 193,21.7 192.9,21.6 
		192.8,21.6 192.8,21.6 192.7,21.6 192.6,21.6 192.5,21.6 192.3,21.6 192.2,21.6 192,21.6 191.9,21.7 191.8,21.7 191.6,21.7 
		191.5,21.7 191.4,21.7 191.3,21.8 191.2,21.8 191.1,21.8 191.1,21.8 191,21.9 191.3,20.8 191.3,20.8 191.4,20.8 191.5,20.8 
		191.6,20.7 191.7,20.7 191.8,20.7 191.9,20.7 192,20.7 192.2,20.6 192.3,20.6 192.4,20.6 192.5,20.6 192.7,20.6 192.8,20.6 
		192.9,20.6 193.1,20.6 193.2,20.6 193.2,20.6 193.4,20.6 193.5,20.7 193.6,20.7 193.8,20.7 193.9,20.8 194,20.8 194.1,20.9 
		194.3,21 194.4,21.1 194.5,21.2 194.6,21.3 194.6,21.4 194.7,21.6 194.7,21.7 194.7,21.9 194.7,22.1 194.2,24.3 	"/>
	<polygon class="st6" points="193.2,23.2 193.2,23.2 193.2,23.2 193.2,23.1 193.1,23.1 193.1,23.1 193,23.1 192.9,23.1 192.9,23.1 
		192.8,23.1 192.7,23.1 192.7,23.1 192.6,23.2 192.5,23.2 192.5,23.2 192.4,23.2 192.4,23.2 192.3,23.2 192.3,23.2 192.3,23.2 
		192.2,23.3 192.2,23.3 192.1,23.3 192,23.3 192,23.4 191.9,23.4 191.9,23.5 191.8,23.5 191.8,23.6 191.7,23.6 191.7,23.7 
		191.7,23.7 191.7,23.8 191.7,24 191.7,24.1 191.7,24.2 191.8,24.2 191.8,24.3 191.9,24.3 192,24.3 192.1,24.3 192.2,24.3 
		192.3,24.3 192.4,24.3 192.5,24.3 192.6,24.2 192.7,24.2 192.8,24.1 192.8,24.1 192.9,24.1 192.9,24 193,24 193,23.9 193,23.9 
		193.1,23.8 193.1,23.8 193.1,23.7 193.1,23.6 193.2,23.4 193.2,23.3 193.2,23.2 193.2,23.2 	"/>
	<polygon class="st7" points="185.2,25.3 184.1,25.3 185,19.6 187.1,19.6 187.3,23 188.7,19.6 190.8,19.6 189.8,25.3 188.6,25.3 
		189.3,21.1 189.3,21.1 187.6,25.3 186.2,25.3 186.2,25.1 186.2,24.6 186.2,24 186.1,23.2 186.1,22.4 186,21.8 186,21.3 186,21.1 
		186,21.1 186,21.1 185.9,21.1 185.9,21.1 185.2,25.3 185.2,25.3 	"/>
	<polyline class="st8" points="185.2,25.3 184.1,25.3 185,19.6 187.1,19.6 187.3,23 188.7,19.6 190.8,19.6 189.8,25.3 188.6,25.3 
		189.3,21.1 189.3,21.1 187.6,25.3 186.2,25.3 186.2,25.3 186.2,25.1 186.2,24.6 186.2,24 186.1,23.2 186.1,22.4 186,21.8 186,21.3 
		186,21.1 186,21.1 186,21.1 186,21.1 185.9,21.1 185.9,21.1 185.2,25.3 	"/>
	<polygon class="st7" points="215.5,24.3 215.3,25.3 214.2,25.3 214.2,25.1 214.2,24.9 214.2,24.8 214.2,24.8 214.2,24.8 
		214.1,24.9 214,25 213.9,25 213.9,25.1 213.7,25.1 213.6,25.2 213.5,25.2 213.4,25.2 213.3,25.3 213.2,25.3 213.1,25.3 212.9,25.3 
		212.8,25.3 212.7,25.3 212.6,25.3 212.4,25.3 212.3,25.2 212.2,25.2 212.1,25.1 212,25 211.9,25 211.8,24.9 211.8,24.8 211.7,24.7 
		211.7,24.6 211.6,24.5 211.6,24.4 211.6,24.3 211.6,24.2 211.6,24.1 211.6,24 211.6,23.9 211.6,23.7 211.6,23.6 211.7,23.4 
		211.8,23.3 211.8,23.2 211.9,23 212,22.9 212.1,22.8 212.3,22.7 212.4,22.7 212.5,22.6 212.7,22.5 212.8,22.5 212.9,22.4 
		213.1,22.4 213.1,22.4 213.1,22.4 213.1,22.4 213.2,22.4 213.2,22.4 213.3,22.4 213.4,22.4 213.4,22.4 213.5,22.4 213.6,22.4 
		213.7,22.4 213.7,22.3 213.8,22.3 213.9,22.3 213.9,22.3 214,22.3 214.1,22.3 214.2,22.3 214.3,22.3 214.4,22.3 214.4,22.3 
		214.5,22.4 214.5,22.4 214.6,22.4 214.6,22.3 214.6,22.2 214.6,22.2 214.6,22.1 214.6,22 214.6,21.9 214.5,21.8 214.4,21.8 
		214.4,21.7 214.3,21.7 214.2,21.6 214.1,21.6 214,21.6 213.8,21.6 213.7,21.6 213.6,21.6 213.4,21.6 213.3,21.6 213.1,21.7 
		213,21.7 212.9,21.7 212.8,21.7 212.6,21.7 212.5,21.8 212.4,21.8 212.4,21.8 212.3,21.8 212.3,21.9 212.6,20.8 212.7,20.8 
		212.8,20.8 212.9,20.7 213,20.7 213.1,20.7 213.2,20.7 213.3,20.7 213.4,20.6 213.5,20.6 213.6,20.6 213.8,20.6 213.9,20.6 
		214,20.6 214.2,20.6 214.3,20.6 214.5,20.6 214.6,20.6 214.7,20.7 214.8,20.7 215,20.7 215.1,20.8 215.2,20.8 215.4,20.9 215.5,21 
		215.6,21.1 215.7,21.2 215.8,21.3 215.8,21.4 215.9,21.6 215.9,21.7 215.9,21.9 215.9,22.1 215.5,24.3 215.5,24.3 	"/>
	<polygon class="st7" points="215.3,25.3 215.3,25.3 215.5,24.3 215.4,24.3 215.2,25.3 215.3,25.2 215.3,25.3 215.3,25.3 
		215.3,25.3 215.3,25.3 215.3,25.3 	"/>
	<polygon class="st7" points="214.2,25.3 214.2,25.3 215.3,25.3 215.3,25.2 214.2,25.2 214.2,25.3 214.2,25.3 214.2,25.3 
		214.2,25.3 214.2,25.3 214.2,25.3 	"/>
	<polygon class="st7" points="214.2,24.8 214.2,24.7 214.2,24.8 214.2,24.9 214.2,25.1 214.2,25.3 214.2,25.3 214.2,25.1 
		214.2,24.9 214.2,24.8 214.2,24.8 214.2,24.7 214.2,24.8 214.2,24.8 	"/>
	<polygon class="st7" points="212.6,25.3 212.6,25.3 212.7,25.3 212.8,25.4 212.9,25.4 213.1,25.3 213.2,25.3 213.3,25.3 
		213.4,25.3 213.5,25.2 213.6,25.2 213.8,25.1 213.9,25.1 214,25 214,25 214.1,24.9 214.2,24.8 214.2,24.8 214.2,24.7 214.1,24.8 
		214.1,24.9 214,24.9 213.9,25 213.8,25 213.7,25.1 213.6,25.1 213.5,25.2 213.4,25.2 213.3,25.3 213.2,25.3 213.1,25.3 212.9,25.3 
		212.8,25.3 212.7,25.3 212.6,25.3 212.6,25.3 212.6,25.3 212.6,25.3 	"/>
	<polygon class="st7" points="211.5,24 211.5,24 211.6,24.1 211.6,24.2 211.6,24.3 211.6,24.4 211.6,24.5 211.6,24.6 211.7,24.7 
		211.7,24.8 211.8,24.9 211.9,25 212,25.1 212.1,25.1 212.2,25.2 212.3,25.2 212.4,25.3 212.6,25.3 212.6,25.3 212.4,25.2 
		212.3,25.2 212.2,25.1 212.1,25.1 212,25 211.9,24.9 211.8,24.9 211.8,24.8 211.7,24.7 211.7,24.6 211.7,24.5 211.6,24.4 
		211.6,24.3 211.6,24.2 211.6,24.1 211.6,24 211.6,24 211.5,24 211.5,24 	"/>
	<polygon class="st7" points="213.1,22.4 213.1,22.4 212.9,22.4 212.8,22.5 212.6,22.5 212.5,22.6 212.4,22.6 212.2,22.7 
		212.1,22.8 212,22.9 211.9,23 211.8,23.1 211.7,23.3 211.7,23.4 211.6,23.6 211.6,23.7 211.6,23.9 211.5,24 211.6,24 211.6,23.9 
		211.6,23.7 211.7,23.6 211.7,23.4 211.8,23.3 211.9,23.2 212,23.1 212.1,22.9 212.2,22.9 212.3,22.8 212.4,22.7 212.5,22.6 
		212.7,22.6 212.8,22.5 212.9,22.5 213.1,22.4 213.1,22.4 213.1,22.4 213.1,22.4 	"/>
	<polygon class="st7" points="214,22.3 214,22.3 213.9,22.3 213.9,22.3 213.8,22.3 213.7,22.3 213.7,22.3 213.6,22.3 213.5,22.3 
		213.4,22.4 213.4,22.4 213.3,22.4 213.2,22.4 213.2,22.4 213.1,22.4 213.1,22.4 213.1,22.4 213.1,22.4 213.1,22.4 213.1,22.4 
		213.1,22.4 213.1,22.4 213.2,22.4 213.2,22.4 213.3,22.4 213.4,22.4 213.4,22.4 213.5,22.4 213.6,22.4 213.7,22.4 213.7,22.4 
		213.8,22.4 213.9,22.4 213.9,22.4 214,22.4 214,22.4 214,22.3 214,22.3 	"/>
	<polygon class="st7" points="214.5,22.4 214.6,22.3 214.5,22.3 214.5,22.3 214.4,22.3 214.4,22.3 214.3,22.3 214.2,22.3 
		214.1,22.3 214,22.3 214,22.4 214.1,22.4 214.2,22.4 214.3,22.4 214.4,22.4 214.4,22.4 214.5,22.4 214.5,22.4 214.6,22.4 
		214.6,22.4 214.6,22.4 214.6,22.4 214.6,22.4 214.5,22.4 214.5,22.4 	"/>
	<polygon class="st7" points="214.6,22.1 214.6,22.1 214.6,22.2 214.6,22.2 214.5,22.3 214.5,22.4 214.6,22.4 214.6,22.3 
		214.6,22.3 214.6,22.2 214.6,22.1 214.6,22.1 214.6,22.1 214.6,22.1 	"/>
	<polygon class="st7" points="214.1,21.7 214.1,21.7 214.2,21.7 214.3,21.7 214.3,21.7 214.4,21.8 214.5,21.8 214.5,21.9 214.6,22 
		214.6,22.1 214.6,22.1 214.6,22 214.6,21.9 214.5,21.8 214.5,21.7 214.4,21.7 214.3,21.6 214.2,21.6 214.1,21.6 214.1,21.6 
		214.1,21.7 214.1,21.7 	"/>
	<polygon class="st7" points="212.2,21.9 212.3,21.9 212.3,21.9 212.4,21.8 212.5,21.8 212.5,21.8 212.6,21.8 212.8,21.7 
		212.9,21.7 213,21.7 213.1,21.7 213.3,21.7 213.4,21.7 213.6,21.6 213.7,21.6 213.8,21.6 214,21.6 214.1,21.7 214.1,21.6 214,21.6 
		213.8,21.6 213.7,21.6 213.6,21.6 213.4,21.6 213.3,21.6 213.1,21.6 213,21.6 212.9,21.7 212.8,21.7 212.6,21.7 212.5,21.7 
		212.4,21.8 212.4,21.8 212.3,21.8 212.2,21.8 212.3,21.9 212.2,21.9 212.2,21.9 	"/>
	<polygon class="st7" points="212.6,20.8 212.5,20.8 212.2,21.9 212.3,21.9 212.6,20.8 212.6,20.9 212.6,20.8 212.5,20.8 
		212.5,20.8 212.6,20.8 212.6,20.8 	"/>
	<polygon class="st7" points="214.5,20.6 214.5,20.6 214.3,20.6 214.2,20.6 214,20.6 213.9,20.6 213.8,20.6 213.6,20.6 213.5,20.6 
		213.4,20.6 213.3,20.6 213.2,20.6 213.1,20.7 213,20.7 212.8,20.7 212.7,20.7 212.6,20.8 212.6,20.8 212.6,20.9 212.7,20.8 
		212.8,20.8 212.9,20.8 213,20.7 213.1,20.7 213.2,20.7 213.3,20.7 213.4,20.7 213.5,20.7 213.6,20.7 213.8,20.7 213.9,20.7 
		214,20.7 214.2,20.7 214.3,20.7 214.5,20.7 214.5,20.7 214.5,20.6 214.5,20.6 	"/>
	<polygon class="st7" points="215.9,22.1 215.9,22.1 215.9,21.9 215.9,21.7 215.9,21.6 215.9,21.4 215.8,21.3 215.7,21.2 
		215.6,21.1 215.5,21 215.4,20.9 215.3,20.8 215.1,20.8 215,20.7 214.8,20.7 214.7,20.6 214.6,20.6 214.5,20.6 214.5,20.7 
		214.6,20.7 214.7,20.7 214.8,20.7 215,20.8 215.1,20.8 215.2,20.9 215.4,20.9 215.5,21 215.6,21.1 215.7,21.2 215.8,21.3 
		215.8,21.4 215.9,21.6 215.9,21.7 215.9,21.9 215.9,22.1 215.9,22.1 215.9,22.1 215.9,22.1 	"/>
	<polygon class="st7" points="215.5,24.3 215.5,24.3 215.9,22.1 215.9,22.1 215.4,24.3 215.4,24.3 215.5,24.3 215.5,24.3 	"/>
	<polygon class="st5" points="214.4,23.2 214.4,23.2 214.4,23.2 214.4,23.1 214.3,23.1 214.3,23.1 214.2,23.1 214.1,23.1 
		214.1,23.1 214,23.1 213.9,23.1 213.9,23.1 213.8,23.2 213.8,23.2 213.7,23.2 213.6,23.2 213.6,23.2 213.6,23.2 213.5,23.2 
		213.5,23.2 213.4,23.2 213.4,23.3 213.3,23.3 213.3,23.3 213.2,23.4 213.2,23.4 213.1,23.4 213.1,23.5 213,23.6 213,23.6 
		212.9,23.7 212.9,23.7 212.9,23.8 212.9,24 212.9,24.1 213,24.2 213,24.2 213.1,24.3 213.1,24.3 213.2,24.3 213.3,24.3 213.4,24.3 
		213.5,24.3 213.7,24.3 213.8,24.2 213.8,24.2 213.9,24.2 214,24.1 214.1,24.1 214.1,24 214.2,24 214.2,23.9 214.3,23.9 214.3,23.8 
		214.3,23.8 214.3,23.7 214.4,23.7 214.4,23.5 214.4,23.4 214.4,23.3 214.4,23.2 214.4,23.2 	"/>
	<polygon class="st7" points="223.2,24.7 223.2,24.6 223.3,24.5 223.3,24.4 223.4,24.3 223.5,24.2 223.6,24.1 223.7,24.1 
		223.8,24.1 223.9,24.1 224.1,24.1 224.2,24.2 224.2,24.3 224.3,24.4 224.4,24.5 224.4,24.6 224.4,24.7 224.3,24.7 224.3,24.6 
		224.3,24.5 224.2,24.4 224.2,24.3 224.1,24.3 224,24.2 223.9,24.2 223.8,24.2 223.7,24.2 223.6,24.2 223.5,24.3 223.5,24.3 
		223.4,24.4 223.4,24.5 223.4,24.6 223.3,24.7 223.2,24.7 223.2,24.7 	"/>
	<polygon class="st7" points="223.6,24.7 223.6,24.4 223.8,24.4 223.9,24.4 223.9,24.4 224,24.4 224,24.5 224,24.5 224,24.5 
		224.1,24.5 224.1,24.6 224.1,24.6 224,24.6 224,24.7 224,24.7 223.8,24.7 223.9,24.7 223.9,24.7 223.9,24.7 223.9,24.7 224,24.6 
		224,24.6 224,24.6 224,24.6 224,24.6 224,24.5 223.9,24.5 223.9,24.5 223.9,24.5 223.9,24.5 223.9,24.5 223.8,24.5 223.7,24.5 
		223.7,24.7 223.6,24.7 223.6,24.7 	"/>
	<polygon class="st7" points="223.2,24.7 223.2,24.7 223.2,24.8 223.3,24.9 223.3,25 223.4,25.1 223.5,25.2 223.6,25.3 223.7,25.3 
		223.8,25.3 223.9,25.3 224.1,25.3 224.2,25.2 224.2,25.1 224.3,25 224.4,24.9 224.4,24.8 224.4,24.7 224.4,24.7 224.3,24.7 
		224.3,24.7 224.3,24.8 224.3,24.9 224.2,25 224.2,25.1 224.1,25.1 224,25.2 223.9,25.2 223.8,25.2 223.7,25.2 223.6,25.2 
		223.5,25.1 223.5,25.1 223.4,25 223.4,24.9 223.4,24.8 223.3,24.7 223.3,24.7 223.2,24.7 223.2,24.7 	"/>
	<polygon class="st7" points="223.6,24.7 223.6,24.9 223.7,24.9 223.7,24.7 223.8,24.7 223.9,24.9 224,24.9 223.9,24.7 223.9,24.7 
		224,24.7 224,24.7 224,24.7 224,24.7 223.8,24.7 223.8,24.7 223.7,24.7 223.7,24.7 223.6,24.7 223.6,24.7 	"/>
	<path class="st8" d="M223.2,24.7L223.2,24.7l0-0.1l0-0.1l0.1-0.1l0.1-0.1l0.1-0.1l0.1-0.1l0.1,0l0.1,0l0,0l0.1,0l0.1,0l0.1,0.1
		l0.1,0.1l0.1,0.1l0.1,0.1l0,0.1l0,0.1l0,0l0,0.1l0,0.1l-0.1,0.1l-0.1,0.1l-0.1,0.1l-0.1,0.1l-0.1,0l-0.1,0l0,0l-0.1,0l-0.1,0
		l-0.1-0.1l-0.1-0.1l-0.1-0.1l-0.1-0.1l0-0.1L223.2,24.7 M223.7,24.9h-0.1v-0.5h0.2l0,0l0.1,0l0,0l0,0l0,0l0,0l0,0l0,0l0,0l0,0l0,0
		l0,0l0,0l0,0l0,0l0,0l0,0h0l0.1,0.2h-0.1l-0.1-0.2h-0.1V24.9 M223.8,24.7L223.8,24.7L223.8,24.7L223.8,24.7L223.8,24.7l0.1,0l0,0
		l0,0l0,0v0l0,0l0,0l0,0l0,0l0,0l0,0l0,0h0h0h-0.1v0.2H223.8 M223.8,25.2L223.8,25.2L223.8,25.2l0.2,0l0.1,0l0.1-0.1l0.1-0.1l0-0.1
		l0-0.1l0-0.1l0,0l0-0.1l0-0.1l0-0.1l-0.1-0.1l-0.1-0.1l-0.1,0l-0.1,0l-0.1,0l0,0l-0.1,0l-0.1,0l-0.1,0l-0.1,0.1l-0.1,0.1l0,0.1
		l0,0.1l0,0.1l0,0l0,0.1l0,0.1l0,0.1l0.1,0.1l0.1,0.1l0.1,0L223.8,25.2L223.8,25.2"/>
	<polygon class="st7" points="215.8,25.3 217,25.3 217,25.3 217.4,22.8 217.4,22.7 217.5,22.6 217.5,22.5 217.5,22.5 217.6,22.4 
		217.6,22.3 217.7,22.2 217.7,22.1 217.8,22 217.9,22 218,21.9 218.1,21.8 218.2,21.8 218.4,21.8 218.5,21.7 218.7,21.7 218.7,21.7 
		218.8,21.7 218.8,21.7 218.8,21.7 219,20.6 218.9,20.6 218.7,20.7 218.6,20.7 218.5,20.7 218.4,20.7 218.3,20.8 218.3,20.8 
		218.2,20.9 218.1,20.9 218,21 218,21.1 217.9,21.1 217.8,21.2 217.8,21.3 217.7,21.4 217.6,21.5 217.8,20.7 216.6,20.7 215.8,25.3 
		215.8,25.3 215.8,25.3 	"/>
	<polyline class="st8" points="215.8,25.3 217,25.3 217,25.3 217.4,22.8 217.4,22.8 217.4,22.7 217.5,22.6 217.5,22.5 217.5,22.5 
		217.6,22.4 217.6,22.3 217.7,22.2 217.7,22.1 217.8,22 217.9,22 218,21.9 218.1,21.8 218.2,21.8 218.4,21.8 218.5,21.7 218.7,21.7 
		218.7,21.7 218.7,21.7 218.8,21.7 218.8,21.7 218.8,21.7 219,20.6 219,20.6 218.9,20.6 218.7,20.7 218.6,20.7 218.5,20.7 
		218.4,20.7 218.3,20.8 218.3,20.8 218.2,20.9 218.1,20.9 218,21 218,21.1 217.9,21.1 217.8,21.2 217.8,21.3 217.7,21.4 217.6,21.5 
		217.8,20.7 216.6,20.7 215.8,25.3 215.8,25.3 	"/>
	<polygon class="st7" points="204.4,25.3 205.7,25.3 205.7,25.3 206.1,22.8 206.1,22.7 206.1,22.6 206.1,22.6 206.2,22.5 
		206.2,22.4 206.3,22.3 206.3,22.2 206.4,22.2 206.4,22.1 206.5,22 206.6,22 206.7,21.9 206.8,21.9 207,21.9 207.1,21.8 207.3,21.8 
		207.3,21.8 207.3,21.8 207.3,21.8 207.3,21.8 207.4,21.8 207.4,21.8 207.4,21.8 207.4,21.8 207.4,21.8 207.4,21.8 207.4,21.7 
		207.5,21.6 207.5,21.5 207.5,21.4 207.6,21.3 207.6,21.1 207.6,21.1 207.7,21 207.7,20.9 207.8,20.8 207.8,20.8 207.8,20.7 
		207.8,20.7 207.9,20.7 207.8,20.7 207.8,20.7 207.8,20.6 207.8,20.6 207.7,20.6 207.7,20.6 207.7,20.6 207.7,20.6 207.5,20.6 
		207.4,20.7 207.3,20.7 207.2,20.7 207.1,20.7 207,20.8 206.9,20.8 206.8,20.9 206.8,20.9 206.7,21 206.6,21.1 206.6,21.1 
		206.5,21.2 206.4,21.3 206.4,21.4 206.3,21.5 206.5,20.7 205.2,20.7 204.4,25.3 204.4,25.3 204.4,25.3 	"/>
	<polyline class="st8" points="204.4,25.3 205.7,25.3 205.7,25.3 206.1,22.8 206.1,22.8 206.1,22.7 206.1,22.6 206.1,22.6 
		206.2,22.5 206.2,22.4 206.3,22.3 206.3,22.2 206.4,22.2 206.4,22.1 206.5,22 206.6,22 206.7,21.9 206.8,21.9 207,21.9 207.1,21.8 
		207.3,21.8 207.3,21.8 207.3,21.8 207.3,21.8 207.3,21.8 207.3,21.8 207.4,21.8 207.4,21.8 207.4,21.8 207.4,21.8 207.4,21.8 
		207.4,21.8 207.4,21.8 207.4,21.7 207.5,21.6 207.5,21.5 207.5,21.4 207.6,21.3 207.6,21.1 207.6,21.1 207.6,21.1 207.7,21 
		207.7,20.9 207.8,20.8 207.8,20.8 207.8,20.7 207.8,20.7 207.9,20.7 207.9,20.7 207.8,20.7 207.8,20.7 207.8,20.6 207.8,20.6 
		207.7,20.6 207.7,20.6 207.7,20.6 207.7,20.6 207.7,20.6 207.5,20.6 207.4,20.7 207.3,20.7 207.2,20.7 207.1,20.7 207,20.8 
		206.9,20.8 206.8,20.9 206.8,20.9 206.7,21 206.6,21.1 206.6,21.1 206.5,21.2 206.4,21.3 206.4,21.4 206.3,21.5 206.5,20.7 
		205.2,20.7 204.4,25.3 204.4,25.3 	"/>
	<polygon class="st5" points="223.2,29.8 223.2,29.7 223.3,29.6 223.3,29.5 223.4,29.4 223.5,29.4 223.6,29.3 223.7,29.3 
		223.8,29.3 223.9,29.3 224.1,29.3 224.2,29.4 224.2,29.4 224.3,29.5 224.4,29.6 224.4,29.7 224.4,29.8 224.3,29.8 224.3,29.7 
		224.2,29.6 224.2,29.5 224.1,29.5 224,29.4 223.9,29.4 223.8,29.4 223.7,29.4 223.6,29.4 223.5,29.5 223.5,29.5 223.4,29.6 
		223.4,29.7 223.4,29.8 223.2,29.8 223.2,29.8 	"/>
	<polygon class="st5" points="223.6,29.8 223.6,29.6 223.8,29.6 223.9,29.6 223.9,29.6 224,29.6 224,29.6 224,29.7 224,29.7 
		224.1,29.7 224.1,29.8 224,29.8 224,29.7 224,29.7 224,29.7 223.9,29.7 223.9,29.7 223.9,29.7 223.9,29.7 223.9,29.7 223.8,29.7 
		223.7,29.7 223.7,29.8 223.6,29.8 223.6,29.8 	"/>
	<polygon class="st5" points="223.2,29.9 223.2,29.8 223.4,29.8 223.4,29.8 223.3,29.9 223.2,29.9 223.2,29.9 	"/>
	<polygon class="st5" points="223.6,29.9 223.6,29.8 223.7,29.8 223.7,29.8 223.8,29.8 223.9,29.8 223.9,29.8 223.9,29.8 
		223.9,29.8 224,29.8 224,29.8 224,29.8 224,29.8 224.1,29.8 224.1,29.8 224.1,29.8 224,29.8 224,29.8 224,29.9 223.6,29.9 
		223.6,29.9 	"/>
	<polygon class="st5" points="224.3,29.9 224.3,29.8 224.3,29.8 224.4,29.8 224.4,29.9 224.3,29.9 224.3,29.9 	"/>
	<polygon class="st5" points="223.2,29.9 223.2,29.9 223.2,30 223.3,30.1 223.3,30.2 223.4,30.3 223.5,30.4 223.6,30.4 223.7,30.5 
		223.8,30.5 223.9,30.5 224.1,30.4 224.2,30.4 224.2,30.3 224.3,30.2 224.4,30.1 224.4,30 224.4,29.9 224.4,29.9 224.3,29.9 
		224.3,29.9 224.3,30 224.3,30.1 224.2,30.1 224.2,30.2 224.1,30.3 224,30.3 223.9,30.4 223.8,30.4 223.7,30.4 223.6,30.3 
		223.5,30.3 223.5,30.2 223.4,30.1 223.4,30.1 223.4,30 223.3,29.9 223.3,29.9 223.2,29.9 223.2,29.9 	"/>
	<polygon class="st5" points="223.6,29.9 223.6,30.1 223.7,30.1 223.7,29.9 223.8,29.9 223.9,30.1 224,30.1 223.9,29.9 223.9,29.9 
		224,29.9 224,29.9 224,29.9 224,29.9 223.6,29.9 223.6,29.9 	"/>
	<path class="st7" d="M204.6,22l0-0.3l-0.1-0.2l-0.1-0.2l-0.1-0.2l-0.1-0.1l-0.1-0.1l-0.2-0.1l-0.2-0.1l-0.2-0.1l-0.2,0l-0.2,0
		l-0.2,0l-0.2,0l-0.3,0l-0.3,0.1l-0.3,0.1l-0.2,0.1l-0.2,0.1l-0.2,0.1l-0.2,0.2l-0.1,0.2l-0.1,0.2l-0.1,0.2l-0.1,0.2l-0.1,0.2l0,0.2
		l0,0.2l0,0.2l0,0.1l0,0.4l0,0.3l0,0.3l0.1,0.3l0.1,0.2l0.1,0.2l0.1,0.2l0.2,0.1l0.2,0.1l0.2,0.1l0.2,0.1l0.2,0.1l0.2,0.1l0.2,0
		l0.2,0l0.2,0h0.1l0.1,0h0.1l0.1,0l0.1,0l0.1,0l0.1,0l0.1,0l0.1,0l0.1,0l0.1,0l0.1,0l0.1,0l0.1,0l0.1,0l0.1,0l0.2-1.1l-0.1,0.1
		l-0.1,0.1l-0.1,0.1l-0.1,0l-0.1,0l-0.1,0l-0.1,0l-0.1,0l-0.1,0l-0.1,0H203l-0.1,0l-0.1,0l-0.1,0l-0.1,0l-0.1,0l-0.1,0l-0.1,0
		l-0.1,0l-0.1,0l-0.1-0.1L202,24l-0.1-0.1l-0.1-0.1l-0.1-0.1l0-0.1l0-0.1l0-0.1l0-0.1l0-0.1l0-0.1l0-0.1h2.8l0-0.3l0.1-0.4l0-0.3
		L204.6,22z M203.4,22.4h-1.6l0,0l0,0l0-0.1l0-0.1l0-0.1l0-0.1l0-0.1l0-0.1l0-0.1l0.1-0.1l0.1-0.1l0.1-0.1l0.1,0l0.1,0l0.1,0l0.1,0
		l0.1,0l0.1,0l0.1,0l0.1,0l0.1,0l0.1,0l0.1,0l0.1,0l0.1,0l0.1,0l0.1,0.1l0,0.1l0,0.1l0,0.1l0,0.1l0,0.1l0,0.1l0,0.1L203.4,22.4z"/>
</g>
<path class="st0" d="M323.7,41.8c0,1.3-1.1,2.4-2.4,2.4h-65.9c-1.3,0-2.4-1.1-2.4-2.4V2.4c0-1.3,1.1-2.4,2.4-2.4h65.9
	c1.3,0,2.4,1.1,2.4,2.4V41.8z"/>
<path class="st9" d="M272.5,44.2h48.9c1.3,0,2.4-1.1,2.4-2.4V25.3C319,28.2,301.4,38.5,272.5,44.2z"/>
<g>
	
		<radialGradient id="SVGID_1_" cx="282.8434" cy="-464.0019" r="3.4816" gradientTransform="matrix(1 0 0 1 6.416 486.083)" gradientUnits="userSpaceOnUse">
		<stop  offset="5.618000e-03" style="stop-color:#FFEEE0"/>
		<stop  offset="0.1096" style="stop-color:#FEE9D7"/>
		<stop  offset="0.2793" style="stop-color:#FDDBBF"/>
		<stop  offset="0.4935" style="stop-color:#FBC597"/>
		<stop  offset="0.744" style="stop-color:#F8A560"/>
		<stop  offset="1" style="stop-color:#F48120"/>
	</radialGradient>
	<path class="st10" d="M289.3,18.6c-1.9,0-3.5,1.5-3.5,3.4c0,2,1.5,3.5,3.5,3.5c2,0,3.5-1.5,3.5-3.4
		C292.8,20.2,291.2,18.6,289.3,18.6z"/>
	<path class="st11" d="M269.2,18.8h-1.9v6.6h1.9c1,0,1.7-0.2,2.4-0.8c0.8-0.6,1.2-1.6,1.2-2.5C272.8,20.1,271.3,18.8,269.2,18.8z
		 M270.8,23.7c-0.4,0.4-0.9,0.5-1.8,0.5h-0.3v-4.4h0.3c0.8,0,1.3,0.1,1.8,0.5c0.4,0.4,0.7,1,0.7,1.6
		C271.5,22.7,271.2,23.3,270.8,23.7z"/>
	<rect x="273.4" y="18.8" class="st11" width="1.3" height="6.6"/>
	<path class="st11" d="M277.8,21.3c-0.8-0.3-1-0.5-1-0.8c0-0.4,0.4-0.7,1-0.7c0.4,0,0.7,0.2,1,0.5l0.7-0.9c-0.6-0.5-1.2-0.7-1.9-0.7
		c-1.2,0-2.1,0.8-2.1,1.9c0,0.9,0.4,1.4,1.6,1.8c0.5,0.2,0.8,0.3,0.9,0.4c0.3,0.2,0.4,0.4,0.4,0.7c0,0.5-0.4,0.9-1,0.9
		c-0.6,0-1.1-0.3-1.4-0.9l-0.8,0.8c0.6,0.9,1.3,1.3,2.3,1.3c1.3,0,2.3-0.9,2.3-2.2C279.7,22.3,279.3,21.8,277.8,21.3z"/>
	<path class="st11" d="M280.1,22.1c0,1.9,1.5,3.5,3.5,3.5c0.6,0,1-0.1,1.6-0.4v-1.5c-0.5,0.5-1,0.7-1.6,0.7c-1.3,0-2.2-0.9-2.2-2.3
		c0-1.3,1-2.3,2.2-2.3c0.6,0,1.1,0.2,1.6,0.7V19c-0.6-0.3-1-0.4-1.6-0.4C281.7,18.6,280.1,20.2,280.1,22.1z"/>
	<polygon class="st11" points="295.7,23.2 293.9,18.8 292.5,18.8 295.3,25.5 296,25.5 298.9,18.8 297.5,18.8 	"/>
	<polygon class="st11" points="299.5,25.4 303.1,25.4 303.1,24.3 300.8,24.3 300.8,22.5 303,22.5 303,21.4 300.8,21.4 300.8,19.9 
		303.1,19.9 303.1,18.8 299.5,18.8 	"/>
	<path class="st11" d="M308.2,20.7c0-1.2-0.9-2-2.3-2H304v6.6h1.3v-2.7h0.2l1.8,2.7h1.6l-2.1-2.8C307.7,22.4,308.2,21.7,308.2,20.7z
		 M305.6,21.8h-0.4v-2h0.4c0.8,0,1.2,0.3,1.2,1C306.9,21.4,306.5,21.8,305.6,21.8z"/>
	<path class="st12" d="M309.1,19.3c0-0.1-0.1-0.2-0.2-0.2h-0.2v0.6h0.1v-0.2l0.2,0.2h0.2l-0.2-0.2C309.1,19.4,309.1,19.3,309.1,19.3
		z M308.9,19.3L308.9,19.3l0-0.2h0c0.1,0,0.1,0,0.1,0.1C309,19.3,309,19.3,308.9,19.3z"/>
	<path class="st12" d="M308.9,18.9c-0.3,0-0.5,0.2-0.5,0.5c0,0.3,0.2,0.5,0.5,0.5c0.3,0,0.5-0.2,0.5-0.5S309.2,18.9,308.9,18.9z
		 M308.9,19.8c-0.2,0-0.4-0.2-0.4-0.4c0-0.2,0.2-0.4,0.4-0.4c0.2,0,0.4,0.2,0.4,0.4C309.3,19.6,309.2,19.8,308.9,19.8z"/>
</g>
<path class="st0" d="M408.1,41.8c0,1.3-1.1,2.4-2.4,2.4h-65.9c-1.3,0-2.4-1.1-2.4-2.4V2.4c0-1.3,1.1-2.4,2.4-2.4h65.9
	c1.3,0,2.4,1.1,2.4,2.4V41.8z"/>
<g>
	<path class="st13" d="M359.4,21.1v-0.7l-0.3,0.7h-2.9l-0.4-0.8v0.8h-5.5l-0.6-1.5h-1.1l-0.7,1.5H345v-4.6l2.1-4.7h4l0.6,1.3v-1.3
		h4.9l1.1,2.2l1-2.3H374c0,0,0.8,0,1.3,0.4l0-0.4h3.9v0.5c0,0,0.7-0.5,1.7-0.5c1,0,6.8,0,6.8,0l0.6,1.4v-1.4h4.4l0.8,1.4v-1.4h4.2
		v9.3h-4.3l-1-1.6v1.6H387l-0.8-1.7h-1l-0.7,1.7h-3.2c0,0-1.2,0-2.1-0.7c0,0.3,0,0.7,0,0.7h-6.4c0,0,0-1.9,0-2.2
		c0-0.3-0.2-0.3-0.2-0.3h-0.2v2.5H359.4z"/>
	<path class="st13" d="M356.1,23.1h8.5l1.2,1.4l1.2-1.4h6.5c0,0,0.6,0,1.2,0.3v-0.3c0,0,5.1,0,5.8,0c0.7,0,1.4,0.4,1.4,0.4v-0.4h7.4
		v0.3c0,0,0.5-0.3,1.2-0.3c0.7,0,4.8,0,4.8,0v0.3c0,0,0.6-0.3,1.3-0.3c0.6,0,3.8,0,3.8,0v8.8c0,0-0.5,0.6-1.5,0.6h-5v-0.3
		c0,0-0.5,0.3-1.2,0.3c-0.7,0-13.3,0-13.3,0s0-2,0-2.3c0-0.2-0.1-0.3-0.3-0.3h-0.2v2.5h-4.2v-2.5c0,0-0.5,0.2-1.2,0.2
		c-0.8,0-1.5,0-1.5,0v2.3h-5.1l-1.2-1.4l-1.2,1.4h-8.3V23.1z"/>
	<polygon class="st14" points="382.8,24.5 388.1,24.5 388.1,25.9 384.4,25.9 384.4,27.1 388,27.1 388,28.4 384.4,28.4 384.4,29.7 
		388.1,29.7 388.1,31.1 382.8,31.1 	"/>
	<path class="st14" d="M398.4,27c2,0.1,2.2,1.1,2.2,2.2c0,1.2-1,1.9-2.1,1.9H395v-1.4h2.7c0.5,0,1.1,0,1.1-0.6
		c0-0.3-0.1-0.5-0.6-0.5c-0.2,0-1-0.1-1.1-0.1c-1.8,0-2.2-0.9-2.2-2c0-1.2,0.9-1.9,1.9-1.9h3.4v1.4h-2.5c-0.6,0-1.2-0.1-1.2,0.6
		c0,0.4,0.3,0.5,0.7,0.5C397.4,27,398.2,27.1,398.4,27z"/>
	<path class="st14" d="M392.2,27c2,0.1,2.2,1.1,2.2,2.2c0,1.2-1,1.9-2.1,1.9h-3.4v-1.4h2.7c0.5,0,1.1,0,1.1-0.6
		c0-0.3-0.1-0.5-0.6-0.5c-0.2,0-1-0.1-1.1-0.1c-1.8,0-2.2-0.9-2.2-2c0-1.2,0.9-1.9,1.9-1.9h3.4v1.4h-2.5c-0.6,0-1.2-0.1-1.2,0.6
		c0,0.4,0.3,0.5,0.7,0.5C391.2,27,392.1,27.1,392.2,27z"/>
	<path class="st14" d="M373,24.5h-5.7l-1.9,2.1l-1.8-2.1h-6.4v6.6h6.2l1.9-2.2l1.9,2.2h3.1v-2.2h2.2c0.8,0,2.4,0,2.4-2.3
		C375,24.9,373.8,24.5,373,24.5z M362.6,29.7h-3.7v-1.3h3.6v-1.3h-3.6v-1.2l3.9,0l1.6,1.8L362.6,29.7z M368.8,30.5l-2.3-2.8l2.3-2.6
		V30.5z M372.5,27.5h-2v-1.6h2c0.7,0,0.9,0.4,0.9,0.8C373.4,27.1,373.1,27.5,372.5,27.5z"/>
	<path class="st14" d="M380.8,28.1c0.9-0.4,1.1-1,1.1-1.8c0-1.4-1.2-1.8-1.9-1.8h-4.2v6.6h1.6v-2.3h2.1c0.6,0,0.8,0.6,0.8,1.1l0,1.2
		h1.6l-0.1-1.4C381.9,28.7,381.6,28.2,380.8,28.1z M379.4,27.4h-2v-1.5h2c0.7,0,0.9,0.4,0.9,0.8C380.3,27.1,380.1,27.4,379.4,27.4z"
		/>
	<rect x="376.4" y="13.1" class="st14" width="1.6" height="6.6"/>
	<polygon class="st14" points="363.2,13.1 368.5,13.1 368.5,14.5 364.8,14.5 364.8,15.7 368.4,15.7 368.4,17 364.8,17 364.8,18.3 
		368.5,18.3 368.5,19.7 363.2,19.7 	"/>
	<path class="st14" d="M374.5,16.7c0.9-0.4,1.1-1,1.1-1.8c0-1.4-1.2-1.8-1.9-1.8h-4.2v6.6h1.6v-2.3h2.1c0.6,0,0.8,0.6,0.8,1.1l0,1.2
		h1.6l-0.1-1.4C375.5,17.3,375.2,16.8,374.5,16.7z M373.1,16h-2v-1.5h2c0.7,0,0.9,0.4,0.9,0.8C374,15.7,373.7,16,373.1,16z"/>
	<path class="st14" d="M359.4,13.1l-2,4.4l-2-4.4h-2.5v6.4l-2.8-6.4h-2.1l-2.9,6.6h1.7l0.6-1.5h3.2l0.6,1.5h3.3v-4.9l2.2,4.9h1.5
		l2.2-4.8v4.8h1.6v-6.6H359.4z M348,16.8l1-2.3l1,2.3H348z"/>
	<path class="st14" d="M394.8,13.1v4.6l-2.7-4.6h-2.4v6.2l-2.8-6.2h-2.1l-2.2,5.1c0,0-0.9,0-1,0c-0.4-0.1-1-0.4-1-1.5v-0.5
		c0-1.6,0.8-1.7,1.9-1.7h1v-1.4h-2.1c-0.7,0-2.3,0.6-2.4,3.3c0,1.8,0.8,3.3,2.6,3.3h2.1l0.6-1.5h3.2l0.6,1.5h3.2v-4.8l2.9,4.8h2.2
		v-6.6H394.8z M384.9,16.8l1-2.3l1,2.3H384.9z"/>
</g>
</svg>
