<?xml version="1.0" encoding="utf-8"?>
<svg width="38px" height="38px" viewBox="0 0 38 38" version="1.1" xmlns:xlink="http://www.w3.org/1999/xlink" xmlns="http://www.w3.org/2000/svg">
  <g id="checkmark" transform="translate(0.4000244 0.39990234)">
    <g id="checkmark">
      <path d="M18.5 37C28.7173 37 37 28.7173 37 18.5C37 8.28273 28.7173 0 18.5 0C8.28273 0 0 8.28273 0 18.5C0 28.7173 8.28273 37 18.5 37Z" id="Oval" fill="#FFFFFF" fill-rule="evenodd" stroke="none" />
      <g id="010-secure" transform="translate(9.961538 12.807693)">
        <path d="M16.7558 2.92376L7.55831 11.8849C7.3443 12.0934 7.06363 12.1978 6.7831 12.1978C6.50257 12.1978 6.2219 12.0935 6.00788 11.8849L0.321167 6.3443C0.115486 6.14405 0 5.8723 0 5.58901C0 5.30572 0.115632 5.03397 0.321167 4.83371L1.45029 3.7336C1.87847 3.31657 2.5727 3.31643 3.00073 3.7336L6.7831 7.41878L14.0762 0.312914C14.2818 0.112518 14.5607 0 14.8514 0C15.1422 0 15.4211 0.112518 15.6267 0.312914L16.7558 1.41303C17.184 1.8302 17.184 2.50659 16.7558 2.92376Z" id="Path" fill="#72AE4A" stroke="none" />
      </g>
    </g>
  </g>
</svg>