<?xml version="1.0" encoding="utf-8"?>
<svg width="16px" height="16px" viewBox="0 0 16 16" version="1.1" xmlns:xlink="http://www.w3.org/1999/xlink" xmlns="http://www.w3.org/2000/svg">
  <g id="check-testimonials">
    <g id="check-testimonials">
      <path d="M8 16C12.4183 16 16 12.4183 16 8C16 3.58172 12.4183 0 8 0C3.58172 0 0 3.58172 0 8C0 12.4183 3.58172 16 8 16Z" id="Oval-Copy-6" fill="#77C44F" fill-rule="evenodd" stroke="none" />
      <g id="002-correct-symbol" transform="translate(3.3333333 5.3333335)">
        <path d="M8.2048 0.826253L7.47167 0.141053C7.37114 0.0470294 7.24888 0 7.10518 0C6.96134 0 6.83908 0.0470294 6.73855 0.141053L3.20214 3.45124L1.61723 1.96491C1.51659 1.87085 1.39441 1.82388 1.2507 1.82388C1.1069 1.82388 0.984715 1.87085 0.884076 1.96491L0.15094 2.65013C0.0503007 2.74417 0 2.8584 0 2.99278C0 3.12706 0.0503007 3.24139 0.15094 3.33542L2.10237 5.15922L2.83557 5.84442C2.93615 5.93852 3.05837 5.98549 3.20214 5.98549C3.34584 5.98549 3.46806 5.93839 3.5687 5.84442L4.30188 5.15922L8.2048 1.51151C8.30535 1.41745 8.35574 1.30324 8.35574 1.16885C8.35582 1.03454 8.30535 0.920312 8.2048 0.826253Z" id="Path" fill="#FFFFFF" fill-rule="evenodd" stroke="none" />
      </g>
    </g>
  </g>
</svg>