<?xml version="1.0" encoding="utf-8"?>
<svg width="25px" height="24px" viewBox="0 0 25 24" version="1.1" xmlns:xlink="http://www.w3.org/1999/xlink" xmlns="http://www.w3.org/2000/svg">
  <g id="checkmark">
    <g id="checkmark">
      <path d="M12.0047 23.9706C18.6347 23.9706 24.0094 18.6046 24.0094 11.9853C24.0094 5.366 18.6347 0 12.0047 0C5.37469 0 0 5.366 0 11.9853C0 18.6046 5.37469 23.9706 12.0047 23.9706Z" id="Oval" fill="#9FC700" fill-rule="evenodd" stroke="none" />
      <g id="010-secure" transform="translate(6.4640784 8.297512)">
        <path d="M10.8729 1.89417L4.90462 7.69967C4.76574 7.83476 4.58361 7.90239 4.40158 7.90239C4.21954 7.90239 4.03741 7.83485 3.89854 7.69967L0.208406 4.11018C0.074939 3.98045 0 3.80439 0 3.62086C0 3.43733 0.0750339 3.26128 0.208406 3.13154L0.941101 2.41883C1.21894 2.14865 1.66943 2.14856 1.94718 2.41883L4.40158 4.80628L9.13412 0.202722C9.26749 0.0728952 9.44848 0 9.63716 0C9.82583 0 10.0068 0.0728952 10.1402 0.202722L10.8729 0.915434C11.1507 1.1857 11.1507 1.6239 10.8729 1.89417Z" id="Path" fill="#FFFFFF" fill-rule="evenodd" stroke="none" />
      </g>
    </g>
  </g>
</svg>