<?xml version="1.0" encoding="utf-8"?>
<svg width="16px" height="20px" viewBox="0 0 16 20" version="1.1" xmlns:xlink="http://www.w3.org/1999/xlink" xmlns="http://www.w3.org/2000/svg">
  <defs>
    <path d="M0 0L16 0L16 20L0 20L0 0Z" id="path_1" />
    <clipPath id="mask_1">
      <use xlink:href="#path_1" />
    </clipPath>
  </defs>
  <g id="Group-8">
    <g id="Group-3">
      <path d="M0 0L16 0L16 20L0 20L0 0Z" id="Clip-2" fill="none" fill-rule="evenodd" stroke="none" />
      <g clip-path="url(#mask_1)">
        <path d="M7.99998 19.1386C4.06128 19.1386 0.856966 15.9179 0.856966 11.9588C0.856966 7.99991 4.06128 4.77912 7.99998 4.77912C11.9387 4.77912 15.1431 7.99991 15.1431 11.9588C15.1431 15.9179 11.9387 19.1386 7.99998 19.1386M5.37323 1.42777C5.37388 1.11516 5.62718 0.86137 5.93804 0.86137L5.93918 0.86137L9.58774 0.86905C9.88844 0.869704 10.1356 1.10666 10.1507 1.40841C10.1585 1.56545 10.1033 1.71457 9.99542 1.82839C9.88779 1.94196 9.7426 2.00439 9.58669 2.00439L9.58539 2.00439L5.93674 1.99663C5.62539 1.99605 5.3725 1.7408 5.37323 1.42777M8.19085 3.92021L8.19085 2.86282L9.5836 2.86576L9.58677 2.86576C9.97932 2.86576 10.3447 2.70847 10.6157 2.42274C10.8874 2.13627 11.0263 1.76073 11.0065 1.36535C10.9688 0.605786 10.3464 0.00939646 9.58961 0.00768059L5.94096 0L5.93796 0C5.15553 0 4.51797 0.639041 4.51626 1.42597C4.51464 2.21397 5.15106 2.85644 5.93495 2.85808L7.3338 2.86102L7.3338 3.94586C3.23309 4.28732 0 7.75053 0 11.9588C0 16.3928 3.58874 20 7.99998 20C12.4112 20 16 16.3928 16 11.9588C16 7.58908 12.5142 4.0225 8.19085 3.92021" transform="translate(0 -8.170839E-06)" id="Fill-1" fill="#012169" fill-rule="evenodd" stroke="none" />
      </g>
    </g>
    <path d="M4.59518 4.01504L2.47235 2.38178L0.767445 0.167233C0.633234 -0.00713237 0.389931 -0.0515 0.20345 0.0642808C0.0168881 0.180062 -0.0526155 0.41865 0.042332 0.617283L1.35339 3.36023C1.39688 3.45142 1.47093 3.52422 1.56255 3.56598L4.15775 4.74928C4.21498 4.77534 4.27514 4.78784 4.33456 4.78784C4.48105 4.78784 4.62265 4.71194 4.70232 4.57834C4.81426 4.39049 4.76816 4.14807 4.59518 4.01504" transform="translate(6.0624986 8.9869585)" id="Fill-4" fill="#012169" fill-rule="evenodd" stroke="none" />
    <path d="M5.40339 10.0009C2.89655 10.0009 0.857047 7.95088 0.857047 5.43108C0.857047 2.91135 2.89655 0.86137 5.40339 0.86137C7.91031 0.86137 9.94981 2.91135 9.94981 5.43108C9.94981 7.95088 7.91031 10.0009 5.40339 10.0009M5.40339 0C2.42401 0 0 2.43638 0 5.43108C0 8.42585 2.42401 10.8622 5.40339 10.8622C8.38285 10.8622 10.8068 8.42585 10.8068 5.43108C10.8068 2.43638 8.38285 0 5.40339 0" transform="translate(2.596586 6.5277653)" id="Fill-6" fill="#012169" fill-rule="evenodd" stroke="none" />
  </g>
</svg>