<?xml version="1.0" encoding="utf-8"?>
<svg width="112px" height="112px" viewBox="0 0 112 112" version="1.1" xmlns:xlink="http://www.w3.org/1999/xlink" xmlns="http://www.w3.org/2000/svg">
  <g id="Cruelty-Free" transform="translate(0.8925781 0.8925781)">
    <g id="Group-12-Copy-14">
      <path d="M55 110C85.3757 110 110 85.3757 110 55C110 24.6243 85.3757 0 55 0C24.6243 0 0 24.6243 0 55C0 85.3757 24.6243 110 55 110Z" id="Oval-Copy-4" fill="#FFFFFF" fill-rule="evenodd" stroke="none" />
    </g>
    <g id="Group-5" transform="translate(23 29)">
      <path d="M63 18.3283C63 33.2104 31.5176 60 31.5176 60C31.5176 60 0 33.9064 0 18.3283C0 8.20548 8.22639 0 18.374 0C23.5173 0 28.1649 2.10714 31.5009 5.50165C34.8351 2.10714 39.4833 0 44.6242 0C54.7736 0 63 8.20548 63 18.3283Z" id="Stroke-1" fill="none" fill-rule="evenodd" stroke="#012169" stroke-width="1.784705" stroke-linecap="round" stroke-linejoin="round" />
      <path d="M33.3964 49.1639C33.3165 49.0728 33.239 48.9806 33.1638 48.8884C28.9946 43.7782 32.0771 36.0707 38.5946 34.9981C38.7049 34.9802 38.8171 34.9624 38.9286 34.9451C40.9524 34.6263 43.0287 33.1908 44.5986 31.8368C46.1798 30.4732 46.4393 28.1234 45.2177 26.4315C44.3349 25.2078 43.8834 23.7651 43.2864 22.3802C39.7947 14.2788 35.6075 20.1077 28.4494 11.2776C23.2268 4.83536 27.5971 0 27.5971 0C27.5971 0 34.2822 7.12573 32.9085 15.3508C29.1031 17.101 27.2368 20.2499 26.8002 24.0263C26.8002 24.0263 11.9573 12.1003 0 23.341" transform="translate(3.9038968 5.501651)" id="Stroke-3" fill="none" fill-rule="evenodd" stroke="#012169" stroke-width="1.784705" stroke-linecap="round" stroke-linejoin="round" />
    </g>
  </g>
</svg>