<?xml version="1.0" encoding="utf-8"?>
<svg width="112px" height="112px" viewBox="0 0 112 112" version="1.1" xmlns:xlink="http://www.w3.org/1999/xlink" xmlns="http://www.w3.org/2000/svg">
  <g id="Gentle-Scin" transform="translate(0.81396484 0.81396484)">
    <g id="Group-12-Copy">
      <path d="M55 110C85.3757 110 110 85.3757 110 55C110 24.6243 85.3757 0 55 0C24.6243 0 0 24.6243 0 55C0 85.3757 24.6243 110 55 110Z" id="Oval-Copy-4" fill="#FFFFFF" fill-rule="evenodd" stroke="none" />
    </g>
    <g id="Group-9" transform="translate(22 26)">
      <path d="M38.7925 0.63938L26.4808 0.00496809C24.0359 -0.120825 22.1651 2.16251 22.7589 4.54768C23.1319 6.04631 24.4013 7.14795 25.9316 7.30152L32.4585 7.95717L14 10.3886L4.50858 4.97298C2.66658 3.92144 0.347403 5.05358 0.0334442 7.1583C-0.124891 8.21856 0.28613 9.28372 1.11468 9.96006L9.77811 17.029C12.7079 19.4196 16.3572 20.7423 20.1317 20.7821L30.3671 19.7109C39.0549 18.8026 47.739 21.4655 54.4389 27.0935L56.7071 28.9984C58.7069 30.6784 61.7413 30.0695 62.9457 27.7476L66.538 20.8213C67.4734 19.0183 66.9507 16.7986 65.3109 15.6066L50.3396 4.7263C46.9641 2.27306 42.9537 0.853936 38.7925 0.63938Z" transform="translate(0 32.04615)" id="Stroke-1" fill="none" fill-rule="evenodd" stroke="#012169" stroke-width="1.6275" stroke-linecap="round" stroke-linejoin="round" />
      <path d="M53.475 4.28895C53.475 4.28895 24.8136 21.8804 0 0" transform="translate(7.5301285 7.6610065)" id="Stroke-3" fill="none" fill-rule="evenodd" stroke="#012169" stroke-width="1.6275" stroke-linecap="round" stroke-linejoin="round" />
      <path d="M50.6266 16.491C50.6266 16.491 50.0844 12.5233 44.0324 11.0035C37.9804 9.48414 28.5996 6.74936 28.5996 6.74936L33.4413 13.4349C32.3519 14.0094 16.1551 8.42443 9.55166 1.70674C5.84217 -2.06651 -0.52215 0.863216 0.034192 6.13564C0.484254 10.4083 3.50347 15.6556 10.4567 19.6881C12.6072 20.9357 14.9182 21.8723 17.3009 22.5786C25.0159 24.8647 46.4644 28.785 50.6266 16.491Z" transform="translate(0.71794224 0)" id="Stroke-5" fill="none" fill-rule="evenodd" stroke="#012169" stroke-width="1.6275" stroke-linecap="round" stroke-linejoin="round" />
      <path d="M0 2.27081L3.28871 0" transform="translate(16.197247 19.38069)" id="Stroke-7" fill="none" fill-rule="evenodd" stroke="#012169" stroke-width="1.6275" stroke-linecap="round" stroke-linejoin="round" />
    </g>
  </g>
</svg>