<?xml version="1.0" encoding="utf-8"?>
<svg width="18px" height="18px" viewBox="0 0 18 18" version="1.1" xmlns:xlink="http://www.w3.org/1999/xlink" xmlns="http://www.w3.org/2000/svg">
  <g id="noun_Gift_73959">
    <path d="M17.625 4.125L13.0916 4.125C13.8589 3.6885 14.25 3.0645 14.25 2.25C14.25 0.23325 12.966 0 12 0C10.7621 0 9.5805 1.42088 9 2.85075C8.4195 1.42088 7.23825 0 6 0C5.034 0 3.75 0.23325 3.75 2.25C3.75 3.0645 4.14113 3.6885 4.90837 4.125L0.375 4.125C0.168 4.125 0 4.29262 0 4.5L0 9C0 9.20738 0.168 9.375 0.375 9.375L1.875 9.375L1.875 17.625C1.875 17.8324 2.043 18 2.25 18L15.75 18C15.957 18 16.125 17.8324 16.125 17.625L16.125 9.375L17.625 9.375C17.832 9.375 18 9.20738 18 9L18 4.5C18 4.29262 17.832 4.125 17.625 4.125ZM12 0.75C12.9499 0.75 13.5 0.99525 13.5 2.25C13.5 3.699 11.3603 4.07775 9.40425 4.1205C9.61312 2.68388 10.908 0.75 12 0.75ZM4.5 2.25C4.5 0.99525 5.05013 0.75 6 0.75C7.092 0.75 8.38688 2.68388 8.59575 4.1205C6.63975 4.07775 4.5 3.699 4.5 2.25ZM7.125 17.25L2.625 17.25L2.625 9.375L7.125 9.375L7.125 17.25ZM7.125 8.625L2.25 8.625L0.75 8.625L0.75 4.875L7.125 4.875L7.125 8.625ZM10.125 17.25L7.875 17.25L7.875 9.375L10.125 9.375L10.125 17.25ZM10.125 8.625L7.875 8.625L7.875 4.875L9 4.875L9.0075 4.875L10.125 4.875L10.125 8.625ZM15.375 17.25L10.875 17.25L10.875 9.375L15.375 9.375L15.375 17.25ZM17.25 8.625L15.75 8.625L10.875 8.625L10.875 4.875L17.25 4.875L17.25 8.625Z" id="Shape" fill="#012169" stroke="none" />
  </g>
</svg>