<?xml version="1.0" encoding="utf-8"?>
<svg width="146px" height="172px" viewBox="0 0 146 172" version="1.1" xmlns:xlink="http://www.w3.org/1999/xlink" xmlns="http://www.w3.org/2000/svg">
  <defs>
    <path d="M0 0L145.889 0L145.889 144L0 144L0 0Z" id="path_1" />
    <clipPath id="mask_1">
      <use xlink:href="#path_1" />
    </clipPath>
  </defs>
  <g id="Group-35">
    <g id="Group-17">
      <g id="Group-3">
        <path d="M0 0L145.889 0L145.889 144L0 144L0 0Z" id="Clip-2" fill="none" fill-rule="evenodd" stroke="none" />
        <g clip-path="url(#mask_1)">
          <path d="M89.1443 17.0364L98.0877 32.3682L105.527 16.2592C108.422 9.99082 103.614 2.8974 96.6934 3.22598C89.7726 3.55456 85.664 11.0703 89.1443 17.0364M108.705 30.1691L108.535 47.8991L123.191 37.8288C128.893 33.9102 128.396 25.3671 122.276 22.1316C116.157 18.8955 108.771 23.2699 108.705 30.1691M123.259 48.4472L115.89 64.5878L133.386 61.2948C140.194 60.013 143.215 52.0018 138.937 46.5747C134.659 41.1476 126.127 42.1664 123.259 48.4472M131.752 69.3505L116.653 78.7483L133.063 85.6303C139.449 88.3082 146.412 83.2934 145.858 76.4162C145.305 69.539 137.627 65.6936 131.752 69.3505M127.892 92.277L110.252 94.6876L122.388 107.662C127.109 112.711 135.525 110.979 137.851 104.479C140.176 97.9806 134.757 91.3396 127.892 92.277M113.782 111.182L96.3399 107.616L103.455 123.87C106.223 130.195 114.739 131.347 119.101 125.987C123.464 120.627 120.57 112.57 113.782 111.182M93.7683 124.651L77.5891 117.247L80.8254 134.683C82.0848 141.467 90.1175 144.508 95.5848 140.27C101.053 136.033 100.064 127.532 93.7683 124.651M69.7221 128.051L56.6816 115.978L54.2772 133.547C53.3416 140.383 60.0155 145.774 66.54 143.452C73.0645 141.131 74.7965 132.749 69.7221 128.051M47.013 123.803L40.9693 107.124L30.755 121.647C26.7804 127.299 30.2358 135.134 37.1032 136.045C43.9712 136.955 49.3646 130.292 47.013 123.803M29.2742 107.749L29.3674 90.0181L14.7554 100.151C9.06996 104.094 9.60406 112.635 15.7376 115.844C21.8712 119.054 29.2377 114.648 29.2742 107.749M17.741 87.0135L24.7444 70.7117L7.32691 74.3955C0.549738 75.8294 -2.29034 83.9061 2.10882 89.2361C6.50798 94.5666 15.0157 93.3565 17.741 87.0135M16.8366 63.6939L29.2502 50.9825L11.6656 48.1946C4.82306 47.1094 -0.738934 53.6327 1.44552 60.1804L1.44552 60.1804C3.62997 66.7281 12.0061 68.6403 16.8366 63.6939M25.9394 43.5213L42.4246 36.8196L27.4308 27.2568C21.596 23.5353 13.8769 27.2965 13.2467 34.1671C12.617 41.0381 19.5249 46.1289 25.9394 43.5213M42.7747 27.2521L60.5284 25.899L49.195 12.2234C44.7858 6.90254 36.28 8.12886 33.5682 14.4776L33.5682 14.4776C30.8559 20.8263 35.866 27.7786 42.7747 27.2521M61.1855 2.69891L61.1855 2.69891C66.0847 -2.17958 74.4334 -0.151177 76.5261 6.42617L81.9027 23.3292L64.9281 17.9748C58.3229 15.8914 56.2863 7.57788 61.1855 2.69891" transform="translate(-2.276286E-05 0)" id="Fill-1" fill="#5CE0CF" fill-rule="evenodd" stroke="none" />
        </g>
      </g>
      <g id="30" fill="#FFFFFF" transform="translate(0.2068396 38.353653)">
        <path d="M56.3789 41.6606C50.1222 41.6606 47.0689 38.5073 45.9677 37.2059C45.6674 36.8555 45.7175 36.3049 46.0178 35.9545L48.5705 33.5019C49.021 33.1015 49.4715 33.1015 49.8719 33.5019C50.0221 33.7021 52.9752 36.2048 56.0285 36.2048C58.7314 36.2048 61.3342 34.2527 61.3342 31.4997C61.3342 28.897 58.9316 26.5444 54.4268 26.5444L51.6238 26.5444C51.0732 26.5444 50.6728 26.144 50.6728 25.5434L50.6728 22.39C50.6728 21.7393 51.0231 21.3889 51.6238 21.3889L54.4268 21.3889C58.5312 21.3889 60.6334 19.3367 60.6334 16.784C60.6334 14.031 58.331 12.179 55.7782 12.179C53.1755 12.179 51.5737 13.5805 50.7228 14.5816C50.3724 14.982 49.8219 15.0321 49.3714 14.6317L46.9187 12.3292C46.5183 11.9788 46.5684 11.3782 46.9187 11.0278C46.9187 11.0278 50.7228 6.62309 56.3288 6.62309C62.1351 6.62309 66.9903 10.1769 66.9903 15.7829C66.9903 19.637 64.0871 22.5401 61.8347 23.5913L61.8347 23.7414C64.1872 24.7425 67.8912 27.4454 67.8912 31.9002C67.8912 37.5562 63.2863 41.6606 56.3789 41.6606ZM98.5741 24.1419C98.5741 35.1036 93.9692 41.6606 85.9606 41.6606C77.952 41.6606 73.3471 35.1036 73.3471 24.1419C73.3471 13.1801 77.952 6.62309 85.9606 6.62309C93.9692 6.62309 98.5741 13.1801 98.5741 24.1419ZM79.9041 24.1419C79.9041 31.5998 82.1065 35.7543 85.9606 35.7543C89.8147 35.7543 92.0171 31.5998 92.0171 24.1419C92.0171 16.7339 89.8147 12.5294 85.9606 12.5294C82.1065 12.5294 79.9041 16.7339 79.9041 24.1419Z" />
      </g>
      <g id="DAY" fill="#FFFFFF" transform="translate(0.2068396 88.90937)">
        <path d="M52.3237 0.686112L57.606 0.686112Q59.4997 0.686112 60.9532 1.4087Q62.4066 2.13128 63.2123 3.44357Q64.0179 4.75585 64.0179 6.50002Q64.0179 8.24419 63.2123 9.55647Q62.4066 10.8688 60.9532 11.5913Q59.4997 12.3139 57.606 12.3139L52.3237 12.3139L52.3237 0.686112ZM75.7786 9.82225L70.38 9.82225L69.3501 12.3139L66.5927 12.3139L71.7753 0.686112L74.4331 0.686112L79.6324 12.3139L76.8085 12.3139L75.7786 9.82225ZM88.5028 12.3139L88.5028 8.19436L93.021 0.686112L90.3798 0.686112L87.2735 5.85218L84.1673 0.686112L81.3101 0.686112L85.8118 8.16114L85.8118 12.3139L88.5028 12.3139ZM57.4731 10.1046Q59.2173 10.1046 60.2555 9.13289Q61.2937 8.16114 61.2937 6.50002Q61.2937 4.8389 60.2555 3.86715Q59.2173 2.8954 57.4731 2.8954L55.0147 2.8954L55.0147 10.1046L57.4731 10.1046ZM74.9314 7.77908L73.0876 3.32729L71.2438 7.77908L74.9314 7.77908Z" />
      </g>
    </g>
    <g id="RISK-FREE-TRIAL-" fill="#FFFFFF" transform="translate(18.94429 156)">
      <path d="M16.26 11.1724Q15.43 11.1724 14.655 10.9474Q13.88 10.7224 13.41 10.3624L13.96 9.14245Q14.41 9.47245 15.03 9.67245Q15.65 9.87245 16.27 9.87245Q16.96 9.87245 17.29 9.66745Q17.62 9.46245 17.62 9.12245Q17.62 8.87245 17.425 8.70745Q17.23 8.54245 16.925 8.44245Q16.62 8.34245 16.1 8.22245Q15.3 8.03245 14.79 7.84245Q14.28 7.65245 13.915 7.23245Q13.55 6.81245 13.55 6.11245Q13.55 5.50245 13.88 5.00745Q14.21 4.51245 14.875 4.22245Q15.54 3.93245 16.5 3.93245Q17.17 3.93245 17.81 4.09245Q18.45 4.25245 18.93 4.55245L18.43 5.78245Q17.46 5.23245 16.49 5.23245Q15.81 5.23245 15.485 5.45245Q15.16 5.67245 15.16 6.03245Q15.16 6.39245 15.535 6.56745Q15.91 6.74245 16.68 6.91245Q17.48 7.10245 17.99 7.29245Q18.5 7.48245 18.865 7.89245Q19.23 8.30245 19.23 9.00245Q19.23 9.60245 18.895 10.0974Q18.56 10.5924 17.89 10.8824Q17.22 11.1724 16.26 11.1724ZM3.94 9.10245L5.29 11.0524L7.03 11.0524L5.46 8.80245Q6.15 8.50245 6.525 7.93745Q6.9 7.37245 6.9 6.59245Q6.9 5.81245 6.53 5.24245Q6.16 4.67245 5.475 4.36245Q4.79 4.05245 3.86 4.05245L0.83 4.05245L0.83 11.0524L2.45 11.0524L2.45 9.10245L3.94 9.10245ZM11.05 4.05245L9.43 4.05245L9.43 11.0524L11.05 11.0524L11.05 4.05245ZM23.2 9.28245L24.14 8.30245L26.38 11.0524L28.27 11.0524L25.2 7.17245L28.1 4.05245L26.3 4.05245L23.2 7.32245L23.2 4.05245L21.59 4.05245L21.59 11.0524L23.2 11.0524L23.2 9.28245ZM36.97 7.20245L36.97 5.35245L40.64 5.35245L40.64 4.05245L35.35 4.05245L35.35 11.0524L36.97 11.0524L36.97 8.50245L40.21 8.50245L40.21 7.20245L36.97 7.20245ZM47.45 11.0524L46.1 9.10245L44.61 9.10245L44.61 11.0524L42.99 11.0524L42.99 4.05245L46.02 4.05245Q46.95 4.05245 47.635 4.36245Q48.32 4.67245 48.69 5.24245Q49.06 5.81245 49.06 6.59245Q49.06 7.37245 48.685 7.93745Q48.31 8.50245 47.62 8.80245L49.19 11.0524L47.45 11.0524ZM57.01 11.0524L57.01 9.75245L53.2 9.75245L53.2 8.13245L56.45 8.13245L56.45 6.87245L53.2 6.87245L53.2 5.35245L56.88 5.35245L56.88 4.05245L51.59 4.05245L51.59 11.0524L57.01 11.0524ZM64.97 9.75245L64.97 11.0524L59.55 11.0524L59.55 4.05245L64.84 4.05245L64.84 5.35245L61.16 5.35245L61.16 6.87245L64.41 6.87245L64.41 8.13245L61.16 8.13245L61.16 9.75245L64.97 9.75245ZM69.55 5.37245L71.79 5.37245L71.79 11.0524L73.41 11.0524L73.41 5.37245L75.65 5.37245L75.65 4.05245L69.55 4.05245L69.55 5.37245ZM82.23 11.0524L80.88 9.10245L79.39 9.10245L79.39 11.0524L77.77 11.0524L77.77 4.05245L80.8 4.05245Q81.73 4.05245 82.415 4.36245Q83.1 4.67245 83.47 5.24245Q83.84 5.81245 83.84 6.59245Q83.84 7.37245 83.465 7.93745Q83.09 8.50245 82.4 8.80245L83.97 11.0524L82.23 11.0524ZM87.99 4.05245L86.37 4.05245L86.37 11.0524L87.99 11.0524L87.99 4.05245ZM95.51 9.55245L92.26 9.55245L91.64 11.0524L89.98 11.0524L93.1 4.05245L94.7 4.05245L97.83 11.0524L96.13 11.0524L95.51 9.55245ZM101.43 4.05245L99.81 4.05245L99.81 11.0524L104.94 11.0524L104.94 9.73245L101.43 9.73245L101.43 4.05245ZM4.88 5.68745Q5.26 6.00245 5.26 6.59245Q5.26 7.17245 4.88 7.49245Q4.5 7.81245 3.77 7.81245L2.45 7.81245L2.45 5.37245L3.77 5.37245Q4.5 5.37245 4.88 5.68745ZM47.42 6.59245Q47.42 6.00245 47.04 5.68745Q46.66 5.37245 45.93 5.37245L44.61 5.37245L44.61 7.81245L45.93 7.81245Q46.66 7.81245 47.04 7.49245Q47.42 7.17245 47.42 6.59245ZM82.2 6.59245Q82.2 6.00245 81.82 5.68745Q81.44 5.37245 80.71 5.37245L79.39 5.37245L79.39 7.81245L80.71 7.81245Q81.44 7.81245 81.82 7.49245Q82.2 7.17245 82.2 6.59245ZM95 8.32245L93.89 5.64245L92.78 8.32245L95 8.32245ZM29.93 7.61245L32.76 7.61245L32.76 8.86245L29.93 8.86245L29.93 7.61245Z" />
    </g>
  </g>
</svg>