<?xml version="1.0" encoding="utf-8"?>
<svg width="17px" height="24px" viewBox="0 0 17 24" version="1.1" xmlns:xlink="http://www.w3.org/1999/xlink" xmlns="http://www.w3.org/2000/svg">
  <defs>
    <path d="M0 0L17 0L17 24L0 24L0 0Z" id="path_1" />
    <clipPath id="mask_1">
      <use xlink:href="#path_1" />
    </clipPath>
  </defs>
  <g id="Group-8">
    <path d="M1.00005 2C1.5523 2 2 1.5523 2 0.999949C2 0.447699 1.5523 0 1.00005 0C0.447699 0 0 0.447699 0 0.999949C0 1.5523 0.447699 2 1.00005 2" transform="translate(7 14)" id="Fill-1" fill="#012169" fill-rule="evenodd" stroke="none" />
    <path d="M1.00005 2C1.5523 2 2 1.5523 2 0.999949C2 0.447699 1.5523 0 1.00005 0C0.447699 0 0 0.447699 0 0.999949C0 1.5523 0.447699 2 1.00005 2" transform="translate(7 16)" id="Fill-3" fill="#012169" fill-rule="evenodd" stroke="none" />
    <g id="Group-7">
      <path d="M0 0L17 0L17 24L0 24L0 0Z" id="Clip-6" fill="none" fill-rule="evenodd" stroke="none" />
      <g clip-path="url(#mask_1)">
        <path d="M15.4025 23.1314L1.59769 23.1314C1.20948 23.1314 0.893653 22.8244 0.893653 22.447C0.893653 22.1007 1.15989 21.8143 1.50369 21.7694C1.50928 21.7696 1.51445 21.771 1.52013 21.771L15.4801 21.771C15.4857 21.771 15.4909 21.7696 15.4964 21.7694C15.8403 21.8143 16.1065 22.1007 16.1065 22.447C16.1065 22.8244 15.7907 23.1314 15.4025 23.1314M6.91011 12.4412C7.10896 12.3928 7.24856 12.2191 7.24856 12.0198C7.24856 11.8205 7.10896 11.6468 6.91011 11.5984C3.99961 10.8913 1.96683 8.35778 1.96683 5.43719L1.96683 3.1368L15.0333 3.1368L15.0333 5.43719C15.0333 8.35778 13.0006 10.8913 10.0901 11.5984C9.89112 11.6468 9.75161 11.8205 9.75161 12.0198C9.75161 12.2191 9.89112 12.3928 10.0901 12.4412C13.0006 13.1483 15.0333 15.6819 15.0333 18.6024L15.0333 20.8939L1.96683 20.8939L1.96683 18.6024C1.96683 15.6819 3.99961 13.1483 6.91011 12.4412M1.59769 0.868638L15.4025 0.868638C15.7907 0.868638 16.1065 1.17573 16.1065 1.55312C16.1065 1.93042 15.7907 2.23751 15.4025 2.23751L1.59769 2.23751C1.20948 2.23751 0.893653 1.93042 0.893653 1.55312C0.893653 1.17573 1.20948 0.868638 1.59769 0.868638M15.9269 20.9817L15.9269 18.6024C15.9269 15.7192 14.184 13.1678 11.5579 12.0198C14.184 10.8718 15.9269 8.32037 15.9269 5.43719L15.9269 3.0184C16.5506 2.80672 17.0001 2.23067 17.0001 1.55312C17.0001 0.696756 16.2834 0 15.4025 0L1.59769 0C0.716753 0 0 0.696756 0 1.55312C0 2.23067 0.449581 2.8068 1.07326 3.0184L1.07326 5.43719C1.07326 8.32037 2.81615 10.8718 5.44219 12.0198C2.81624 13.1678 1.07326 15.7192 1.07326 18.6024L1.07326 20.9816C0.449581 21.1933 0 21.7694 0 22.447C0 23.3033 0.716753 24 1.59769 24L15.4025 24C16.2834 24 17.0001 23.3033 17.0001 22.447C17.0001 21.7694 16.5506 21.1933 15.9269 20.9817" transform="translate(-5.0857598E-05 -1.6479566E-05)" id="Fill-5" fill="#012169" fill-rule="evenodd" stroke="none" />
      </g>
    </g>
  </g>
</svg>