<?xml version="1.0" encoding="utf-8"?>
<svg width="39px" height="22px" viewBox="0 0 39 22" version="1.1" xmlns:xlink="http://www.w3.org/1999/xlink" xmlns="http://www.w3.org/2000/svg">
  <defs>
    <path d="M0 0L39 0L39 22L0 22L0 0Z" id="path_1" />
    <clipPath id="mask_1">
      <use xlink:href="#path_1" />
    </clipPath>
  </defs>
  <g id="Group-8">
    <g id="Group-3">
      <path d="M0 0L39 0L39 22L0 22L0 0Z" id="Clip-2" fill="none" fill-rule="evenodd" stroke="none" />
      <g clip-path="url(#mask_1)">
        <path d="M37.9751 12.6639L37.0526 17.6742C36.9148 18.4231 36.1998 19.0557 35.4914 19.0557L32.4466 19.0557C32.4504 19.0342 32.4529 19.0127 32.4562 18.9912C32.4601 18.9658 32.4643 18.9404 32.4675 18.915C32.4709 18.8885 32.4734 18.8622 32.4761 18.8358C32.4786 18.8107 32.4816 18.7858 32.4835 18.7609C32.4855 18.7341 32.4865 18.7076 32.4879 18.6809C32.4892 18.6565 32.4908 18.632 32.4914 18.6078C32.4922 18.5808 32.4918 18.5541 32.4918 18.5273C32.4918 18.5036 32.4922 18.4797 32.4916 18.4561C32.491 18.429 32.4893 18.4023 32.4878 18.3754C32.4865 18.3523 32.4858 18.3291 32.484 18.306C32.4819 18.2788 32.4787 18.252 32.4759 18.2249C32.4736 18.2026 32.4717 18.1802 32.4687 18.158C32.4652 18.1307 32.4606 18.1038 32.4562 18.0767C32.4528 18.0552 32.4498 18.0335 32.446 18.0121C32.4409 17.985 32.4348 17.9583 32.429 17.9314C32.4244 17.9106 32.4204 17.8896 32.4154 17.8688C32.4089 17.8416 32.4012 17.8149 32.3938 17.7879C32.3883 17.7682 32.3835 17.7482 32.3776 17.7285C32.3695 17.7016 32.3603 17.6755 32.3515 17.649C32.345 17.6297 32.3392 17.6102 32.3322 17.5911C32.3226 17.5646 32.3119 17.5388 32.3015 17.5128C32.2942 17.4943 32.2874 17.4756 32.2796 17.4574C32.2682 17.4308 32.2557 17.4049 32.2435 17.3789C32.2355 17.3618 32.2281 17.3444 32.2196 17.3274C32.2066 17.3012 32.1924 17.2757 32.1784 17.25C32.1698 17.2339 32.1616 17.2173 32.1525 17.2014C32.1375 17.1752 32.1213 17.1497 32.1053 17.1242C32.0962 17.1094 32.0877 17.0944 32.0783 17.0798C32.06 17.0521 32.0407 17.0252 32.0214 16.9982C32.013 16.9866 32.0054 16.9745 31.9969 16.963C31.9686 16.9249 31.9392 16.8877 31.9086 16.8512C31.4427 16.2968 30.7623 15.9916 29.993 15.9916C29.9446 15.9916 29.8965 15.9928 29.8485 15.9952C29.8322 15.996 29.8162 15.9975 29.7999 15.9985C29.7681 16.0006 29.7364 16.0026 29.7048 16.0057C29.6857 16.0075 29.6667 16.0101 29.6477 16.0123C29.6191 16.0157 29.5905 16.0189 29.562 16.0229C29.5419 16.0259 29.5219 16.0295 29.5018 16.0328C29.4746 16.0373 29.4474 16.0417 29.4204 16.0469C29.3997 16.0508 29.3792 16.0554 29.3586 16.0598C29.3324 16.0653 29.3062 16.071 29.2802 16.0772C29.2592 16.0823 29.2385 16.0877 29.2177 16.0931C29.1922 16.0998 29.1667 16.1066 29.1413 16.1139C29.1204 16.1199 29.0997 16.1263 29.0789 16.1327C29.0538 16.1404 29.029 16.1484 29.0041 16.1567C28.9833 16.1637 28.9627 16.1709 28.9422 16.1783C28.9176 16.1871 28.8931 16.1962 28.8687 16.2056C28.8481 16.2135 28.8277 16.2216 28.8074 16.2298C28.7833 16.2397 28.7592 16.2499 28.7354 16.2602C28.7152 16.269 28.695 16.2779 28.6749 16.2871C28.6511 16.298 28.6275 16.3093 28.6039 16.3208C28.5842 16.3303 28.5644 16.3399 28.5449 16.3499C28.5214 16.3619 28.4983 16.3743 28.475 16.3868C28.4556 16.3972 28.4364 16.4076 28.4173 16.4182C28.394 16.4314 28.371 16.4449 28.3481 16.4586C28.3295 16.4695 28.3109 16.4805 28.2926 16.4918C28.2693 16.5062 28.2463 16.5212 28.2232 16.5361C28.2057 16.5475 28.188 16.5587 28.1706 16.5704C28.1471 16.5863 28.1239 16.6028 28.1007 16.6193C28.0843 16.631 28.0678 16.6423 28.0516 16.6542C28.0264 16.6727 28.0017 16.6919 27.9769 16.7111C27.9634 16.7217 27.9494 16.7319 27.9359 16.7426C27.9352 16.7433 27.9343 16.7438 27.9336 16.7444L29.9253 5.92714L32.7312 5.92714C33.7128 5.92714 34.4529 6.5433 34.6172 7.49677L35.1466 10.5726C35.1789 10.7603 35.3165 10.9131 35.5009 10.966L37.3614 11.5003C37.8318 11.6353 38.0785 12.1029 37.9751 12.6639M29.0694 21.007C28.2163 21.007 27.5999 20.4019 27.5706 19.5345C27.5654 19.3892 27.5771 19.2379 27.6052 19.0848C27.8185 17.9267 28.8896 16.9846 29.993 16.9846C30.4602 16.9846 30.8676 17.1631 31.14 17.4873C31.4458 17.8511 31.5583 18.3551 31.4568 18.9063C31.4282 19.0618 31.3828 19.2169 31.3217 19.3683C30.9399 20.3178 29.9928 21.007 29.0694 21.007M15.3524 18.9912C15.3563 18.9658 15.3605 18.9404 15.3638 18.915C15.3671 18.8885 15.3696 18.8622 15.3722 18.8358C15.3748 18.8107 15.3777 18.7858 15.3796 18.7609C15.3817 18.7341 15.3828 18.7076 15.3841 18.6809C15.3854 18.6565 15.387 18.632 15.3876 18.6078C15.3884 18.5808 15.388 18.5541 15.388 18.5273C15.388 18.5036 15.3884 18.4797 15.3878 18.4561C15.3871 18.429 15.3854 18.4023 15.384 18.3754C15.3828 18.3523 15.3819 18.3291 15.3802 18.306C15.3781 18.279 15.375 18.2522 15.3721 18.2254C15.3698 18.2029 15.3679 18.1803 15.3649 18.1578C15.3614 18.1308 15.3569 18.1041 15.3525 18.0772C15.3491 18.0555 15.3461 18.0337 15.3421 18.0121C15.3371 17.985 15.3309 17.9583 15.3252 17.9314C15.3206 17.9106 15.3166 17.8896 15.3117 17.8688C15.3051 17.8418 15.2975 17.8152 15.2902 17.7886C15.2846 17.7685 15.2797 17.7483 15.2738 17.7284C15.2658 17.7018 15.2566 17.6757 15.2478 17.6496C15.2413 17.6301 15.2354 17.6104 15.2284 17.5911C15.2188 17.5646 15.2081 17.5388 15.1976 17.5128C15.1903 17.4943 15.1836 17.4756 15.1758 17.4574C15.1645 17.4311 15.1522 17.4056 15.1401 17.3798C15.132 17.3623 15.1244 17.3445 15.1158 17.3273C15.1029 17.3014 15.0889 17.2762 15.0751 17.2507C15.0662 17.2343 15.0578 17.2176 15.0487 17.2014C15.0337 17.1752 15.0175 17.1497 15.0015 17.1242C14.9924 17.1094 14.9839 17.0944 14.9745 17.0798C14.9562 17.0521 14.9369 17.0252 14.9176 16.9982C14.9093 16.9866 14.9016 16.9745 14.8931 16.963C14.8648 16.9249 14.8354 16.8877 14.8047 16.8512C14.3388 16.2968 13.6585 15.9916 12.8891 15.9916C12.1218 15.9916 11.3492 16.2962 10.7139 16.8492C10.0854 17.3963 9.66031 18.127 9.51685 18.9062C9.50764 18.9561 9.49967 19.0059 9.49293 19.0557L6.33739 19.0557L7.39129 13.332L11.1724 13.332C11.5631 13.332 11.9535 13.1795 12.2717 12.9024C12.5828 12.6315 12.7935 12.2682 12.8652 11.8793C12.9449 11.4469 12.8409 11.0209 12.5802 10.7106C12.3295 10.4124 11.9663 10.2481 11.5574 10.2481L7.95911 10.2481L8.66574 6.41029L14.6019 6.41029C14.9928 6.41029 15.3832 6.25769 15.7013 5.98065C16.0124 5.70955 16.2233 5.34622 16.2948 4.95756C16.3744 4.525 16.2705 4.09894 16.0098 3.78875C15.7592 3.49061 15.3959 3.32642 14.9868 3.32642L9.23356 3.32642L9.66315 0.993038L29.7966 0.993038L26.4709 19.0557L15.3427 19.0557C15.3465 19.0342 15.3491 19.0127 15.3524 18.9912M11.9657 21.007C11.1129 21.007 10.4965 20.4018 10.4669 19.5345C10.4616 19.389 10.4732 19.2377 10.5014 19.0848C10.711 17.9464 11.8045 16.9846 12.8891 16.9846C13.3564 16.9846 13.7638 17.1631 14.0362 17.4873C14.3419 17.8511 14.4545 18.3551 14.353 18.9063C14.3244 19.0618 14.2789 19.2169 14.2178 19.3683C13.8361 20.3178 12.889 21.007 11.9657 21.007M37.6395 10.5463L36.0804 10.0987L35.6037 7.32947C35.357 5.89681 34.2027 4.93411 32.7312 4.93411L30.0885 4.93411L30.8891 0.585631C30.9157 0.440754 30.8762 0.291638 30.7811 0.178506C30.686 0.0653736 30.5452 0 30.3968 0L9.2459 0C9.00428 0 8.79704 0.171347 8.75365 0.407219L8.21611 3.32642L5.84447 3.32642C5.56801 3.32642 5.34405 3.54873 5.34405 3.82294C5.34405 4.09715 5.56801 4.31946 5.84447 4.31946L8.63346 4.31946L14.9868 4.31946C15.0953 4.31946 15.1832 4.35582 15.2411 4.42478C15.3121 4.50937 15.3366 4.63512 15.3102 4.77915C15.2794 4.94616 15.1813 5.11214 15.041 5.23432C14.9075 5.35056 14.7476 5.41715 14.6019 5.41715L8.24848 5.41715L3.92995 5.41715C3.65349 5.41715 3.42953 5.63956 3.42953 5.91377C3.42953 6.18789 3.65349 6.41029 3.92995 6.41029L7.64838 6.41029L6.94166 10.2481L2.41493 10.2481C2.13847 10.2481 1.91452 10.4704 1.91452 10.7446C1.91452 11.0188 2.13847 11.2412 2.41493 11.2412L7.35901 11.2412L11.5574 11.2412C11.6656 11.2412 11.7535 11.2777 11.8115 11.3467C11.8826 11.4312 11.9071 11.557 11.8806 11.7007C11.8498 11.8679 11.7517 12.0339 11.6115 12.1561C11.478 12.2722 11.318 12.3389 11.1724 12.3389L6.97404 12.3389L0.500417 12.3389C0.223958 12.3389 0 12.5612 0 12.8355C0 13.1097 0.223958 13.332 0.500417 13.332L6.37384 13.332L5.24503 19.4631C5.21835 19.6079 5.25794 19.7571 5.35298 19.8702C5.4481 19.9834 5.5889 20.0487 5.73738 20.0487L9.52464 20.0487C9.7673 21.2038 10.7304 22 11.9657 22C13.1962 22 14.4013 21.2119 15.0034 20.0487L26.6283 20.0487C26.8706 21.2038 27.8338 22 29.0694 22C30.2998 22 31.5052 21.2119 32.1072 20.0487L35.4914 20.0487C36.6921 20.0487 37.8105 19.0841 38.0372 17.8526L38.9597 12.8424C39.1572 11.7702 38.6143 10.826 37.6395 10.5463" id="Fill-1" fill="#012169" fill-rule="evenodd" stroke="none" />
      </g>
    </g>
    <path d="M3.08996 3.05493C3.04467 3.10297 2.98695 3.13396 2.94271 3.13396L1.00075 3.13396C1.00038 3.12596 1.00075 3.11493 1.00341 3.10071L1.31775 1.39355C1.35592 1.18622 1.56639 0.993023 1.75276 0.993023C1.75428 0.993023 1.7557 0.993023 1.75722 0.993118L2.70774 1.00885C2.91271 1.01224 3.04372 1.14026 3.05815 1.35126L3.16363 2.88839C3.16705 2.93841 3.13819 3.00378 3.08996 3.05493L3.08996 3.05493ZM4.05671 1.28363C4.00706 0.561124 3.44673 0.0279619 2.72445 0.0159045L1.77402 0.000173422C1.09227 -0.0110362 0.460748 0.522503 0.333152 1.21514L0.0188127 2.9223C-0.0391944 3.23758 0.0383699 3.55041 0.231758 3.78035C0.416887 4.00068 0.69477 4.127 0.994014 4.127L2.94271 4.127C3.26531 4.127 3.58553 3.98335 3.82136 3.73287C4.06032 3.47901 4.18449 3.14658 4.16218 2.82085L4.05671 1.28363Z" transform="translate(29.840305 6.911833)" id="Fill-4" fill="#012169" fill-rule="evenodd" stroke="none" />
    <path d="M7.13401 0L0.500417 0C0.224148 0 0 0.222308 0 0.496519C0 0.77073 0.224148 0.993038 0.500417 0.993038L7.13401 0.993038C7.41037 0.993038 7.63443 0.77073 7.63443 0.496519C7.63443 0.222308 7.41037 0 7.13401 0" transform="translate(16.14755 10.392265)" id="Fill-6" fill="#012169" fill-rule="evenodd" stroke="none" />
  </g>
</svg>