<?xml version="1.0" encoding="utf-8"?>
<svg width="26px" height="21px" viewBox="0 0 26 21" version="1.1" xmlns:xlink="http://www.w3.org/1999/xlink" xmlns="http://www.w3.org/2000/svg">
  <defs>
    <path d="M0 0L6.70968 0L6.70968 6.72L0 6.72L0 0Z" id="path_1" />
    <clipPath id="mask_1">
      <use xlink:href="#path_1" />
    </clipPath>
  </defs>
  <g id="Group-10">
    <path d="M1.67738 1.16104C1.26382 1.16104 0.927408 1.5822 0.927408 2.09994C0.927408 2.6178 1.26382 3.03896 1.67738 3.03896C2.09093 3.03896 2.42743 2.6178 2.42743 2.09994C2.42743 1.5822 2.09093 1.16104 1.67738 1.16104M1.67738 4.2C0.75243 4.2 0 3.2579 0 2.09994C0 0.942095 0.75243 0 1.67738 0C2.60232 0 3.35484 0.942095 3.35484 2.09994C3.35484 3.2579 2.60232 4.2 1.67738 4.2" transform="translate(6.709677 16.8)" id="Fill-1" fill="#012169" fill-rule="evenodd" stroke="none" />
    <path d="M1.67746 1.16104C1.2639 1.16104 0.927496 1.5822 0.927496 2.09994C0.927496 2.6178 1.2639 3.03896 1.67746 3.03896C2.09102 3.03896 2.42743 2.6178 2.42743 2.09994C2.42743 1.5822 2.09102 1.16104 1.67746 1.16104M1.67746 4.2C0.752518 4.2 0 3.2579 0 2.09994C0 0.942095 0.752518 0 1.67746 0C2.60241 0 3.35484 0.942095 3.35484 2.09994C3.35484 3.2579 2.60241 4.2 1.67746 4.2" transform="translate(12.580646 16.8)" id="Fill-3" fill="#012169" fill-rule="evenodd" stroke="none" />
    <path d="M19.8689 5.2957L17.0124 11.4692C16.6714 12.206 15.9476 12.6821 15.1684 12.6821L5.3523 12.6821L3.20468 4.18146L19.206 4.18146C19.4655 4.18146 19.6933 4.31411 19.831 4.54553C19.9686 4.77695 19.9825 5.05031 19.8689 5.2957M20.6984 3.97504C20.3746 3.43068 19.8166 3.10579 19.206 3.10579L2.93295 3.10579L2.56843 1.6631C2.32105 0.68385 1.47526 0 0.51155 0C0.229038 0 0 0.240705 0 0.537835C0 0.834762 0.229038 1.07567 0.51155 1.07567C1.01194 1.07567 1.45119 1.43076 1.57958 1.93921L4.72662 14.3955C4.79611 14.6706 4.89995 14.9477 5.03534 15.2191C5.76176 16.6747 7.20693 17.585 8.80709 17.5946L16.3878 17.64L16.3908 17.64C16.6719 17.64 16.9007 17.4012 16.9023 17.1053C16.9039 16.8083 16.6762 16.5661 16.3937 16.5644L8.81291 16.5189C7.59192 16.5116 6.49157 15.822 5.9414 14.7193C5.84143 14.519 5.76544 14.3171 5.71537 14.1193L5.62404 13.7578L15.1684 13.7578C16.3364 13.7578 17.4213 13.0442 17.9323 11.9399L20.789 5.7663C21.056 5.18897 21.0223 4.51931 20.6984 3.97504" id="Fill-5" fill="#012169" fill-rule="evenodd" stroke="none" />
    <g id="Group-9" transform="translate(19.290323 9.24)">
      <path d="M0 0L6.70968 0L6.70968 6.72L0 6.72L0 0Z" id="Clip-8" fill="none" fill-rule="evenodd" stroke="none" />
      <g clip-path="url(#mask_1)">
        <path d="M6.17814 2.82762L3.88641 2.82762L3.88641 0.532376C3.88641 0.238362 3.64841 0 3.35485 0C3.06129 0 2.82329 0.238362 2.82329 0.532376L2.82329 2.82762L0.53156 2.82762C0.237997 2.82762 0 3.06599 0 3.36C0 3.65401 0.237997 3.89238 0.53156 3.89238L2.82329 3.89238L2.82329 6.18762C2.82329 6.48164 3.06129 6.72 3.35485 6.72C3.64841 6.72 3.88641 6.48164 3.88641 6.18762L3.88641 3.89238L6.17814 3.89238C6.4717 3.89238 6.7097 3.65401 6.7097 3.36C6.7097 3.06599 6.4717 2.82762 6.17814 2.82762" id="Fill-7" fill="#012169" fill-rule="evenodd" stroke="none" />
      </g>
    </g>
  </g>
</svg>