<?xml version="1.0" encoding="utf-8"?>
<svg width="32px" height="32px" viewBox="0 0 32 32" version="1.1" xmlns:xlink="http://www.w3.org/1999/xlink" xmlns="http://www.w3.org/2000/svg">
  <g id="Group-12-Copy-6" transform="translate(0.75 0.75)">
    <path d="M15 30C23.2843 30 30 23.2843 30 15C30 6.71573 23.2843 0 15 0C6.71573 0 0 6.71573 0 15C0 23.2843 6.71573 30 15 30Z" id="Oval" fill="#FFFFFF" fill-rule="evenodd" stroke="none" />
    <g id="010-secure" transform="translate(8.076923 10.384615)">
      <path d="M13.5858 2.37061L6.12836 9.6364C5.95484 9.80546 5.72726 9.89011 5.49981 9.89011C5.27236 9.89011 5.04478 9.80558 4.87126 9.6364L0.260406 5.14403C0.093637 4.98166 0 4.76132 0 4.53163C0 4.30194 0.0937555 4.0816 0.260406 3.91923L1.17591 3.02725C1.52308 2.68911 2.08597 2.689 2.43302 3.02725L5.49981 6.01523L11.4132 0.253714C11.5798 0.0912308 11.806 0 12.0417 0C12.2775 0 12.5036 0.0912308 12.6703 0.253714L13.5858 1.1457C13.9329 1.48394 13.9329 2.03237 13.5858 2.37061Z" id="Path" fill="#000000" stroke="none" />
    </g>
  </g>
</svg>