<?xml version="1.0" encoding="utf-8"?>
<svg width="123px" height="26px" viewBox="0 0 123 26" version="1.1" xmlns:xlink="http://www.w3.org/1999/xlink" xmlns="http://www.w3.org/2000/svg">
  <g id="footer_logo">
    <g id="Group_4">
      <g id="Group_15" transform="translate(13.0950365 0)">
        <path d="M2.48593 0.313862C2.50689 0.12467 2.6725 -0.0136504 2.86029 0.00118333L3.192 0.00118333C3.33938 -0.00541449 3.47728 0.0745368 3.54605 0.206443L8.11961 10.0356L8.18189 10.0356L12.7554 0.206443C12.8202 0.0706503 12.9609 -0.0109176 13.1095 0.00118333L13.4412 0.00118333C13.6289 -0.0132848 13.7943 0.124853 13.8156 0.313862L16.2696 14.3078C16.309 14.4245 16.2871 14.5535 16.2114 14.6502C16.1358 14.747 16.0167 14.7984 15.8952 14.7867L14.0038 14.7867C13.8215 14.7727 13.6657 14.649 13.6091 14.4733L12.3818 6.58248L12.3195 6.58248L8.68081 14.7662C8.62562 14.9128 8.48236 15.006 8.32744 14.9961L7.95308 14.9961C7.79998 14.9992 7.66026 14.9083 7.5997 14.7662L3.92041 6.58248L3.85813 6.58248L2.65111 14.474C2.61074 14.6514 2.45805 14.7797 2.2781 14.7874L0.406978 14.7874C0.284961 14.7965 0.166103 14.7455 0.0878034 14.6505C0.00950423 14.5554 -0.0186093 14.4281 0.012309 14.3084L2.48593 0.313862Z" transform="translate(0 0.0013786514)" id="Fill_1" fill="#00207D" stroke="none" />
        <path d="M9.01895e-17 0.395466C0.00777357 0.179074 0.180507 0.00599255 0.394669 0L2.32807 0C2.54276 0.00528262 2.71629 0.178561 2.7241 0.395466L2.7241 14.1814C2.71699 14.3988 2.54327 14.5729 2.32807 14.5782L0.394669 14.5782C0.180003 14.5722 0.00707537 14.3983 0 14.1814L9.01895e-17 0.395466Z" transform="translate(20.986633 0.2112422)" id="Fill_3" fill="#00207D" stroke="none" />
        <path d="M10.2898 14.5785L8.10865 14.5785C7.97137 14.5859 7.84207 14.513 7.77627 14.391L5.00952 8.87158L2.70243 8.87158L2.70243 14.181C2.6937 14.3974 2.52131 14.5704 2.30709 14.5778L0.394669 14.5778C0.17749 14.5778 0.00111756 14.4005 0 14.181L0 0.396428C0.00111859 0.177041 0.1776 -0.000102662 0.394669 0.000277208L6.34111 0.000277208C8.81608 -0.0270964 10.8455 1.97629 10.8768 4.47766C10.8181 6.39047 9.59223 8.06611 7.79996 8.68343L10.6479 13.973C10.7204 14.1029 10.7204 14.2617 10.6479 14.3917C10.5708 14.5148 10.4338 14.5862 10.2898 14.5785ZM2.7241 2.49897L2.7241 6.64247L6.11297 6.64247C7.25394 6.61507 8.16613 5.67493 8.17094 4.52145C8.14119 3.39476 7.22815 2.49745 6.11297 2.49897L2.7241 2.49897Z" transform="translate(29.219173 0.210965)" id="Fill_5" fill="#00207D" stroke="none" />
        <path d="M13.4694 14.787L11.6626 14.787C11.3905 14.804 11.1418 14.6316 11.0594 14.369L10.044 12.12L3.82407 12.12L2.80389 14.369C2.71156 14.6231 2.46991 14.7902 2.20207 14.785L0.392548 14.785C0.258129 14.7905 0.130297 14.7259 0.0540669 14.6139C-0.0134083 14.5008 -0.0180208 14.3604 0.0418816 14.2431L6.50552 0.230024C6.56523 0.0872487 6.70559 -0.00379056 6.85889 0.000818282L7.06672 0.000818282C7.22176 -0.00976985 7.36546 0.0832538 7.42077 0.230024L13.8242 14.2451C13.8837 14.3629 13.8788 14.5034 13.8113 14.6166C13.7344 14.7296 13.6049 14.7941 13.4694 14.787L13.4694 14.787ZM6.87988 5.22809L4.8429 9.81221L9.02111 9.81221L6.94284 5.22809L6.8792 5.22809L6.87988 5.22809Z" transform="translate(43.149117 0.0017436963)" id="Fill_7" fill="#00207D" stroke="none" />
        <path d="M7.42052 0.00256198C9.28481 -0.0478732 11.0933 0.648055 12.4524 1.93884C12.5387 2.00901 12.5906 2.1136 12.5946 2.22547C12.5986 2.33733 12.5544 2.44545 12.4734 2.52178L11.2041 3.83407C11.1398 3.91152 11.0448 3.95625 10.9448 3.95625C10.8447 3.95625 10.7498 3.91152 10.6855 3.83407C9.79762 3.05078 8.66198 2.614 7.48348 2.60251C6.22854 2.61677 5.03158 3.1387 4.16026 4.05162C3.28893 4.96453 2.81591 6.19227 2.84697 7.46031C2.82688 8.72434 3.30772 9.94401 4.18241 10.8477C5.05709 11.7514 6.25299 12.2641 7.50379 12.2716C8.66862 12.2609 9.79348 11.841 10.6855 11.0838C10.8325 10.9486 11.0571 10.9486 11.2041 11.0838L12.4903 12.4173C12.5626 12.494 12.6013 12.5969 12.5976 12.7027C12.5939 12.8086 12.5482 12.9084 12.4707 12.9797C11.1137 14.2968 9.29902 15.0221 7.41782 14.9995C4.7672 14.999 2.31819 13.5693 0.993303 11.2491C-0.331585 8.92879 -0.331069 6.0704 0.994657 3.75061C2.32038 1.43082 4.76991 0.00207306 7.42052 0.00256198" transform="translate(59.679432 0)" id="Fill_9" fill="#00207D" stroke="none" />
        <path d="M0 0.395471C0.000358094 0.290105 0.0421624 0.189208 0.116197 0.115024C0.190232 0.0408402 0.290418 -0.000540295 0.394669 5.32804e-06L2.30776 5.32804e-06C2.52193 0.00599788 2.69466 0.17908 2.70243 0.395471L2.70243 12.0781L8.0044 12.0781C8.10883 12.0778 8.20912 12.1194 8.28315 12.1938C8.35719 12.2683 8.39889 12.3694 8.39907 12.475L8.39907 14.1814C8.39889 14.2869 8.35719 14.3881 8.28315 14.4625C8.20912 14.5369 8.10883 14.5786 8.0044 14.5782L0.394669 14.5782C0.290238 14.5786 0.189952 14.5369 0.115917 14.4625C0.0418827 14.3881 0.000179125 14.2869 0 14.1814L0 0.395471Z" transform="translate(76.72433 0.21123686)" id="Fill_11" fill="#00207D" stroke="none" />
        <path d="M0 0.395471C0.000358094 0.290105 0.0421624 0.189208 0.116197 0.115024C0.190232 0.0408402 0.290418 -0.000540295 0.394669 5.32804e-06L8.8567 5.32804e-06C8.96095 -0.000540295 9.06114 0.0408402 9.13517 0.115024C9.2092 0.189208 9.25101 0.290105 9.25137 0.395471L9.25137 2.10597C9.25101 2.21133 9.2092 2.31223 9.13517 2.38641C9.06114 2.4606 8.96095 2.50198 8.8567 2.50143L2.70243 2.50143L2.70243 5.91352L7.83787 5.91352C8.05203 5.91952 8.22477 6.0926 8.23254 6.30899L8.23254 8.03727C8.23218 8.14264 8.19038 8.24354 8.11634 8.31772C8.04231 8.3919 7.94212 8.43328 7.83787 8.43274L2.70243 8.43274L2.70243 12.0775L8.8567 12.0775C8.96113 12.0771 9.06142 12.1187 9.13545 12.1932C9.20949 12.2676 9.25119 12.3687 9.25137 12.4743L9.25137 14.1807C9.25119 14.2862 9.20949 14.3874 9.13545 14.4618C9.06142 14.5363 8.96113 14.5779 8.8567 14.5775L0.394669 14.5775C0.290355 14.5779 0.190171 14.5363 0.116156 14.4621C0.0421411 14.3878 0.000358466 14.2868 4.36668e-17 14.1814L0 0.395471Z" transform="translate(89.197365 0.21123686)" id="Fill_13" fill="#00207D" stroke="none" />
      </g>
      <g id="Group_18" transform="translate(0 2.6408272)">
        <g id="Clip_20-2">
          <path d="M3.11064 3.32725L0 2.38716L2.32333 4.77228L0 7.16081L3.11064 6.22004L3.89863 9.54455L4.68526 6.22004L7.7959 7.16081L5.47527 4.77228L7.7959 2.38716L4.68526 3.32725L3.89863 0L3.11064 3.32725Z" id="Mask-2" fill="#00207D" stroke="none" />
          <path d="M3.11403 3.32725L0 2.38716L2.32198 4.77228L0 7.16081L3.11403 6.22004L3.90133 9.54455L4.68593 6.22004L7.7959 7.16081L5.47459 4.77228L7.7959 2.38716L4.68593 3.32725L3.89863 0L3.11403 3.32725Z" transform="translate(115.2041 0)" id="Clip_20-4" fill="#00207D" stroke="none" />
        </g>
      </g>
    </g>
    <path d="M7 5.99929L5.55072 5.99929L5.55072 2.80287L3.85152 6L3.16051 6L1.44928 2.7845L1.44928 5.99929L0 5.99929L0 0L1.46768 0L3.50531 3.80617L5.54223 0L7 0L7 5.99929Z" transform="translate(45 20)" id="Fill_22" fill="#00207D" stroke="none" />
    <path d="M1.4564 6L0 6L2.30398 0L3.69473 0L6 5.99859L4.55132 5.99859L4.16518 4.90556L1.84383 4.90556L1.45769 5.99859L1.4564 6ZM3.00097 1.66533L2.30398 3.63448L3.71147 3.63448L3.00097 1.66533Z" transform="translate(55 20)" id="Fill_25" fill="#00207D" stroke="none" />
    <path d="M2.09637 6L0 6L0 0L2.09637 0C3.83521 0 5 1.20537 5 2.99929C5 4.79322 3.83521 6 2.09637 6ZM1.30583 1.28026L1.30583 4.71903L2.04813 4.71903C2.47212 4.77291 2.89579 4.6146 3.20993 4.28491C3.52407 3.95522 3.69795 3.4864 3.68675 2.99929C3.69772 2.51258 3.52393 2.04421 3.2101 1.71474C2.89627 1.38526 2.47305 1.22684 2.04936 1.28026L1.30583 1.28026Z" transform="translate(64 20)" id="Fill_28" fill="#00207D" stroke="none" />
    <path d="M5 6L0 6L0 0L4.9708 0L4.9708 1.27193L1.5808 1.27193L1.5808 2.40254L4.69298 2.40254L4.69298 3.60382L1.5808 3.60382L1.5808 4.73442L5 4.73442L5 6Z" transform="translate(72 20)" id="Fill_31" fill="#00207D" stroke="none" />
  </g>
</svg>