<?xml version="1.0" encoding="utf-8"?>
<svg width="149px" height="18px" viewBox="0 0 149 18" version="1.1" xmlns:xlink="http://www.w3.org/1999/xlink" xmlns="http://www.w3.org/2000/svg">
  <defs>
    <path d="M3.99085 3.83437L0 2.75047L2.97892 5.49953L0 8.25218L3.99085 7.16828L5.00156 11L6.01019 7.16828L10 8.25218L7.02298 5.49953L10 2.75047L6.01019 3.83437L5.00156 0L3.99085 3.83437Z" id="path_1" />
    <path d="M3.99092 3.83437L0 2.75047L2.97897 5.49953L0 8.25218L3.99092 7.16828L5.00165 11L6.01012 7.16828L10 8.25218L7.02311 5.49953L10 2.75047L6.01012 3.83437L5.00165 0L3.99092 3.83437Z" id="path_2" />
    <clipPath id="mask_1">
      <use xlink:href="#path_1" />
    </clipPath>
    <clipPath id="mask_2">
      <use xlink:href="#path_2" />
    </clipPath>
  </defs>
  <g id="Group-22">
    <g id="Group-15" transform="translate(16 0)">
      <path d="M2.97283 0.375066C2.99778 0.17502 3.14728 0 3.4215 0L3.81995 0C4.01934 0 4.16885 0.100104 4.24368 0.249936L9.72552 12.0501L9.80035 12.0501L15.2824 0.249936C15.357 0.100104 15.4817 0 15.7059 0L16.1045 0C16.3788 0 16.5281 0.17502 16.553 0.375066L19.4935 17.175C19.5682 17.5249 19.3689 17.75 19.045 17.75L16.7774 17.75C16.553 17.75 16.3538 17.5501 16.3039 17.3749L14.8338 7.89996L14.759 7.89996L10.3984 17.725C10.3486 17.8751 10.199 17.9999 9.9748 17.9999L9.52629 17.9999C9.30196 17.9999 9.1774 17.8751 9.10273 17.725L4.69218 7.89996L4.61735 7.89996L3.17222 17.3749C3.14728 17.5501 2.94789 17.75 2.72372 17.75L0.481027 17.75C0.15708 17.75 -0.0421481 17.5249 0.00757781 17.175L2.97283 0.375066Z" id="Fill-1" fill="#FFFFFF" fill-rule="evenodd" stroke="none" />
      <path d="M0 0.475008C0 0.225072 0.224334 0 0.473449 0L2.79081 0C3.04009 0 3.26426 0.225072 3.26426 0.475008L3.26426 17.0251C3.26426 17.275 3.04009 17.5001 2.79081 17.5001L0.473449 17.5001C0.224334 17.5001 0 17.275 0 17.0251L0 0.475008Z" transform="translate(25.150265 0.24998465)" id="Fill-3" fill="#FFFFFF" fill-rule="evenodd" stroke="none" />
      <path d="M7.32591 7.97504C8.64648 7.97504 9.79277 6.82497 9.79277 5.42514C9.79277 4.10005 8.64648 3.00004 7.32591 3.00004L3.26426 3.00004L3.26426 7.97504L7.32591 7.97504ZM0 0.475008C0 0.225072 0.19939 0 0.473449 0L7.59997 0C10.5902 0 13.0321 2.40007 13.0321 5.37508C13.0321 7.67505 11.5121 9.55005 9.34427 10.425L12.758 16.7751C12.9325 17.1001 12.758 17.5001 12.3343 17.5001L9.7181 17.5001C9.49377 17.5001 9.36921 17.3749 9.31932 17.275L6.00518 10.6499L3.23931 10.6499L3.23931 17.0251C3.23931 17.275 3.01514 17.5001 2.76586 17.5001L0.473449 17.5001C0.19939 17.5001 0 17.275 0 17.0251L0 0.475008Z" transform="translate(35.017933 0.2499684)" id="Fill-5" fill="#FFFFFF" fill-rule="evenodd" stroke="none" />
      <path d="M10.8145 11.7749L8.32266 6.27489L8.24783 6.27489L5.80608 11.7749L10.8145 11.7749ZM0.0498512 17.1L7.79949 0.274962C7.87416 0.124968 7.99871 0 8.22305 0L8.47216 0C8.72128 0 8.82106 0.124968 8.89573 0.274962L16.5705 17.1C16.72 17.425 16.5206 17.75 16.147 17.75L13.9791 17.75C13.6053 17.75 13.4308 17.6 13.2564 17.2498L12.0354 14.5499L4.58495 14.5499L3.364 17.2498C3.26438 17.4999 3.04005 17.75 2.64143 17.75L0.473575 17.75C0.0997392 17.75 -0.0994886 17.425 0.0498512 17.1L0.0498512 17.1Z" transform="translate(51.713158 6.500283E-05)" id="Fill-7" fill="#FFFFFF" fill-rule="evenodd" stroke="none" />
      <path d="M8.99538 0C11.5121 0 13.3313 0.800022 15.0255 2.32499C15.2497 2.52504 15.2497 2.82502 15.0504 3.02491L13.5305 4.59993C13.356 4.79997 13.1069 4.79997 12.9075 4.59993C11.8609 3.67494 10.4654 3.12485 9.07021 3.12485C5.88078 3.12485 3.51337 5.79988 3.51337 8.94992C3.51337 12.0749 5.90556 14.7248 9.09499 14.7248C10.5902 14.7248 11.8609 14.1498 12.9075 13.2999C13.1069 13.1249 13.381 13.1499 13.5305 13.2999L15.0754 14.9C15.2748 15.075 15.2249 15.4 15.0504 15.575C13.356 17.2249 11.213 17.9999 8.99538 17.9999C4.01177 17.9999 0 14.025 0 9.02499C0 4.02498 4.01177 0 8.99538 0" transform="translate(71.427826 6.500284E-05)" id="Fill-9" fill="#FFFFFF" fill-rule="evenodd" stroke="none" />
      <path d="M0 0.475008C0 0.225072 0.199228 0 0.473449 0L2.76586 0C3.01498 0 3.23931 0.225072 3.23931 0.475008L3.23931 14.5L9.59354 14.5C9.8676 14.5 10.0668 14.7249 10.0668 14.975L10.0668 17.0251C10.0668 17.275 9.8676 17.5001 9.59354 17.5001L0.473449 17.5001C0.199228 17.5001 0 17.275 0 17.0251L0 0.475008Z" transform="translate(91.960495 0.24998465)" id="Fill-11" fill="#FFFFFF" fill-rule="evenodd" stroke="none" />
      <path d="M0 0.475008C0 0.225072 0.199228 0 0.473449 0L10.615 0C10.8892 0 11.0886 0.225072 11.0886 0.475008L11.0886 2.52504C11.0886 2.77497 10.8892 3.00004 10.615 3.00004L3.23931 3.00004L3.23931 7.1001L9.39399 7.1001C9.64327 7.1001 9.86761 7.32501 9.86761 7.57494L9.86761 9.65C9.86761 9.92496 9.64327 10.125 9.39399 10.125L3.23931 10.125L3.23931 14.5L10.615 14.5C10.8892 14.5 11.0886 14.7249 11.0886 14.975L11.0886 17.0251C11.0886 17.275 10.8892 17.5001 10.615 17.5001L0.473449 17.5001C0.199228 17.5001 0 17.275 0 17.0251L0 0.475008Z" transform="translate(106.91144 0.24998465)" id="Fill-13" fill="#FFFFFF" fill-rule="evenodd" stroke="none" />
    </g>
    <g id="Group-18" transform="translate(0 3)">
      <path d="M3.99085 3.83437L0 2.75047L2.97892 5.49953L0 8.25218L3.99085 7.16828L5.00156 11L6.01019 7.16828L10 8.25218L7.02298 5.49953L10 2.75047L6.01019 3.83437L5.00156 0L3.99085 3.83437Z" id="Clip-17" fill="none" fill-rule="evenodd" stroke="none" />
      <g clip-path="url(#mask_1)">
        <path d="M0 20.9999L21.1107 20.9999L21.1107 0L0 0L0 20.9999Z" transform="translate(-5.5555363 -5.0000143)" id="Fill-16" fill="#FFFFFF" fill-rule="evenodd" stroke="none" />
      </g>
    </g>
    <g id="Group-21" transform="translate(139 3)">
      <path d="M3.99092 3.83437L0 2.75047L2.97897 5.49953L0 8.25218L3.99092 7.16828L5.00165 11L6.01012 7.16828L10 8.25218L7.02311 5.49953L10 2.75047L6.01012 3.83437L5.00165 0L3.99092 3.83437Z" id="Clip-20" fill="none" fill-rule="evenodd" stroke="none" />
      <g clip-path="url(#mask_2)">
        <path d="M0 20.9999L21.1113 20.9999L21.1113 0L0 0L0 20.9999Z" transform="translate(-5.5556326 -5.0000143)" id="Fill-19" fill="#FFFFFF" fill-rule="evenodd" stroke="none" />
      </g>
    </g>
  </g>
</svg>