<?xml version="1.0" encoding="utf-8"?>
<svg width="112px" height="112px" viewBox="0 0 112 112" version="1.1" xmlns:xlink="http://www.w3.org/1999/xlink" xmlns="http://www.w3.org/2000/svg">
  <g id="Pre-Cut" transform="translate(0.7807617 0.7807617)">
    <g id="Group-12">
      <path d="M55 110C85.3757 110 110 85.3757 110 55C110 24.6243 85.3757 0 55 0C24.6243 0 0 24.6243 0 55C0 85.3757 24.6243 110 55 110Z" id="Oval-Copy-4" fill="#FFFFFF" fill-rule="evenodd" stroke="none" />
    </g>
    <g id="Group-10" transform="translate(30 29)">
      <path d="M0 2.99125L3.83036 0" transform="translate(4.967712 11.23026)" id="Stroke-1" fill="none" fill-rule="evenodd" stroke="#012169" stroke-width="1.5610771" stroke-linecap="round" stroke-linejoin="round" />
      <path d="M0 4.63636L5.93834 0" transform="translate(9.718537 15.617957)" id="Stroke-2" fill="none" fill-rule="evenodd" stroke="#012169" stroke-width="1.5610771" stroke-linecap="round" stroke-linejoin="round" />
      <path d="M0 2.99125L3.83088 0" transform="translate(14.469624 23.29608)" id="Stroke-3" fill="none" fill-rule="evenodd" stroke="#012169" stroke-width="1.5610771" stroke-linecap="round" stroke-linejoin="round" />
      <path d="M0 4.63687L5.93834 0" transform="translate(19.22045 27.683258)" id="Stroke-4" fill="none" fill-rule="evenodd" stroke="#012169" stroke-width="1.5610771" stroke-linecap="round" stroke-linejoin="round" />
      <path d="M0 2.99073L3.83088 0" transform="translate(23.971485 35.36221)" id="Stroke-5" fill="none" fill-rule="evenodd" stroke="#012169" stroke-width="1.5610771" stroke-linecap="round" stroke-linejoin="round" />
      <path d="M0 4.84258L6.20112 0" transform="translate(28.72257 39.543373)" id="Stroke-6" fill="none" fill-rule="evenodd" stroke="#012169" stroke-width="1.5610771" stroke-linecap="round" stroke-linejoin="round" />
      <path d="M0 2.99125L3.83088 0" transform="translate(33.473396 47.42751)" id="Stroke-7" fill="none" fill-rule="evenodd" stroke="#012169" stroke-width="1.5610771" stroke-linecap="round" stroke-linejoin="round" />
      <path d="M48 48.0947L37.8754 56L0 7.90585L10.1246 0L48 48.0947Z" id="Stroke-8" fill="none" fill-rule="evenodd" stroke="#012169" stroke-width="1.5610771" stroke-linecap="round" stroke-linejoin="round" />
    </g>
  </g>
</svg>