<?xml version="1.0" encoding="utf-8"?>
<svg width="112px" height="112px" viewBox="0 0 112 112" version="1.1" xmlns:xlink="http://www.w3.org/1999/xlink" xmlns="http://www.w3.org/2000/svg">
  <g id="Septic-&amp;-Grey-Water-Safe" transform="translate(0.7675781 0.7680664)">
    <g id="Group-12-Copy-15">
      <path d="M55 110C85.3757 110 110 85.3757 110 55C110 24.6243 85.3757 0 55 0C24.6243 0 0 24.6243 0 55C0 85.3757 24.6243 110 55 110Z" id="Oval-Copy-4" fill="#FFFFFF" fill-rule="evenodd" stroke="none" />
    </g>
    <g id="Group-5" transform="translate(34 23)">
      <path d="M42 46.0993C42 56.5383 32.5984 65 21 65C9.40165 65 0 56.5383 0 46.0993C0 35.6604 21 0 21 0C21 0 42 35.6604 42 46.0993Z" id="Stroke-1" fill="none" fill-rule="evenodd" stroke="#012169" stroke-width="1.5357988" stroke-linecap="round" stroke-linejoin="round" />
      <path d="M8.60918 17.1635C12.8772 9.10408 20.8725 3.29727 26.32 0L28.0744 3.71544C19.0936 9.59852 14.0357 19.7125 10.0523 28.0002L0 11.2989L8.60918 17.1635Z" transform="translate(9.130989 27.67571)" id="Stroke-3" fill="none" fill-rule="evenodd" stroke="#012169" stroke-width="1.5357988" stroke-linecap="round" stroke-linejoin="round" />
    </g>
  </g>
</svg>