<?xml version="1.0" encoding="utf-8"?>
<svg width="112px" height="112px" viewBox="0 0 112 112" version="1.1" xmlns:xlink="http://www.w3.org/1999/xlink" xmlns="http://www.w3.org/2000/svg">
  <g id="Travel-Friendly" transform="translate(0.61328125 0.61328125)">
    <path d="M55 110C85.3757 110 110 85.3757 110 55C110 24.6243 85.3757 0 55 0C24.6243 0 0 24.6243 0 55C0 85.3757 24.6243 110 55 110Z" id="Oval-Copy-4" fill="#FFFFFF" fill-rule="evenodd" stroke="none" />
    <g id="Recurso-1" transform="translate(37 20)">
      <path d="M18.7076 0.000403237L31.1655 0.000403237C33.7941 -0.030167 36.1164 1.68027 36.8297 4.17218C36.9401 4.57221 36.9974 4.98465 37 5.39918L37 37.5137C36.9974 37.9282 36.9401 38.3407 36.8297 38.7407C36.1164 41.2326 33.7941 42.943 31.1655 42.9125L5.83446 42.9125C3.20592 42.943 0.883585 41.2326 0.170258 38.7407C0.0598764 38.3407 0.00264617 37.9282 0 37.5137L0 5.41145C0.00264617 4.99692 0.0598764 4.58448 0.170258 4.18445C0.883585 1.69254 3.20592 -0.0178971 5.83446 0.0126732L18.7076 0.0126732" transform="translate(0 22.482214)" id="Path" fill="none" fill-rule="evenodd" stroke="#012169" stroke-width="1.2269939" stroke-linecap="round" stroke-linejoin="round" />
      <path d="M0 21.0511L0 3.35787C0 1.49284 0.722559 0 1.61122 0" transform="translate(8.753759 1.4314928)" id="Path" fill="none" fill-rule="evenodd" stroke="#012169" stroke-width="1.2269939" stroke-linecap="round" stroke-linejoin="round" />
      <path d="M0 0C0.892817 0 1.61538 1.51329 1.61538 3.37832L1.61538 20.6299" transform="translate(26.601795 1.4314928)" id="Path" fill="none" fill-rule="evenodd" stroke="#012169" stroke-width="1.2269939" stroke-linecap="round" stroke-linejoin="round" />
      <path d="M1.49184 0L13.9103 0Q13.9836 0 14.0565 0.00718363Q14.1295 0.0143673 14.2013 0.0286653Q14.2732 0.0429634 14.3433 0.0642382Q14.4135 0.0855131 14.4812 0.11356Q14.5489 0.141606 14.6135 0.176155Q14.6782 0.210703 14.7391 0.251421Q14.8 0.292138 14.8567 0.338633Q14.9134 0.385127 14.9652 0.436951Q15.017 0.488774 15.0635 0.545428Q15.11 0.602081 15.1507 0.663019Q15.1914 0.723957 15.226 0.788593Q15.2605 0.853228 15.2886 0.920939Q15.3166 0.98865 15.3379 1.05878Q15.3592 1.12892 15.3735 1.2008Q15.3878 1.27268 15.3949 1.34562Q15.4021 1.41855 15.4021 1.49184L15.4021 1.53883Q15.4021 1.61212 15.3949 1.68506Q15.3878 1.758 15.3735 1.82988Q15.3592 1.90176 15.3379 1.97189Q15.3166 2.04203 15.2886 2.10974Q15.2605 2.17745 15.226 2.24208Q15.1914 2.30672 15.1507 2.36766Q15.11 2.42859 15.0635 2.48525Q15.017 2.5419 14.9652 2.59372Q14.9134 2.64555 14.8567 2.69204Q14.8 2.73854 14.7391 2.77925Q14.6782 2.81997 14.6135 2.85452Q14.5489 2.88907 14.4812 2.91711Q14.4135 2.94516 14.3433 2.96644Q14.2732 2.98771 14.2013 3.00201Q14.1295 3.01631 14.0565 3.02349Q13.9836 3.03067 13.9103 3.03067L1.49184 3.03067Q1.41855 3.03067 1.34562 3.02349Q1.27268 3.01631 1.2008 3.00201Q1.12892 2.98771 1.05878 2.96644Q0.98865 2.94516 0.920939 2.91711Q0.853228 2.88907 0.788593 2.85452Q0.723957 2.81997 0.663019 2.77925Q0.602081 2.73854 0.545428 2.69204Q0.488774 2.64555 0.436951 2.59372Q0.385127 2.5419 0.338633 2.48525Q0.292138 2.42859 0.251421 2.36766Q0.210703 2.30672 0.176155 2.24208Q0.141606 2.17745 0.11356 2.10974Q0.0855131 2.04203 0.0642382 1.97189Q0.0429634 1.90176 0.0286653 1.82988Q0.0143673 1.758 0.00718363 1.68506Q0 1.61212 0 1.53883L0 1.49184Q0 1.41855 0.00718363 1.34562Q0.0143673 1.27268 0.0286653 1.2008Q0.0429634 1.12892 0.0642382 1.05878Q0.0855131 0.98865 0.11356 0.920939Q0.141606 0.853228 0.176155 0.788593Q0.210703 0.723957 0.251421 0.663019Q0.292138 0.602081 0.338633 0.545428Q0.385127 0.488774 0.436951 0.436951Q0.488774 0.385127 0.545428 0.338633Q0.602081 0.292138 0.663019 0.251421Q0.723957 0.210703 0.788593 0.176155Q0.853228 0.141606 0.920939 0.11356Q0.98865 0.0855131 1.05878 0.0642382Q1.12892 0.0429634 1.2008 0.0286653Q1.27268 0.0143673 1.34562 0.00718363Q1.41855 0 1.49184 0L1.49184 0Z" transform="translate(10.751179 0)" id="Rectangle" fill="none" fill-rule="evenodd" stroke="#012169" stroke-width="1.2269939" stroke-linecap="round" stroke-linejoin="round" />
      <path d="M0 0L3.47991 0L3.47991 2.75665C3.47991 3.7031 2.70091 4.47035 1.73996 4.47035L1.73996 4.47035C0.779004 4.47035 2.21297e-15 3.7031 2.21297e-15 2.75665L2.21297e-15 0L0 0Z" transform="translate(5.0122333 65.529655)" id="Path" fill="none" fill-rule="evenodd" stroke="#012169" stroke-width="1.2269939" stroke-linecap="round" stroke-linejoin="round" />
      <path d="M0 0L3.47991 0L3.47991 2.75665C3.47991 3.7031 2.70091 4.47035 1.73996 4.47035L1.73996 4.47035C0.779004 4.47035 0 3.7031 0 2.75665L0 0Z" transform="translate(28.553535 65.529655)" id="Path" fill="none" fill-rule="evenodd" stroke="#012169" stroke-width="1.2269939" stroke-linecap="round" stroke-linejoin="round" />
      <path d="M0.0705948 0L0.344669 30.2045" transform="translate(6.12514 29.214724)" id="Path" fill="none" fill-rule="evenodd" stroke="#012169" stroke-width="1.2269939" stroke-linecap="round" stroke-linejoin="round" />
      <path d="M0.0705948 0L0.344669 30.2045" transform="translate(14.222783 29.214724)" id="Path" fill="none" fill-rule="evenodd" stroke="#012169" stroke-width="1.2269939" stroke-linecap="round" stroke-linejoin="round" />
      <path d="M0.0705948 0L0.344669 30.2045" transform="translate(22.320427 29.214724)" id="Path" fill="none" fill-rule="evenodd" stroke="#012169" stroke-width="1.2269939" stroke-linecap="round" stroke-linejoin="round" />
      <path d="M0.0705948 0L0.344669 30.2045" transform="translate(30.41807 29.214724)" id="Path" fill="none" fill-rule="evenodd" stroke="#012169" stroke-width="1.2269939" stroke-linecap="round" stroke-linejoin="round" />
      <path d="M0 2.08998L0 0L9.04029 0L9.04029 2.08589" transform="translate(13.96532 20.347649)" id="Path" fill="none" fill-rule="evenodd" stroke="#012169" stroke-width="1.2269939" stroke-linecap="round" stroke-linejoin="round" />
    </g>
  </g>
</svg>