<?xml version="1.0" encoding="utf-8"?>
<svg width="37px" height="40px" viewBox="0 0 37 40" version="1.1" xmlns:xlink="http://www.w3.org/1999/xlink" xmlns="http://www.w3.org/2000/svg">
  <g id="money-back">
    <path d="M37 18.5162C37 13.5703 35.0757 8.92056 31.5815 5.42329C28.0872 1.92602 23.4415 0 18.5 0C13.5585 0 8.91276 1.92602 5.41854 5.42329C1.92433 8.92056 0 13.5703 0 18.5162C0 22.4118 1.19513 26.1391 3.45612 29.2951C5.66817 32.3826 8.71886 34.687 12.2785 35.959C12.8873 36.1763 13.5574 35.8588 13.7748 35.2494C13.9923 34.6398 13.6748 33.9693 13.0658 33.7516C11.166 33.0728 9.43238 32.0563 7.92979 30.7529L9.90493 28.776C10.3621 28.3184 10.3621 27.5764 9.90493 27.1187C9.44776 26.6611 8.70637 26.6611 8.24912 27.1187L6.27576 29.0938C5.95456 28.7213 5.6485 28.3332 5.35914 27.9293C3.61301 25.492 2.5957 22.6636 2.38393 19.6881L7.38175 19.6881C8.02837 19.6881 8.5526 19.1634 8.5526 18.5162C8.5526 17.869 8.02837 17.3443 7.38175 17.3443L2.3844 17.3443C2.64175 13.765 4.06746 10.5045 6.28162 7.94439L8.24912 9.91361C8.47775 10.1424 8.77741 10.2569 9.07699 10.2569C9.37657 10.2569 9.67631 10.1424 9.90493 9.91361C10.3621 9.45603 10.3621 8.714 9.90493 8.25634L7.93744 6.28712C10.4953 4.07102 13.753 2.64407 17.3291 2.38649L17.3291 7.38814C17.3291 8.03533 17.8534 8.56002 18.5 8.56002C19.1466 8.56002 19.6709 8.03533 19.6709 7.38814L19.6709 2.38649C23.247 2.64407 26.5047 4.07102 29.0626 6.28712L27.0951 8.25627C26.6378 8.71385 26.6378 9.4558 27.0951 9.91354C27.3237 10.1424 27.6234 10.2568 27.9229 10.2568C28.2225 10.2568 28.5223 10.1424 28.7508 9.91354L30.7183 7.94439C32.9325 10.5045 34.3582 13.765 34.6155 17.3443L29.6182 17.3443C28.9716 17.3443 28.4474 17.869 28.4474 18.5162C28.4474 19.1634 28.9716 19.6881 29.6182 19.6881L34.616 19.6881C34.3592 23.2607 32.9377 26.526 30.7217 29.0915L28.7507 27.1187C28.2935 26.6611 27.5522 26.6611 27.0949 27.1187C26.6377 27.5763 26.6377 28.3183 27.0949 28.776L29.0663 30.7491C26.9881 32.5508 24.4439 33.8323 21.6303 34.3845L22.2929 33.7213C22.7501 33.2637 22.7501 32.5217 22.2929 32.064C21.8357 31.6065 21.0943 31.6065 20.637 32.064L17.6719 35.0318C17.2147 35.4894 17.2147 36.2314 17.6719 36.6891L20.637 39.6567C20.8656 39.8855 21.1652 40 21.4648 40C21.7644 40 22.0641 39.8855 22.2927 39.6567C22.75 39.1991 22.75 38.4571 22.2927 37.9995L21.1382 36.844C30.1493 35.5569 37 27.7892 37 18.5162Z" id="Path" fill="#5EE1D0" stroke="none" />
    <path d="M6.15927 7.32694C5.03662 6.95135 3.79492 6.49761 3.09882 5.98093C2.88 5.81854 2.78536 5.44662 2.86321 5.05553C2.90201 4.86049 3.0836 4.20827 3.78838 4.00728C4.94586 3.67717 5.73917 4.11486 6.02666 4.31835C6.57574 4.70687 7.35324 4.60046 7.76367 4.08103C8.17401 3.56153 8.06183 2.82553 7.51291 2.43709C7.25239 2.25278 6.59998 1.84861 5.66455 1.6524L5.66455 1.17447C5.66455 0.525847 5.10893 0 4.42359 0C3.73825 0 3.18263 0.525847 3.18263 1.17447L3.18263 1.72905C3.14598 1.73876 3.10958 1.74768 3.07252 1.75825C1.71334 2.14575 0.698563 3.24254 0.424146 4.62058C0.171652 5.88901 0.609545 7.11852 1.56699 7.82922C2.35566 8.41473 3.44646 8.91083 5.33197 9.54167C6.58724 9.96158 6.56002 10.9231 6.49003 11.3169C6.34815 12.1155 5.6384 12.9785 4.41523 12.9861C3.21547 12.9931 2.84194 12.9375 1.92041 12.367C1.34684 12.0119 0.577776 12.1642 0.202593 12.7069C-0.172589 13.2498 -0.0117613 13.9776 0.561727 14.3328C1.55565 14.9481 2.28897 15.1977 3.18255 15.2887L3.18255 15.8255C3.18255 16.4742 3.73816 17 4.4235 17C5.10884 17 5.66446 16.4742 5.66446 15.8255L5.66446 15.1759C6.34815 14.9978 6.97119 14.6724 7.50364 14.2092C8.25815 13.5531 8.76744 12.6643 8.93761 11.7063C9.28367 9.75856 8.16706 7.99866 6.15927 7.32694Z" transform="translate(14 11)" id="Path" fill="#5EE1D0" stroke="none" />
  </g>
</svg>