<?xml version="1.0" encoding="utf-8"?>
<svg width="42px" height="52px" viewBox="0 0 42 52" version="1.1" xmlns:xlink="http://www.w3.org/1999/xlink" xmlns="http://www.w3.org/2000/svg">
  <g id="002-packing">
    <path d="M40.6547 17.535L30.3043 13.5399C31.7915 9.32854 30.3473 4.64314 26.7442 1.98992C23.1411 -0.663306 18.2225 -0.663306 14.6194 1.98992C11.0164 4.64314 9.57216 9.32854 11.0594 13.5399L0.708909 17.535C0.281291 17.7012 -0.00017338 18.1119 8.01295e-08 18.5693L8.01295e-08 42.4943C-0.00012975 42.9524 0.282233 43.3636 0.710818 43.5293L20.279 51.0883C20.4075 51.1377 20.5441 51.1631 20.6818 51.1631C20.8182 51.1603 20.9528 51.1324 21.0789 51.0807L21.0846 51.0883L40.6547 43.5293C41.0826 43.3629 41.3641 42.952 41.3636 42.4943L41.3636 18.5693C41.3638 18.1119 41.0823 17.7012 40.6547 17.535L40.6547 17.535ZM37.1706 18.5693L33.558 19.9644L27.5711 17.6688C28.2531 17.0434 28.847 16.3288 29.3364 15.5444L37.1706 18.5693ZM25.3807 19.2072L30.4716 21.1585L27.5972 22.2682L22.3243 20.2155C23.3905 20.0439 24.4223 19.7035 25.3807 19.2072ZM28.8457 24.1656L32.5856 22.721L32.5856 27.3446L31.9601 26.9381C31.5085 26.6452 30.9113 26.7162 30.5416 27.1068L28.8457 28.9001L28.8457 24.1656ZM20.6818 2.24761C25.0855 2.24761 28.6555 5.80509 28.6555 10.1935C28.6555 14.5818 25.0855 18.1393 20.6818 18.1393C16.2781 18.1393 12.7082 14.5818 12.7082 10.1935C12.7131 5.80711 16.2801 2.2525 20.6818 2.24761L20.6818 2.24761ZM12.6636 16.4525L11.1733 15.8722L12.0266 15.5425C12.2222 15.8578 12.4348 16.1622 12.6636 16.4544L12.6636 16.4525ZM8.10155 17.0587L24.5223 23.4554L20.6818 24.9386L4.193 18.5693L8.10155 17.0587ZM2.22727 41.734L2.22727 20.1901L19.5682 26.8893L19.5682 48.4331L2.22727 41.734ZM21.7955 48.4331L21.7955 26.8893L26.6185 25.0249L26.6185 31.6967C26.6187 32.1516 26.8974 32.5602 27.3216 32.7279C27.4522 32.7799 27.5915 32.8066 27.7321 32.8065C28.039 32.8066 28.3324 32.6804 28.5428 32.4577L31.5242 29.3041L33.0915 30.3187C33.4337 30.5391 33.8694 30.5557 34.2275 30.362C34.5856 30.1683 34.8089 29.7951 34.8097 29.3891L34.8097 21.8605L39.1364 20.1901L39.1364 41.734L21.7955 48.4331Z" id="Shape" fill="#033877" stroke="none" />
    <path d="M3.26659 6.81845C3.69136 7.17668 4.31628 7.16747 4.73023 6.79689L10.131 1.95963C10.4427 1.69882 10.5868 1.28937 10.5068 0.891716C10.4268 0.494067 10.1356 0.171557 9.74712 0.0505637C9.35868 -0.0704293 8.93495 0.0293663 8.64196 0.310845L3.96341 4.50192L1.83287 2.70728C1.36315 2.31152 0.660418 2.37015 0.263275 2.83823C-0.133868 3.30632 -0.075034 4.0066 0.394684 4.40236L3.26659 6.81845Z" transform="translate(15.43168 6.640859)" id="Path" fill="#033877" stroke="none" />
  </g>
</svg>