<?xml version="1.0" encoding="utf-8"?>
<svg width="40px" height="40px" viewBox="0 0 40 40" version="1.1" xmlns:xlink="http://www.w3.org/1999/xlink" xmlns="http://www.w3.org/2000/svg">
  <g id="001-clock">
    <path d="M8.67555 14.2525L3.09844 10.0697L3.09844 1.54922C3.09844 0.6925 2.40594 0 1.54922 0C0.6925 0 0 0.6925 0 1.54922L0 10.8444C0 11.3323 0.229297 11.7925 0.619687 12.0837L6.81641 16.7313C7.09523 16.9405 7.42063 17.0412 7.74437 17.0412C8.21688 17.0412 8.68164 16.8289 8.98531 16.4199C9.49977 15.7366 9.36031 14.7653 8.67555 14.2525Z" transform="translate(18.450703 9.27961)" id="Path" fill="#033877" stroke="none" />
    <path d="M20 0C8.97133 0 0 8.97133 0 20C0 31.0287 8.97133 40 20 40C31.0287 40 40 31.0287 40 20C40 8.97133 31.0287 0 20 0ZM20 36.9016C10.6816 36.9016 3.09836 29.3184 3.09836 20C3.09836 10.6816 10.6816 3.09836 20 3.09836C29.3199 3.09836 36.9016 10.6816 36.9016 20C36.9016 29.3184 29.3184 36.9016 20 36.9016Z" id="Shape" fill="#033877" stroke="none" />
  </g>
</svg>