<?xml version="1.0" encoding="utf-8"?>
<svg width="40px" height="40px" viewBox="0 0 40 40" version="1.1" xmlns:xlink="http://www.w3.org/1999/xlink" xmlns="http://www.w3.org/2000/svg">
  <g id="003-user">
    <path d="M34.3802 6.142C30.6126 2.20939 25.3997 -0.00998709 19.9535 3.37879e-05C8.94741 -0.0138284 0.013878 8.89715 1.58005e-05 19.9033C-0.0068318 25.3455 2.21229 30.5537 6.14198 34.3186C6.15342 34.33 6.15768 34.3471 6.16903 34.3571C6.28444 34.4683 6.40987 34.5624 6.52678 34.6693C6.84745 34.9543 7.16812 35.2493 7.5059 35.5244C7.68686 35.6669 7.87501 35.8094 8.06031 35.9405C8.37956 36.1785 8.69881 36.4165 9.03225 36.636C9.25889 36.7786 9.49263 36.921 9.72486 37.0636C10.0327 37.2489 10.3391 37.4355 10.657 37.6051C10.9264 37.7477 11.2014 37.8702 11.475 37.9999C11.7743 38.1424 12.0693 38.2849 12.3757 38.4131C12.6821 38.5414 12.99 38.6412 13.3006 38.7524C13.6113 38.8635 13.8793 38.9661 14.1771 39.0573C14.5135 39.1585 14.8584 39.2369 15.2004 39.321C15.4854 39.3908 15.7619 39.4706 16.0555 39.5276C16.4489 39.606 16.8479 39.6559 17.247 39.7101C17.4936 39.7443 17.7345 39.7928 17.9838 39.817C18.6366 39.8811 19.295 39.9168 19.9591 39.9168C20.6232 39.9168 21.2817 39.8811 21.9344 39.817C22.1838 39.7928 22.4247 39.7443 22.6712 39.7101C23.0702 39.6559 23.4692 39.606 23.8626 39.5276C24.1477 39.4706 24.4328 39.3851 24.7178 39.321C25.0598 39.2369 25.4047 39.1584 25.7411 39.0573C26.0389 38.9661 26.3268 38.855 26.6176 38.7524C26.9083 38.6497 27.2389 38.5386 27.5425 38.4131C27.846 38.2877 28.1439 38.1409 28.4432 37.9999C28.7168 37.8702 28.9919 37.7476 29.2612 37.6051C29.5791 37.4355 29.8854 37.2488 30.1933 37.0636C30.4257 36.921 30.6594 36.7914 30.8859 36.636C31.2195 36.4166 31.5387 36.1786 31.8579 35.9405C32.0432 35.7979 32.2313 35.6697 32.4123 35.5244C32.7501 35.2536 33.0707 34.9657 33.3914 34.6693C33.5082 34.5624 33.6337 34.4683 33.7492 34.3571C33.7605 34.3472 33.7649 34.3301 33.7762 34.3186C41.7239 26.7046 41.9943 14.0895 34.3802 6.142ZM31.177 32.8264C30.9176 33.0545 30.6496 33.2711 30.3789 33.4806C30.2193 33.6032 30.0596 33.7243 29.8957 33.8412C29.6378 34.0279 29.3755 34.2046 29.109 34.3742C28.9152 34.4982 28.7171 34.6179 28.5175 34.7348C28.2667 34.8774 28.0115 35.0198 27.7536 35.1624C27.5255 35.2792 27.2932 35.389 27.0596 35.4973C26.8259 35.6056 26.5679 35.721 26.3156 35.8222C26.0633 35.9235 25.7954 36.0189 25.5317 36.1073C25.2909 36.1899 25.05 36.2754 24.8063 36.3481C24.5213 36.4336 24.2234 36.5034 23.9284 36.5747C23.6975 36.6288 23.4695 36.6901 23.2358 36.7358C22.898 36.8014 22.5531 36.847 22.2068 36.894C22.0101 36.9196 21.8149 36.9553 21.6167 36.9752C21.0694 37.0279 20.515 37.0593 19.9549 37.0593C19.3948 37.0593 18.8404 37.028 18.2931 36.9752C18.095 36.9553 17.8998 36.9196 17.7031 36.894C17.3568 36.847 17.0119 36.8014 16.6741 36.7358C16.4403 36.6902 16.2123 36.6289 15.9815 36.5747C15.6864 36.5035 15.3928 36.4322 15.1036 36.3481C14.8599 36.2754 14.619 36.1899 14.3781 36.1073C14.1145 36.0161 13.8508 35.9234 13.5943 35.8222C13.3377 35.721 13.0955 35.6099 12.8503 35.4973C12.6051 35.3848 12.3842 35.2793 12.1563 35.1624C11.8983 35.0284 11.6432 34.8873 11.3923 34.7348C11.1928 34.618 10.9947 34.4982 10.8008 34.3742C10.5344 34.2046 10.2721 34.0279 10.0141 33.8412C9.8502 33.7244 9.69062 33.6032 9.53095 33.4806C9.26014 33.2711 8.99225 33.0531 8.73288 32.8264C8.67016 32.7794 8.61313 32.7195 8.55192 32.6653C8.61563 27.8172 11.7302 23.5362 16.3235 21.9835C18.6202 23.076 21.2868 23.076 23.5835 21.9835C28.1767 23.5362 31.2913 27.8171 31.3551 32.6653C31.2952 32.7195 31.2382 32.7737 31.177 32.8264ZM14.9837 11.427C16.5269 8.68262 20.0025 7.70884 22.7469 9.25198C25.4913 10.7951 26.4651 14.2708 24.9219 17.0151C24.41 17.9257 23.6576 18.6781 22.7469 19.1902C22.7398 19.1902 22.7312 19.1902 22.7227 19.1987C22.3447 19.4091 21.9453 19.5782 21.5312 19.7032C21.4571 19.7246 21.3887 19.7531 21.3103 19.7716C21.1678 19.8087 21.0181 19.8344 20.8713 19.86C20.5949 19.9083 20.3153 19.9364 20.0348 19.9441L19.8722 19.9441C19.5917 19.9364 19.3121 19.9083 19.0357 19.86C18.8931 19.8344 18.7421 19.8087 18.5968 19.7716C18.5212 19.7531 18.4542 19.7246 18.3759 19.7032C17.9618 19.5782 17.5624 19.4091 17.1844 19.1987L17.1588 19.1902C14.4144 17.647 13.4406 14.1714 14.9837 11.427ZM33.8834 29.8393L33.8834 29.8393C32.9688 25.5735 30.1598 21.957 26.2529 20.0155C29.4466 16.5365 29.2153 11.1271 25.7363 7.93339C22.2573 4.73966 16.8479 4.97097 13.6542 8.44997C10.6518 11.7206 10.6518 16.7449 13.6542 20.0155C9.74732 21.9571 6.9383 25.5735 6.02373 29.8393C0.55868 22.1413 2.36878 11.4706 10.0667 6.00555C17.7647 0.540493 28.4354 2.3506 33.9005 10.0486C35.9548 12.9423 37.0576 16.4038 37.0559 19.9527C37.0559 23.4985 35.9466 26.9554 33.8834 29.8393Z" id="Shape" fill="#033877" stroke="none" />
  </g>
</svg>