<?xml version="1.0" encoding="utf-8"?>
<svg width="112px" height="112px" viewBox="0 0 112 112" version="1.1" xmlns:xlink="http://www.w3.org/1999/xlink" xmlns="http://www.w3.org/2000/svg">
  <g id="Works-in-All-Machines" transform="translate(0.67529297 0.67529297)">
    <g id="Group-12-Copy-13">
      <path d="M55 110C85.3757 110 110 85.3757 110 55C110 24.6243 85.3757 0 55 0C24.6243 0 0 24.6243 0 55C0 85.3757 24.6243 110 55 110Z" id="Oval-Copy-4" fill="#FFFFFF" fill-rule="evenodd" stroke="none" />
    </g>
    <g id="Group-23" transform="translate(29 24)">
      <path d="M49.861 52.7192L2.13899 52.7192C0.957817 52.7192 0 51.7558 0 50.5678L0 2.15136C0 0.963356 0.957817 0 2.13899 0L49.861 0C51.0426 0 52 0.963356 52 2.15136L52 50.5678C52 51.7558 51.0426 52.7192 49.861 52.7192Z" transform="translate(4.5031353E-05 10.280826)" id="Stroke-1" fill="none" fill-rule="evenodd" stroke="#012169" stroke-width="1.3509406" stroke-linecap="round" stroke-linejoin="round" />
      <path d="M0 14.107L0 2.93038C0 1.3121 1.30456 0 2.91353 0L49.0864 0C50.6958 0 52 1.3121 52 2.93038L52 14.3842" id="Stroke-3" fill="none" fill-rule="evenodd" stroke="#012169" stroke-width="1.3509406" stroke-linecap="round" stroke-linejoin="round" />
      <path d="M21.3025 34.0839C19.9854 34.4091 18.6083 34.5816 17.1916 34.5816C7.69676 34.5816 0 26.8399 0 17.2906C0 7.74127 7.69676 0 17.1916 0C26.686 0 34.3828 7.74127 34.3828 17.2906C34.3828 25.4146 28.812 32.2305 21.3025 34.0839" transform="translate(8.808673 17.52375)" id="Stroke-5" fill="none" fill-rule="evenodd" stroke="#012169" stroke-width="1.3509406" stroke-linecap="round" stroke-linejoin="round" />
      <path d="M23.4811 11.8085C23.4811 18.33 18.2246 23.6169 11.7406 23.6169C5.25651 23.6169 0 18.33 0 11.8085C0 5.28691 5.25651 0 11.7406 0C18.2246 0 23.4811 5.28691 23.4811 11.8085Z" transform="translate(14.259448 23.005821)" id="Stroke-7" fill="none" fill-rule="evenodd" stroke="#012169" stroke-width="1.3509406" stroke-linecap="round" stroke-linejoin="round" />
      <path d="M4.3739 2.19982C4.3739 3.41455 3.39491 4.39919 2.18672 4.39919C0.978982 4.39919 0 3.41455 0 2.19982C0 0.984643 0.978982 0 2.18672 0C3.39491 0 4.3739 0.984643 4.3739 2.19982Z" transform="translate(3.9852748 2.605364)" id="Stroke-9" fill="none" fill-rule="evenodd" stroke="#012169" stroke-width="1.3509406" stroke-linecap="round" stroke-linejoin="round" />
      <path d="M4.3739 2.19982C4.3739 3.41455 3.39446 4.39919 2.18672 4.39919C0.978982 4.39919 0 3.41455 0 2.19982C0 0.984643 0.978982 0 2.18672 0C3.39446 0 4.3739 0.984643 4.3739 2.19982Z" transform="translate(12.468011 2.605364)" id="Stroke-11" fill="none" fill-rule="evenodd" stroke="#012169" stroke-width="1.3509406" stroke-linecap="round" stroke-linejoin="round" />
      <path d="M4.3739 2.19982C4.3739 3.41455 3.39491 4.39919 2.18717 4.39919C0.978982 4.39919 0 3.41455 0 2.19982C0 0.984643 0.978982 0 2.18717 0C3.39491 0 4.3739 0.984643 4.3739 2.19982Z" transform="translate(20.950521 2.605364)" id="Stroke-13" fill="none" fill-rule="evenodd" stroke="#012169" stroke-width="1.3509406" stroke-linecap="round" stroke-linejoin="round" />
      <path d="M0 0.226459L51.2331 0.226459" transform="translate(0.20556812 57.753853)" id="Stroke-15" fill="none" fill-rule="evenodd" stroke="#012169" stroke-width="1.3509406" stroke-linecap="round" stroke-linejoin="round" />
      <path d="M0 0.932123C0 0.932123 4.62337 -1.07883 10.1217 0.806665C15.62 2.69171 18.3692 1.81169 20.7432 0.429384" transform="translate(15.700497 38.57322)" id="Stroke-17" fill="none" fill-rule="evenodd" stroke="#012169" stroke-width="1.3509406" stroke-linecap="round" stroke-linejoin="round" />
      <path d="M3.49894 1.75959C3.49894 2.73155 2.71584 3.51917 1.74947 3.51917C0.783095 3.51917 0 2.73155 0 1.75959C0 0.787624 0.783095 0 1.74947 0C2.71584 0 3.49894 0.787624 3.49894 1.75959Z" transform="translate(20.32391 32.09004)" id="Stroke-19" fill="none" fill-rule="evenodd" stroke="#012169" stroke-width="1.3509406" stroke-linecap="round" stroke-linejoin="round" />
      <path d="M3.49894 1.75959C3.49894 2.73155 2.71584 3.51917 1.74947 3.51917C0.783546 3.51917 0 2.73155 0 1.75959C0 0.787624 0.783546 0 1.74947 0C2.71584 0 3.49894 0.787624 3.49894 1.75959Z" transform="translate(26.321817 27.816713)" id="Stroke-21" fill="none" fill-rule="evenodd" stroke="#012169" stroke-width="1.3509406" stroke-linecap="round" stroke-linejoin="round" />
    </g>
  </g>
</svg>