<?xml version="1.0" encoding="utf-8"?>
<svg width="112px" height="112px" viewBox="0 0 112 112" version="1.1" xmlns:xlink="http://www.w3.org/1999/xlink" xmlns="http://www.w3.org/2000/svg">
  <g id="Zero-Plastic" transform="translate(0.765625 0.7651367)">
    <g id="Group-12-Copy-3">
      <path d="M55 110C85.3757 110 110 85.3757 110 55C110 24.6243 85.3757 0 55 0C24.6243 0 0 24.6243 0 55C0 85.3757 24.6243 110 55 110Z" id="Oval-Copy-4" fill="#FFFFFF" fill-rule="evenodd" stroke="none" />
    </g>
    <g id="Group-13" transform="translate(22 24)">
      <path d="M17.9775 29.7343C7.21567 30.6648 -5.52098 19.9357 2.54616 0C14.1776 6.66208 20.9321 18.615 17.9775 29.7343Z" transform="translate(0 28.291351)" id="Stroke-1" fill="none" fill-rule="evenodd" stroke="#012169" stroke-width="1.5304582" stroke-linecap="round" stroke-linejoin="round" />
      <path d="M0 0C0 0 3.46492 25.6653 26.5815 26.3693" transform="translate(4.9528933 35.630714)" id="Stroke-3" fill="none" fill-rule="evenodd" stroke="#012169" stroke-width="1.5304582" stroke-linecap="round" stroke-linejoin="round" />
      <path d="M17.1171 0C23.5867 8.65627 21.203 25.1454 0.0250085 28.8104C-0.459274 15.4071 6.12035 3.35732 17.1171 0Z" transform="translate(45.714706 32.60413)" id="Stroke-5" fill="none" fill-rule="evenodd" stroke="#012169" stroke-width="1.5304582" stroke-linecap="round" stroke-linejoin="round" />
      <path d="M0 36.5121C0 36.5121 19.9545 20.0209 8.35159 0" transform="translate(50.698418 18.983105)" id="Stroke-7" fill="none" fill-rule="evenodd" stroke="#012169" stroke-width="1.5304582" stroke-linecap="round" stroke-linejoin="round" />
      <path d="M0 9.51028C4.46764 -0.332095 20.0575 -6.17794 33.4614 10.6347C21.9554 17.5115 8.23383 17.5401 0 9.51028Z" transform="translate(18.165611 0)" id="Stroke-9" fill="none" fill-rule="evenodd" stroke="#012169" stroke-width="1.5304582" stroke-linecap="round" stroke-linejoin="round" />
      <path d="M35.9996 2.30776C35.9996 2.30776 11.9501 -7.2571 0 12.5583" transform="translate(8.055873 6.8261333)" id="Stroke-11" fill="none" fill-rule="evenodd" stroke="#012169" stroke-width="1.5304582" stroke-linecap="round" stroke-linejoin="round" />
    </g>
  </g>
</svg>