<svg id="Layer_1" data-name="Layer 1" xmlns="http://www.w3.org/2000/svg" width="6in" height="4.28in" viewBox="0 0 432 308.51"><defs><style>.cls-1{fill:#231f20;}.cls-2{fill:#fff;}.cls-3{fill:#bf2033;}.cls-4{fill:#212f64;}</style></defs><title>made-in-usa</title><path class="cls-1" d="M144,469h10.56l11.7,18.83L178,469h10.56v44.53h-9.74V484.49l-12.53,19H166L153.6,484.68v28.88H144Z" transform="translate(-144 -205.74)"/><path class="cls-1" d="M213.14,468.71h9l19.08,44.85H231l-4.07-10H208.11l-4.07,10h-10Zm10.3,26.21-5.91-14.44-5.92,14.44Z" transform="translate(-144 -205.74)"/><path class="cls-1" d="M246.78,469h17.37c14,0,23.66,9.6,23.66,22.14v.12c0,12.53-9.67,22.27-23.66,22.27H246.78Zm9.8,8.84v26.85h7.57c8,0,13.42-5.41,13.42-13.3v-.13c0-7.88-5.41-13.42-13.42-13.42Z" transform="translate(-144 -205.74)"/><path class="cls-1" d="M295.57,469h33.59v8.71H305.3v9h21v8.71h-21v9.35h24.18v8.72H295.57Z" transform="translate(-144 -205.74)"/><path class="cls-1" d="M357.72,469h9.8v44.53h-9.8Z" transform="translate(-144 -205.74)"/><path class="cls-1" d="M377.74,469h9l20.86,27.42V469h9.67v44.53H409l-21.57-28.31v28.31h-9.67Z" transform="translate(-144 -205.74)"/><path class="cls-1" d="M446.38,494.47V469h9.8v25.19c0,7.25,3.62,11,9.6,11s9.61-3.62,9.61-10.68V469h9.79v25.13c0,13.48-7.57,20.1-19.53,20.1S446.38,507.58,446.38,494.47Z" transform="translate(-144 -205.74)"/><path class="cls-1" d="M491.1,507.07l5.79-6.93c4,3.3,8.2,5.4,13.29,5.4,4,0,6.43-1.59,6.43-4.2v-.12c0-2.48-1.53-3.76-9-5.66-9-2.3-14.76-4.78-14.76-13.62v-.12c0-8.08,6.49-13.43,15.58-13.43A25.79,25.79,0,0,1,525,474.05l-5.09,7.38C516,478.7,512.09,477,508.34,477s-5.73,1.72-5.73,3.89v.12c0,2.93,1.91,3.88,9.61,5.85,9,2.36,14.12,5.6,14.12,13.36v.13c0,8.84-6.74,13.8-16.35,13.8A28.33,28.33,0,0,1,491.1,507.07Z" transform="translate(-144 -205.74)"/><path class="cls-1" d="M547.88,468.71h9L576,513.56H565.76l-4.07-10H542.86l-4.07,10h-10Zm10.31,26.21-5.92-14.44-5.91,14.44Z" transform="translate(-144 -205.74)"/><polygon class="cls-2" points="432 14.21 263.18 98.1 263.18 98.1 0 228.88 0 228.96 64.48 228.96 432 46.33 432 14.21"/><polygon class="cls-2" points="249.52 70.62 391.63 0 326.99 0 236.72 44.86 249.52 70.62"/><polygon class="cls-2" points="432 80.6 133.45 228.96 207.54 228.96 432 117.42 432 80.6"/><polygon class="cls-2" points="432 151.69 276.51 228.96 353.45 228.96 432 189.92 432 151.69"/><polygon class="cls-2" points="258.02 0 214.43 0 223.06 17.37 258.02 0"/><polygon class="cls-3" points="236.72 44.86 326.99 0 258.02 0 223.06 17.37 236.72 44.86"/><polygon class="cls-3" points="263.18 98.1 263.18 98.1 263.18 98.1 432 14.21 432 0 391.63 0 249.52 70.62 263.18 98.1"/><polygon class="cls-3" points="432 46.33 64.48 228.96 133.45 228.96 432 80.6 432 46.33"/><polygon class="cls-3" points="432 117.42 207.54 228.96 276.51 228.96 432 151.69 432 117.42"/><polygon class="cls-4" points="0 129.2 0 131.74 0.3 131.58 0 129.2"/><path class="cls-4" d="M407.18,303.85l-13.66-27.49-12.8-25.76-13.66-27.48-8.63-17.38H277.2l-1.8,3.63,5.3,5.63L273,213.87l-3.72,6.79L268,213l-7.6-1.44,6.86-3.59-.29-2.26H247.44l3.43,3.65-7.65-1.13-3.72,6.79-1.29-7.63L230.6,206l.45-.24H144v63.54l6.35-3-3.44,6.93,5.3,5.63-7.65-1.13-.56,1v51.57l4.85,4.75,7-3.3-3.44,6.93,5.3,5.64-7.65-1.13L146.34,350l-1.29-7.63-1.05-.2v60.21l5-2.6-1-7.68,5.53,5.42,7-3.3-3.44,6.93,5.3,5.63-7.65-1.13L151,412.42l-1.29-7.63L144,403.7v30.93L407.18,303.85ZM326.8,214.59l5.53,5.41,7-3.3-3.44,6.93,5.3,5.64-7.66-1.14-3.72,6.79-1.29-7.63-7.6-1.44,6.86-3.59Zm-6.64,35.35,7-3.31-3.44,6.93,5.3,5.64-7.65-1.13-3.72,6.78-1.29-7.63-7.6-1.44,6.85-3.58-1-7.68ZM297,209l5.53,5.41,7-3.3L306.06,218l5.3,5.64-7.65-1.14L300,229.31l-1.29-7.63-7.61-1.44,6.86-3.59Zm-12,34.56-1-7.67,5.52,5.41,7-3.3-3.44,6.93,5.3,5.64-7.65-1.13L287,256.2l-1.29-7.63-7.61-1.44ZM271.81,265.8l5.53,5.42,7-3.3-3.44,6.93,5.31,5.63-7.66-1.13-3.72,6.78-1.29-7.63-7.6-1.44,6.86-3.58Zm-16.69-27.86-1-7.68,5.52,5.41,7-3.3-3.44,6.93,5.3,5.64-7.65-1.13-3.72,6.78L255.87,243l-7.6-1.44Zm-13,26.89-1-7.68,5.52,5.42,7-3.31-3.44,6.93,5.3,5.64-7.65-1.13-3.72,6.78-1.29-7.63-7.6-1.44ZM229,287.09l5.53,5.41,7-3.3-3.45,6.93,5.31,5.63-7.66-1.13L232,307.42l-1.29-7.63-7.6-1.45,6.86-3.58Zm-5.5-65.48L229,227l7-3.3-3.44,6.93,5.3,5.64-7.65-1.13-3.72,6.78-1.29-7.63-7.61-1.44,6.86-3.59Zm-12.16,29.93,5.53,5.42,7-3.3-3.44,6.93,5.3,5.63-7.65-1.13-3.72,6.78L213,264.24l-7.6-1.44,6.86-3.58Zm-42.83,21.28,5.53,5.42,7-3.3-3.45,6.93,5.31,5.63-7.66-1.13-3.72,6.79-1.29-7.63-7.6-1.45,6.86-3.58ZM187.13,316l-1-7.67,5.53,5.41,7-3.3-3.44,6.93,5.3,5.64-7.65-1.14-3.73,6.79-1.29-7.63-7.6-1.44ZM200,291.14l-7.6-1.45,6.86-3.58-1-7.68,5.53,5.42,7-3.3-3.44,6.93,5.3,5.63L205.05,292l-3.72,6.78ZM193.66,216l5.52,5.41,7-3.3L202.74,225l5.3,5.64-7.65-1.13-3.72,6.78-1.29-7.63-7.6-1.44,6.85-3.59Zm-7.48,32.31,7-3.31-3.44,6.93,5.3,5.64-7.65-1.13-3.72,6.78-1.29-7.63-7.6-1.44,6.85-3.58-1-7.68Zm-23.19-41,5.53,5.41,7-3.3-3.44,6.93,5.3,5.64-7.65-1.14L166,227.68l-1.29-7.63-7.61-1.44L164,215Zm-18,41.19,6.86-3.58-1-7.68,5.53,5.42,7-3.31-3.44,6.93,5.3,5.64-7.65-1.13-3.72,6.78L152.55,250Zm12.26,63.88-7.6-1.44,6.86-3.59-1-7.67,5.53,5.41,7-3.3-3.45,6.93,5.31,5.63-7.66-1.13-3.72,6.79Zm10.51,66.32L164,385.52l-1.29-7.63-7.6-1.44,6.86-3.58-1-7.68,5.53,5.42,7-3.3-3.44,6.93,5.3,5.63Zm8.44-23.15L174.88,348l-7.61-1.44,6.86-3.58-1-7.68,5.53,5.41,7-3.3-3.44,6.93,5.3,5.64-7.65-1.13Zm21.39,28.76-3.72,6.78-1.29-7.63-7.6-1.44,6.85-3.58-1-7.68,5.52,5.42,7-3.3-3.44,6.93,5.3,5.63Zm13-26.89-3.72,6.78-1.29-7.63-7.6-1.44,6.85-3.58-1-7.68,5.52,5.42,7-3.31L212.9,353l5.3,5.64ZM219,334.31l-1.29-7.63-7.6-1.44,6.86-3.59L216,314l5.53,5.41,7-3.3L225.07,323l5.3,5.64-7.66-1.14Zm21.39,28.76-3.73,6.78-1.28-7.63-7.61-1.44,6.86-3.58-1-7.68,5.53,5.41,7-3.3-3.44,6.93,5.3,5.64Zm13-26.89L249.65,343l-1.28-7.63-7.61-1.44,6.86-3.59-1-7.67,5.53,5.41,7-3.3-3.44,6.93,5.3,5.64ZM261.82,313l-1.29-7.63-7.6-1.45,6.86-3.58-1-7.68,5.53,5.42,7-3.3-3.44,6.93,5.31,5.63-7.66-1.13Zm21.38,28.75-3.72,6.79-1.29-7.63-7.6-1.44,6.86-3.59-1-7.67,5.53,5.41,7-3.3-3.44,6.93,5.3,5.64Zm13-26.89-3.72,6.79-1.29-7.63-7.6-1.44,6.86-3.59-1-7.67,5.53,5.41,7-3.3-3.44,6.93,5.3,5.63Zm8.45-23.15-1.29-7.63-7.6-1.44,6.85-3.58-1-7.68,5.52,5.42,7-3.3-3.44,6.93,5.3,5.63L308.37,285ZM326,320.5l-3.72,6.79L321,319.66l-7.6-1.44,6.86-3.59-1-7.67,5.53,5.41,7-3.3L328.38,316l5.31,5.63Zm13-26.89-3.72,6.78L334,292.77l-7.6-1.45,6.86-3.58-1-7.68,5.53,5.42,7-3.3-3.44,6.93,5.31,5.63Zm8.45-23.15-1.29-7.63-7.6-1.44,6.85-3.58-1-7.68,5.52,5.41,7-3.3-3.44,6.93,5.3,5.64-7.65-1.13Zm21.38,28.76L365.14,306l-1.29-7.62-7.6-1.45,6.85-3.58-1-7.68,5.52,5.42,7-3.3-3.44,6.93,5.3,5.63Z" transform="translate(-144 -205.74)"/><polygon class="cls-2" points="7 206.67 10.72 199.89 18.37 201.02 13.07 195.38 16.51 188.45 9.52 191.76 3.99 186.34 4.96 194.02 0 196.61 0 197.96 5.71 199.04 7 206.67"/><polygon class="cls-2" points="59.34 167.17 52.34 170.47 46.82 165.06 47.79 172.73 40.94 176.32 48.54 177.76 49.83 185.39 53.55 178.6 61.2 179.74 55.9 174.1 59.34 167.17"/><polygon class="cls-2" points="102.17 145.89 95.17 149.19 89.64 143.78 90.62 151.45 83.76 155.04 91.36 156.48 92.65 164.11 96.38 157.32 104.03 158.46 98.73 152.82 102.17 145.89"/><polygon class="cls-2" points="145 124.61 138 127.91 132.47 122.49 133.45 130.17 126.59 133.75 134.19 135.2 135.48 142.82 139.2 136.04 146.86 137.17 141.56 131.54 145 124.61"/><polygon class="cls-2" points="187.82 103.33 180.83 106.63 175.3 101.21 176.28 108.89 169.42 112.47 177.02 113.91 178.31 121.54 182.03 114.76 189.69 115.89 184.38 110.25 187.82 103.33"/><polygon class="cls-2" points="230.65 82.04 223.66 85.34 218.13 79.93 219.1 87.61 212.25 91.19 219.85 92.63 221.14 100.26 224.86 93.48 232.51 94.61 227.21 88.97 230.65 82.04"/><polygon class="cls-2" points="29.51 161.56 22.52 164.86 16.99 159.45 17.96 167.13 11.11 170.71 18.71 172.15 20 179.78 23.72 173 31.37 174.13 26.07 168.49 29.51 161.56"/><polygon class="cls-2" points="72.34 140.28 65.34 143.58 59.82 138.17 60.79 145.84 53.94 149.43 61.54 150.87 62.83 158.5 66.55 151.71 74.2 152.84 68.9 147.21 72.34 140.28"/><polygon class="cls-2" points="115.17 119 108.17 122.3 102.64 116.88 103.62 124.56 96.76 128.14 104.36 129.59 105.65 137.22 109.38 130.43 117.03 131.56 111.73 125.93 115.17 119"/><polygon class="cls-2" points="158 97.72 151 101.02 145.47 95.6 146.45 103.28 139.59 106.86 147.19 108.3 148.48 115.93 152.2 109.15 159.86 110.28 154.56 104.64 158 97.72"/><polygon class="cls-2" points="200.82 76.43 193.83 79.73 188.3 74.32 189.28 82 182.42 85.58 190.02 87.02 191.31 94.65 195.03 87.87 202.69 89 197.38 83.36 200.82 76.43"/><polygon class="cls-2" points="38.24 138.56 41.68 131.63 34.68 134.93 29.15 129.52 30.13 137.19 23.27 140.78 30.88 142.22 32.16 149.85 35.88 143.06 43.54 144.19 38.24 138.56"/><polygon class="cls-2" points="81.06 117.28 84.51 110.35 77.51 113.65 71.98 108.23 72.96 115.91 66.1 119.49 73.7 120.94 74.99 128.56 78.71 121.78 86.37 122.91 81.06 117.28"/><polygon class="cls-2" points="123.89 95.99 127.33 89.06 120.34 92.36 114.81 86.95 115.79 94.63 108.93 98.21 116.53 99.65 117.82 107.28 121.54 100.5 129.19 101.63 123.89 95.99"/><polygon class="cls-2" points="166.72 74.71 170.16 67.78 163.16 71.08 157.64 65.67 158.62 73.34 151.76 76.93 159.36 78.37 160.65 86 164.37 79.22 172.02 80.35 166.72 74.71"/><polygon class="cls-2" points="209.55 53.43 212.99 46.5 205.99 49.8 200.47 44.39 201.44 52.06 194.59 55.65 202.19 57.09 203.48 64.72 207.2 57.93 214.85 59.06 209.55 53.43"/><polygon class="cls-2" points="2.34 144.24 6.06 137.45 13.71 138.58 8.41 132.95 11.85 126.02 4.85 129.32 0 124.57 0 129.2 0.3 131.58 0 131.74 0 136.41 1.05 136.61 2.34 144.24"/><polygon class="cls-2" points="45.16 122.95 48.88 116.17 56.54 117.3 51.24 111.67 54.68 104.74 47.68 108.04 42.15 102.62 43.13 110.3 36.27 113.88 43.88 115.33 45.16 122.95"/><polygon class="cls-2" points="86.7 94.04 87.99 101.67 91.71 94.89 99.37 96.02 94.06 90.38 97.51 83.45 90.51 86.76 84.98 81.34 85.96 89.02 79.1 92.6 86.7 94.04"/><polygon class="cls-2" points="129.53 72.76 130.82 80.39 134.54 73.61 142.19 74.74 136.89 69.1 140.33 62.17 133.34 65.47 127.81 60.06 128.79 67.73 121.93 71.32 129.53 72.76"/><polygon class="cls-2" points="164.76 50.04 172.36 51.48 173.65 59.11 177.37 52.32 185.02 53.45 179.72 47.82 183.16 40.89 176.16 44.19 170.64 38.78 171.61 46.45 164.76 50.04"/><polygon class="cls-2" points="18.22 107.52 25.88 108.65 20.57 103.02 24.02 96.08 17.02 99.39 11.49 93.97 12.47 101.65 5.61 105.23 13.21 106.67 14.5 114.3 18.22 107.52"/><polygon class="cls-2" points="61.05 86.24 68.7 87.37 63.4 81.73 66.84 74.8 59.85 78.1 54.32 72.69 55.3 80.37 48.44 83.95 56.04 85.39 57.33 93.02 61.05 86.24"/><polygon class="cls-2" points="98.87 64.11 100.16 71.74 103.88 64.95 111.53 66.09 106.23 60.45 109.67 53.52 102.67 56.82 97.15 51.41 98.12 59.08 91.27 62.67 98.87 64.11"/><polygon class="cls-2" points="142.99 50.46 146.71 43.67 154.36 44.8 149.06 39.17 152.5 32.24 145.5 35.54 139.97 30.13 140.95 37.8 134.09 41.38 141.7 42.83 142.99 50.46"/><polygon class="cls-2" points="184.52 21.55 185.81 29.17 189.53 22.39 197.19 23.52 191.89 17.89 195.33 10.96 188.33 14.26 182.8 8.84 183.78 16.52 176.92 20.1 184.52 21.55"/><polygon class="cls-2" points="26.21 79.78 27.5 87.41 31.22 80.63 38.88 81.76 33.58 76.12 37.02 69.19 30.02 72.5 24.49 67.08 25.47 74.76 18.61 78.34 26.21 79.78"/><polygon class="cls-2" points="69.04 58.5 70.33 66.13 74.05 59.34 81.7 60.48 76.4 54.84 79.84 47.91 72.85 51.21 67.32 45.8 68.3 53.47 61.44 57.06 69.04 58.5"/><polygon class="cls-2" points="113.16 44.85 116.88 38.06 124.53 39.19 119.23 33.56 122.67 26.63 115.67 29.93 110.15 24.52 111.12 32.19 104.27 35.77 111.87 37.22 113.16 44.85"/><polygon class="cls-2" points="154.7 15.94 155.99 23.56 159.71 16.78 167.36 17.91 162.06 12.28 165.5 5.35 158.5 8.65 152.97 3.23 153.95 10.91 147.09 14.49 154.7 15.94"/><polygon class="cls-2" points="8.21 73.11 2.91 67.47 6.35 60.54 0 63.54 0 73 0.56 71.98 8.21 73.11"/><polygon class="cls-2" points="30.78 48.41 38.38 49.85 39.67 57.48 43.39 50.69 51.04 51.83 45.74 46.19 49.18 39.26 42.18 42.56 36.66 37.15 37.63 44.82 30.78 48.41"/><polygon class="cls-2" points="81.21 28.57 82.5 36.2 86.22 29.41 93.87 30.54 88.57 24.91 92.01 17.98 85.01 21.28 79.48 15.87 80.46 23.54 73.6 27.12 81.21 28.57"/><polygon class="cls-2" points="116.43 5.84 124.03 7.28 125.32 14.91 129.04 8.13 136.7 9.26 131.4 3.63 133.2 0 123 0 123.29 2.26 116.43 5.84"/><polygon class="cls-2" points="9.84 51.87 13.56 45.08 21.21 46.22 15.91 40.58 19.35 33.65 12.36 36.95 6.83 31.54 7.81 39.21 0.95 42.8 8.55 44.24 9.84 51.87"/><polygon class="cls-2" points="51.38 22.96 52.67 30.59 56.39 23.8 64.04 24.93 58.74 19.3 62.18 12.37 55.18 15.67 49.66 10.26 50.63 17.93 43.78 21.51 51.38 22.96"/><polygon class="cls-2" points="94.21 1.67 95.5 9.3 99.22 2.52 106.87 3.65 103.44 0 87.05 0 86.6 0.23 94.21 1.67"/><polygon class="cls-2" points="20.72 14.3 22 21.93 25.73 15.15 33.38 16.28 28.08 10.65 31.52 3.72 24.52 7.02 18.99 1.6 19.97 9.28 13.11 12.86 20.72 14.3"/><polygon class="cls-3" points="353.45 228.96 396.31 228.96 422.42 228.96 432 228.96 432 224.2 432 214.24 432 189.92 353.45 228.96"/></svg>