<?xml version="1.0" encoding="utf-8"?>
<svg width="65px" height="65px" viewBox="0 0 65 65" version="1.1" xmlns:xlink="http://www.w3.org/1999/xlink" xmlns="http://www.w3.org/2000/svg">
  <g id="30-day-icon">
    <path d="M32.5 65C50.4493 65 65 50.4493 65 32.5C65 14.5507 50.4493 0 32.5 0C14.5507 0 0 14.5507 0 32.5C0 50.4493 14.5507 65 32.5 65Z" id="Oval" fill="none" fill-rule="evenodd" stroke="#000000" stroke-width="1" />
    <g id="003-agenda" transform="translate(17 17)">
      <path d="M26.875 27.5L3.125 27.5C1.4025 27.5 0 26.0975 0 24.375L0 3.125C0 1.4025 1.4025 0 3.125 0L26.875 0C28.5975 0 30 1.4025 30 3.125L30 24.375C30 26.0975 28.5975 27.5 26.875 27.5ZM3.125 1.25C2.09125 1.25 1.25 2.09125 1.25 3.125L1.25 24.375C1.25 25.4088 2.09125 26.25 3.125 26.25L26.875 26.25C27.9088 26.25 28.75 25.4088 28.75 24.375L28.75 3.125C28.75 2.09125 27.9088 1.25 26.875 1.25L3.125 1.25Z" transform="translate(0 2.5)" id="Shape" fill="#000000" stroke="none" />
      <path d="M29.375 1.25L0.625 1.25C0.28 1.25 0 0.97 0 0.625C0 0.28 0.28 0 0.625 0L29.375 0C29.72 0 30 0.28 30 0.625C30 0.97 29.72 1.25 29.375 1.25Z" transform="translate(0 10)" id="Path" fill="#000000" fill-rule="evenodd" stroke="none" />
      <path d="M0.625 6.25C0.28 6.25 0 5.97 0 5.625L0 0.625C0 0.28 0.28 0 0.625 0C0.97 0 1.25 0.28 1.25 0.625L1.25 5.625C1.25 5.97 0.97 6.25 0.625 6.25Z" transform="translate(6.25 0)" id="Path" fill="#000000" fill-rule="evenodd" stroke="none" />
      <path d="M0.625 6.25C0.28 6.25 0 5.97 0 5.625L0 0.625C0 0.28 0.28 0 0.625 0C0.97 0 1.25 0.28 1.25 0.625L1.25 5.625C1.25 5.97 0.97 6.25 0.625 6.25Z" transform="translate(22.5 0)" id="Path" fill="#000000" fill-rule="evenodd" stroke="none" />
    </g>
  </g>
</svg>