<svg id="ccs" xmlns="http://www.w3.org/2000/svg" width="142.495" height="20.827" viewBox="0 0 142.495 20.827">
  <g id="Group_12" data-name="Group 12" transform="translate(36.188)">
    <path id="Path_1" data-name="Path 1" d="M72.073,0H44.3a2.557,2.557,0,0,0-2.6,2.6V18.224a2.611,2.611,0,0,0,2.6,2.6h27.77a2.557,2.557,0,0,0,2.6-2.6V2.6A2.611,2.611,0,0,0,72.073,0Z" transform="translate(-41.7)" opacity="0.07"/>
    <path id="Path_2" data-name="Path 2" d="M72.206,1a1.741,1.741,0,0,1,1.736,1.736V18.356a1.741,1.741,0,0,1-1.736,1.736H44.436A1.741,1.741,0,0,1,42.7,18.356V2.736A1.741,1.741,0,0,1,44.436,1h27.77" transform="translate(-41.832 -0.132)" fill="#fff"/>
    <circle id="Ellipse_3" data-name="Ellipse 3" cx="6.075" cy="6.075" r="6.075" transform="translate(6.942 4.339)" fill="#eb001b"/>
    <circle id="Ellipse_4" data-name="Ellipse 4" cx="6.075" cy="6.075" r="6.075" transform="translate(13.885 4.339)" fill="#f79e1b"/>
    <path id="Path_3" data-name="Path 3" d="M62.907,11.247A5.924,5.924,0,0,0,60.3,6.3a6.165,6.165,0,0,0-2.6,4.947,6.042,6.042,0,0,0,2.6,4.947A5.925,5.925,0,0,0,62.907,11.247Z" transform="translate(-43.815 -0.833)" fill="#ff5f00"/>
  </g>
  <g id="Group_13" data-name="Group 13">
    <path id="Path_4" data-name="Path 4" d="M30.373,0H2.6A2.557,2.557,0,0,0,0,2.6V18.224a2.611,2.611,0,0,0,2.6,2.6h27.77a2.557,2.557,0,0,0,2.6-2.6V2.6A2.611,2.611,0,0,0,30.373,0Z" opacity="0.07"/>
    <path id="Path_5" data-name="Path 5" d="M30.506,1a1.741,1.741,0,0,1,1.736,1.736V18.356a1.741,1.741,0,0,1-1.736,1.736H2.736A1.741,1.741,0,0,1,1,18.356V2.736A1.741,1.741,0,0,1,2.736,1h27.77" transform="translate(-0.132 -0.132)" fill="#fff"/>
    <path id="Path_6" data-name="Path 6" d="M25.22,9.822h-.26a11.35,11.35,0,0,0-.868,2.6h1.649A19.187,19.187,0,0,0,25.22,9.822Zm2.517,5.12H26.261c-.087,0-.087,0-.174-.087l-.174-.781-.087-.174H23.745c-.087,0-.174,0-.174.174l-.26.781a.085.085,0,0,1-.087.087H21.4l.174-.434,2.517-5.9c0-.434.26-.607.694-.607h1.3c.087,0,.174,0,.174.174l1.215,5.641a3.691,3.691,0,0,1,.174.955C27.737,14.856,27.737,14.856,27.737,14.942Zm-11.629-.26.347-1.562a.3.3,0,0,1,.174.087,3.426,3.426,0,0,0,1.822.347,1.609,1.609,0,0,0,.607-.174c.434-.174.434-.607.087-.955a4.844,4.844,0,0,0-.694-.434,3.584,3.584,0,0,1-.955-.607,1.773,1.773,0,0,1-.087-2.69C17.93,8.347,18.191,8,18.885,8a11.524,11.524,0,0,1,2.69.174h.087a9.079,9.079,0,0,1-.347,1.475,3.637,3.637,0,0,0-1.3-.347,2.4,2.4,0,0,0-.781.087.451.451,0,0,0-.347.174.419.419,0,0,0,0,.607l.434.347a9.466,9.466,0,0,1,.955.521,1.916,1.916,0,0,1,.955,1.215,1.864,1.864,0,0,1-.781,2,1.576,1.576,0,0,1-1.215.521,10.144,10.144,0,0,1-2.951-.174C16.195,14.769,16.195,14.769,16.108,14.682Zm-3.037.26a3.531,3.531,0,0,1,.174-.868c.434-1.909.868-3.905,1.215-5.814.087-.174.087-.26.26-.26h1.562a26.082,26.082,0,0,1-.607,2.777c-.26,1.3-.521,2.6-.868,3.905,0,.174-.087.174-.26.174M5,8.174C5,8.087,5.174,8,5.26,8H8.211a.845.845,0,0,1,.868.694l.781,3.818c0,.087,0,.087.087.174a.085.085,0,0,1,.087-.087l1.822-4.426c-.087-.087,0-.174.087-.174h1.822c0,.087,0,.087-.087.174l-2.69,6.335c-.087.174-.087.26-.174.347s-.26,0-.434,0h-1.3c-.087,0-.174,0-.174-.174L7.517,9.3a1.765,1.765,0,0,0-.781-.521,5.776,5.776,0,0,0-1.649-.434Z" transform="translate(-0.661 -1.058)" fill="#142688"/>
  </g>
  <g id="Group_14" data-name="Group 14" transform="translate(72.809)">
    <path id="Path_7" data-name="Path 7" d="M114.273,0H86.5a2.557,2.557,0,0,0-2.6,2.6V18.224a2.611,2.611,0,0,0,2.6,2.6h27.77a2.557,2.557,0,0,0,2.6-2.6V2.6A2.611,2.611,0,0,0,114.273,0Z" transform="translate(-83.9)" opacity="0.07"/>
    <path id="Path_8" data-name="Path 8" d="M114.406,1a1.741,1.741,0,0,1,1.736,1.736V18.356a1.741,1.741,0,0,1-1.736,1.736H86.636A1.741,1.741,0,0,1,84.9,18.356V2.736A1.741,1.741,0,0,1,86.636,1h27.77" transform="translate(-84.032 -0.132)" fill="#006fcf"/>
    <path id="Path_9" data-name="Path 9" d="M92.252,10l.694,1.649h-1.3Zm13.972,0h-2.6v.694h2.517v1.041h-2.517v.781h2.6v.607l1.822-1.909L106.224,9.3V10ZM93.988,8h3.471l.781,1.649L98.934,8h9.025l.955,1.041L109.869,8h4.165L111,11.384l3.037,3.3h-4.165l-.955-1.041-.955,1.041H93.207l-.434-1.041h-.955l-.434,1.041H88L90.777,8h3.211Zm7.55.955H99.629l-1.3,3.037L96.938,8.955h-2V13.12L93.12,8.955H91.384L89.3,13.728H90.69l.434-1.041H93.38l.434,1.041h2.343V10.343l1.562,3.384h1.041l1.475-3.384v3.384h1.3V8.955Zm8.071,2.43,2.17-2.43h-1.562l-1.388,1.475-1.3-1.475h-5.12v4.773h5.033l1.388-1.475,1.3,1.475h1.649l-2.17-2.343Z" transform="translate(-84.442 -1.058)" fill="#fff"/>
  </g>
  <g id="Group_15" data-name="Group 15" transform="translate(109.518)">
    <path id="Path_10" data-name="Path 10" d="M156.573,0H128.8a2.557,2.557,0,0,0-2.6,2.6V18.224a2.611,2.611,0,0,0,2.6,2.6h27.77a2.557,2.557,0,0,0,2.6-2.6V2.6A2.611,2.611,0,0,0,156.573,0Z" transform="translate(-126.2)" opacity="0.07"/>
    <path id="Path_11" data-name="Path 11" d="M156.706,1a1.741,1.741,0,0,1,1.736,1.736V18.356a1.741,1.741,0,0,1-1.736,1.736h-27.77a1.741,1.741,0,0,1-1.736-1.736V2.736A1.741,1.741,0,0,1,128.936,1h27.77" transform="translate(-126.332 -0.132)" fill="#fff"/>
    <path id="Path_12" data-name="Path 12" d="M161.376,17v3.471a1.741,1.741,0,0,1-1.736,1.736H149.4C156.256,20.645,159.814,18.215,161.376,17Z" transform="translate(-129.267 -2.247)" fill="#eda024"/>
    <path id="Path_13" data-name="Path 13" d="M135.2,11h17.356v1.736H135.2Z" transform="translate(-127.39 -1.454)" fill="#494949"/>
    <path id="Path_14" data-name="Path 14" d="M147.407,11.6a2.557,2.557,0,0,1-2.6,2.6,2.611,2.611,0,0,1-2.6-2.6A2.669,2.669,0,0,1,144.8,9,2.557,2.557,0,0,1,147.407,11.6Z" transform="translate(-128.315 -1.19)" fill="#eda024"/>
  </g>
</svg>
