<?xml version="1.0" encoding="utf-8"?>
<!-- Generator: Adobe Illustrator 25.3.1, SVG Export Plug-In . SVG Version: 6.00 Build 0)  -->
<svg version="1.1" id="Layer_1" xmlns="http://www.w3.org/2000/svg" xmlns:xlink="http://www.w3.org/1999/xlink" x="0px" y="0px"
	 viewBox="0 0 68.1 68.7" style="enable-background:new 0 0 68.1 68.7;" xml:space="preserve">
<style type="text/css">
	.st0{fill:#ADADAD;}
</style>
<path class="st0" d="M68,27.7c-1.2-7.2-2.5-14.4-3.7-21.5c-0.2-1.1-0.8-1.8-1.9-2c-5.5-0.9-11.1-1.8-16.6-2.8
	c-2.1-0.4-4.3-0.4-6.4-1.3c-0.1,0-0.2,0-0.3,0c-0.8,0.8-1.7,1.5-2.5,2.3c-2.7,2.7-5.3,5.3-8,8c-9.2,9.2-18.4,18.4-27.6,27.7
	c-1.3,1.3-1.4,2.1-0.3,3.2c9.2,9.2,18.4,18.4,27.6,27.6c0.2,0,0.4,0,0.6,0c0.5-0.5,1.1-0.9,1.6-1.4c12.1-12.1,24.1-24.2,36.2-36.3
	C67.9,30,68.2,29,68,27.7z M48.6,26.8c-3.9,0-7-3.1-7-7c0-3.8,3-6.9,6.9-6.9c3.9,0,7,3,7,6.9C55.5,23.6,52.4,26.8,48.6,26.8z"/>
</svg>
