<?xml version="1.0" encoding="utf-8"?>
<svg width="65px" height="65px" viewBox="0 0 65 65" version="1.1" xmlns:xlink="http://www.w3.org/1999/xlink" xmlns="http://www.w3.org/2000/svg">
  <g id="shippign-icon">
    <path d="M32.5 65C50.4493 65 65 50.4493 65 32.5C65 14.5507 50.4493 0 32.5 0C14.5507 0 0 14.5507 0 32.5C0 50.4493 14.5507 65 32.5 65Z" id="Oval-Copy" fill="none" fill-rule="evenodd" stroke="#000000" stroke-width="1" />
    <g id="006-truck" transform="translate(18 21)">
      <path d="M3.30001 0C1.48004 0 0 1.50194 0 3.34883C0 5.19572 1.48004 6.69766 3.30001 6.69766C5.11997 6.69766 6.60001 5.19572 6.60001 3.34883C6.60001 1.50194 5.11991 0 3.30001 0ZM3.30008 5.5814C2.08675 5.5814 1.1001 4.58008 1.1001 3.34887C1.1001 2.11758 2.08681 1.11633 3.30008 1.11633C4.51335 1.11633 5.50006 2.11765 5.50006 3.34887C5.50006 4.58008 4.51335 5.5814 3.30008 5.5814Z" transform="translate(4.4001465 17.302368)" id="Shape" fill="#000000" stroke="none" />
      <path d="M3.30001 0C1.48004 0 0 1.50194 0 3.34883C0 5.19572 1.48004 6.69766 3.30001 6.69766C5.11997 6.69766 6.60001 5.19572 6.60001 3.34883C6.60001 1.50194 5.11997 0 3.30001 0ZM3.30008 5.5814C2.08675 5.5814 1.1001 4.58008 1.1001 3.34887C1.1001 2.11758 2.08681 1.11633 3.30008 1.11633C4.51341 1.11633 5.50006 2.11765 5.50006 3.34887C5.50006 4.58008 4.51341 5.5814 3.30008 5.5814Z" transform="translate(23.100098 17.302368)" id="Shape" fill="#000000" stroke="none" />
      <path d="M12.0125 8.07016L7.06253 0.256199C6.96134 0.0965405 6.78699 0 6.59995 0L0.54998 0C0.245825 0 0 0.25005 0 0.558117L0 14.5116C0 14.8202 0.245825 15.0697 0.54998 15.0697L2.74996 15.0697L2.74996 13.9534L1.09996 13.9534L1.09996 1.1163L6.29966 1.1163L11 8.53618L11 13.9535L8.24995 13.9535L8.24995 15.0697L11.55 15.0697C11.8541 15.0697 12.0999 14.8203 12.0999 14.5116L12.0999 8.37208C12.1 8.26546 12.0698 8.15996 12.0125 8.07016Z" transform="translate(20.900146 6.1395264)" id="Path" fill="#000000" fill-rule="evenodd" stroke="none" />
      <path d="M1.09996 5.02325L1.09996 1.1163L5.49999 1.1163L5.49999 0L0.54998 0C0.245825 0 0 0.25005 0 0.558117L0 5.58136C0 5.89002 0.245825 6.13948 0.54998 6.13948L8.8 6.13948L8.8 5.02318L1.09996 5.02318L1.09996 5.02325Z" transform="translate(23.100098 8.37207)" id="Path" fill="#000000" fill-rule="evenodd" stroke="none" />
      <path d="M21.45 0L0.54998 0C0.246405 0 0 0.25005 0 0.558117L0 18.4186C0 18.7272 0.246405 18.9767 0.54998 18.9767L4.95001 18.9767L4.95001 17.8604L1.10002 17.8604L1.10002 1.11623L20.9001 1.11623L20.9001 17.8604L10.45 17.8604L10.45 18.9767L21.45 18.9767C21.7542 18.9767 22 18.7272 22 18.4186L22 0.558117C22 0.25005 21.7542 0 21.45 0Z" transform="translate(0 2.232544)" id="Path" fill="#000000" fill-rule="evenodd" stroke="none" />
      <path d="M0 0L3.30001 0L3.30001 1.1163L0 1.1163L0 0Z" transform="translate(0.5500488 17.860474)" id="Rectangle" fill="#000000" fill-rule="evenodd" stroke="none" />
      <path d="M0 0L9.35004 0L9.35004 1.1163L0 1.1163L0 0Z" transform="translate(11.550049 17.860474)" id="Rectangle" fill="#000000" fill-rule="evenodd" stroke="none" />
      <path d="M0 0L2.19998 0L2.19998 1.1163L0 1.1163L0 0Z" transform="translate(30.25 17.860474)" id="Rectangle" fill="#000000" fill-rule="evenodd" stroke="none" />
      <path d="M0 0L19.2501 0L19.2501 1.1163L0 1.1163L0 0Z" transform="translate(2.1999512 4.465088)" id="Rectangle" fill="#000000" fill-rule="evenodd" stroke="none" />
      <path d="M0 0L1.10002 0L1.10002 1.1163L0 1.1163L0 0Z" transform="translate(7.1499023 20.093018)" id="Rectangle" fill="#000000" fill-rule="evenodd" stroke="none" />
      <path d="M0 0L1.10002 0L1.10002 1.1163L0 1.1163L0 0Z" transform="translate(25.850098 20.093018)" id="Rectangle" fill="#000000" fill-rule="evenodd" stroke="none" />
      <path d="M0 0L7.70004 0L7.70004 1.1163L0 1.1163L0 0Z" transform="translate(2.1999512 0)" id="Rectangle" fill="#000000" fill-rule="evenodd" stroke="none" />
      <path d="M0 0L1.10002 0L1.10002 1.1163L0 1.1163L0 0Z" id="Rectangle" fill="#000000" fill-rule="evenodd" stroke="none" />
    </g>
  </g>
</svg>