<svg xmlns="http://www.w3.org/2000/svg" width="16.202" height="14.183" viewBox="0 0 16.202 14.183">
  <g id="Group_278" data-name="Group 278" transform="translate(0 0)">
    <g id="Group_277" data-name="Group 277" transform="translate(0 0)">
      <g id="Group_275" data-name="Group 275" transform="translate(0 0.033)">
        <g id="Group_274" data-name="Group 274">
          <path id="Path_437" data-name="Path 437" d="M13.991,35.525a8.734,8.734,0,0,1-1.727-.156A9.862,9.862,0,0,1,6.979,32.55q-1.786-1.8-3.586-3.586a1.982,1.982,0,0,0-.184-.145.3.3,0,0,1,.239-.053c1.269,0,2.539,0,3.808,0a2.3,2.3,0,0,0,2.211-1.6,2.25,2.25,0,0,0-2.187-2.9c-1.436-.006-2.873,0-4.309,0a2.871,2.871,0,0,1-2.94-2.5c-.064-.391-.064-.392.319-.392q3.528,0,7.055,0A5.127,5.127,0,0,1,9.8,30.994c-.175.1-.136.145-.023.257q2.038,2.029,4.071,4.064a1.61,1.61,0,0,0,.193.143Z" transform="translate(0 -21.375)" fill="#575757"/>
        </g>
      </g>
      <g id="Group_276" data-name="Group 276" transform="translate(11.987 0)">
        <path id="Path_438" data-name="Path 438" d="M91.943,21.131h1.393a.326.326,0,0,1,.319.393c-.165.813-.7,2.607-2.156,2.607h-.413a.326.326,0,0,1-.313-.238,5.642,5.642,0,0,0-1.239-2.215.326.326,0,0,1,.239-.547Z" transform="translate(-89.447 -21.131)" fill="#575757"/>
      </g>
    </g>
  </g>
</svg>
