<svg xmlns="http://www.w3.org/2000/svg" xmlns:xlink="http://www.w3.org/1999/xlink" width="21.683" height="26.714" viewBox="0 0 21.683 26.714">
  <defs>
    <clipPath id="clip-path">
      <path id="Path_439" data-name="Path 439" d="M14.9,25.918V14.592l2.507-.951v3.545a.584.584,0,0,0,.346.519h.173c.173,0,.259-.086.432-.173l1.556-1.643.865.519c.173.086.432.173.605,0a.523.523,0,0,0,.259-.519V11.912l2.248-.865V22.373ZM4.61,22.373V11.047l9.164,3.545V25.918ZM7.636,9.4l8.645,3.372-1.988.778L5.648,10.183Zm2.421-.346L9.279,8.8l.432-.173c.173.173.259.346.346.432Zm4.236-7.435a4.151,4.151,0,0,1,4.15,4.15,4.15,4.15,0,1,1-8.3,0A4.151,4.151,0,0,1,14.293,1.624Zm4.323,11.5,1.988-.778v2.421l-.346-.173a.644.644,0,0,0-.778.086l-.865.951ZM16.8,10.529l2.68,1.037-1.556.605-2.767-1.124A5.216,5.216,0,0,0,16.8,10.529Zm6.138-.346-1.9.778-3.112-1.21a5.953,5.953,0,0,0,.951-1.124Zm1.816-.519L19.308,7.589a5.347,5.347,0,1,0-10.115,0L3.746,9.664a.474.474,0,0,0-.346.519V22.719a.584.584,0,0,0,.346.519l10.288,3.977h.346l10.288-3.977a.474.474,0,0,0,.346-.519V10.183C25.187,10.01,25.014,9.751,24.754,9.664Z" transform="translate(-3.4 -0.5)"/>
    </clipPath>
    <clipPath id="clip-path-2">
      <path id="Path_440" data-name="Path 440" d="M14.464,8.666a.645.645,0,0,0,.778,0l2.767-2.421a1.229,1.229,0,0,0,.173-.519.534.534,0,0,0-.951-.259L14.9,7.543l-1.037-.865a.554.554,0,1,0-.692.865Z" transform="translate(-12.961 -5.261)"/>
    </clipPath>
    <clipPath id="clip-path-4">
      <rect id="Rectangle_83" data-name="Rectangle 83" width="757.083" height="734.518"/>
    </clipPath>
    <clipPath id="clip-path-6">
      <rect id="Rectangle_86" data-name="Rectangle 86" width="727.515" height="705.815"/>
    </clipPath>
  </defs>
  <g id="insurance" transform="translate(-3.4 -0.5)">
    <g id="Group_334" data-name="Group 334" transform="translate(3.4 0.5)">
      <g id="Group_324" data-name="Group 324" transform="translate(0 0)">
        <g id="Group_323" data-name="Group 323">
          <g id="Group_316" data-name="Group 316">
            <path id="SVGID_36_" d="M14.9,25.918V14.592l2.507-.951v3.545a.584.584,0,0,0,.346.519h.173c.173,0,.259-.086.432-.173l1.556-1.643.865.519c.173.086.432.173.605,0a.523.523,0,0,0,.259-.519V11.912l2.248-.865V22.373ZM4.61,22.373V11.047l9.164,3.545V25.918ZM7.636,9.4l8.645,3.372-1.988.778L5.648,10.183Zm2.421-.346L9.279,8.8l.432-.173c.173.173.259.346.346.432Zm4.236-7.435a4.151,4.151,0,0,1,4.15,4.15,4.15,4.15,0,1,1-8.3,0A4.151,4.151,0,0,1,14.293,1.624Zm4.323,11.5,1.988-.778v2.421l-.346-.173a.644.644,0,0,0-.778.086l-.865.951ZM16.8,10.529l2.68,1.037-1.556.605-2.767-1.124A5.216,5.216,0,0,0,16.8,10.529Zm6.138-.346-1.9.778-3.112-1.21a5.953,5.953,0,0,0,.951-1.124Zm1.816-.519L19.308,7.589a5.347,5.347,0,1,0-10.115,0L3.746,9.664a.474.474,0,0,0-.346.519V22.719a.584.584,0,0,0,.346.519l10.288,3.977h.346l10.288-3.977a.474.474,0,0,0,.346-.519V10.183C25.187,10.01,25.014,9.751,24.754,9.664Z" transform="translate(-3.4 -0.5)" fill="#515050"/>
          </g>
          <g id="Group_322" data-name="Group 322">
            <path id="Path_441" data-name="Path 441" d="M14.9,25.918V14.592l2.507-.951v3.545a.584.584,0,0,0,.346.519h.173c.173,0,.259-.086.432-.173l1.556-1.643.865.519c.173.086.432.173.605,0a.523.523,0,0,0,.259-.519V11.912l2.248-.865V22.373ZM4.61,22.373V11.047l9.164,3.545V25.918ZM7.636,9.4l8.645,3.372-1.988.778L5.648,10.183Zm2.421-.346L9.279,8.8l.432-.173c.173.173.259.346.346.432Zm4.236-7.435a4.151,4.151,0,0,1,4.15,4.15,4.15,4.15,0,1,1-8.3,0A4.151,4.151,0,0,1,14.293,1.624Zm4.323,11.5,1.988-.778v2.421l-.346-.173a.644.644,0,0,0-.778.086l-.865.951ZM16.8,10.529l2.68,1.037-1.556.605-2.767-1.124A5.216,5.216,0,0,0,16.8,10.529Zm6.138-.346-1.9.778-3.112-1.21a5.953,5.953,0,0,0,.951-1.124Zm1.816-.519L19.308,7.589a5.347,5.347,0,1,0-10.115,0L3.746,9.664a.474.474,0,0,0-.346.519V22.719a.584.584,0,0,0,.346.519l10.288,3.977h.346l10.288-3.977a.474.474,0,0,0,.346-.519V10.183C25.187,10.01,25.014,9.751,24.754,9.664Z" transform="translate(-3.4 -0.5)" fill="#515050"/>
            <g id="Group_321" data-name="Group 321" clip-path="url(#clip-path)">
              <g id="Group_320" data-name="Group 320" transform="translate(-101.065 -462.964)">
                <g id="Group_317" data-name="Group 317" transform="translate(0 0)">
                  <rect id="SVGID_35_" width="757.083" height="734.518" fill="#515050"/>
                </g>
                <g id="Group_319" data-name="Group 319" transform="translate(0 0)">
                  <rect id="Rectangle_81" data-name="Rectangle 81" width="757.083" height="734.518" transform="translate(0 0)" fill="#515050"/>
                  <g id="Group_318" data-name="Group 318" clip-path="url(#clip-path-4)">
                    <rect id="Rectangle_82" data-name="Rectangle 82" width="26.974" height="32.161" transform="translate(98.472 460.284)" fill="#515050"/>
                  </g>
                </g>
              </g>
            </g>
          </g>
        </g>
      </g>
      <g id="Group_333" data-name="Group 333" transform="translate(8.266 4.116)">
        <g id="Group_332" data-name="Group 332">
          <g id="Group_325" data-name="Group 325">
            <path id="SVGID_34_" d="M14.464,8.666a.645.645,0,0,0,.778,0l2.767-2.421a1.229,1.229,0,0,0,.173-.519.534.534,0,0,0-.951-.259L14.9,7.543l-1.037-.865a.554.554,0,1,0-.692.865Z" transform="translate(-12.961 -5.261)" fill="#515050"/>
          </g>
          <g id="Group_331" data-name="Group 331">
            <path id="Path_443" data-name="Path 443" d="M14.464,8.666a.645.645,0,0,0,.778,0l2.767-2.421a1.229,1.229,0,0,0,.173-.519.534.534,0,0,0-.951-.259L14.9,7.543l-1.037-.865a.554.554,0,1,0-.692.865Z" transform="translate(-12.961 -5.261)" fill="#515050"/>
            <g id="Group_330" data-name="Group 330" clip-path="url(#clip-path-2)">
              <g id="Group_329" data-name="Group 329" transform="translate(-105.095 -448.233)">
                <g id="Group_326" data-name="Group 326" transform="translate(0)">
                  <rect id="SVGID_33_" width="727.515" height="705.815" fill="#515050"/>
                </g>
                <g id="Group_328" data-name="Group 328" transform="translate(0)">
                  <rect id="Rectangle_84" data-name="Rectangle 84" width="727.515" height="705.815" transform="translate(0)" fill="#515050"/>
                  <g id="Group_327" data-name="Group 327" transform="translate(0 0)" clip-path="url(#clip-path-6)">
                    <rect id="Rectangle_85" data-name="Rectangle 85" width="10.375" height="8.645" transform="translate(102.449 445.673)" fill="#515050"/>
                  </g>
                </g>
              </g>
            </g>
          </g>
        </g>
      </g>
    </g>
  </g>
</svg>
