<svg id="locker" xmlns="http://www.w3.org/2000/svg" width="21.573" height="27" viewBox="0 0 21.573 27">
  <path id="Path_59" data-name="Path 59" d="M9.7,0h2.442c.1.136.237.1.373.136a7.243,7.243,0,0,1,6.106,6.513,47.607,47.607,0,0,1,.1,4.918c0,.441.1.611.577.678a2.438,2.438,0,0,1,2.273,2.68v9.43A2.586,2.586,0,0,1,18.927,27H2.815A2.837,2.837,0,0,1,0,24.151V15.2c0-1.8.577-2.544,2.374-2.917a.493.493,0,0,0,.475-.577c-.034-1.425-.068-2.815,0-4.24A7.326,7.326,0,0,1,7.462.678,17.031,17.031,0,0,1,9.7,0Zm1.085,12.177h3.765c.305,0,.543,0,.509-.407a33.112,33.112,0,0,0-.136-4.85,3.948,3.948,0,0,0-2.646-3.426,4.251,4.251,0,0,0-5.732,3.6,42.5,42.5,0,0,0-.1,4.647c0,.407.2.475.543.475C8.276,12.177,9.531,12.177,10.786,12.177Zm-.1,11.024h1.594c.305,0,.441-.068.339-.441-.2-.916-.373-1.832-.577-2.747a1.078,1.078,0,0,1,.271-1.119,2.112,2.112,0,0,0-.1-2.917,1.95,1.95,0,0,0-2.68-.136,2.035,2.035,0,0,0-.373,2.883,1.536,1.536,0,0,1,.305,1.628,4.586,4.586,0,0,0-.17.984c-.136.611-.543,1.391-.305,1.73C9.328,23.506,10.176,23.133,10.685,23.2Z" transform="translate(0)"/>
</svg>
