<svg xmlns="http://www.w3.org/2000/svg" xmlns:xlink="http://www.w3.org/1999/xlink" width="181.694" height="38.307" viewBox="0 0 181.694 38.307">
  <defs>
    <clipPath id="clip-path">
      <path id="Mask" d="M4.595,4.863,0,3.489,3.432,6.975,0,10.466,4.595,9.091l1.164,4.859L6.921,9.091l4.595,1.375L8.088,6.975l3.428-3.486L6.921,4.863,5.759,0Z" transform="translate(0 0)" fill="#00207d"/>
    </clipPath>
    <clipPath id="clip-path-2">
      <path id="Clip_20" data-name="Clip 20" d="M4.6,4.863,0,3.489,3.43,6.975,0,10.466,4.6,9.091l1.163,4.859L6.922,9.091l4.594,1.375L8.087,6.975l3.429-3.486L6.922,4.863,5.759,0Z" transform="translate(170.178 0)" fill="#00207d"/>
    </clipPath>
  </defs>
  <g id="footer_logo" transform="translate(0 -0.215)">
    <g id="Group_4" data-name="Group 4">
      <g id="Group_15" data-name="Group 15" transform="translate(19.193)">
        <path id="Fill_1" data-name="Fill 1" d="M3.664.457A.516.516,0,0,1,4.217,0h.49A.563.563,0,0,1,5.23.3l6.756,14.366h.092L18.834.3a.533.533,0,0,1,.523-.3h.49A.517.517,0,0,1,20.4.457L24.025,20.91a.531.531,0,0,1-.553.7H20.678a.666.666,0,0,1-.583-.458L18.282,9.619H18.19L12.815,21.58a.523.523,0,0,1-.522.336H11.74a.556.556,0,0,1-.522-.336L5.783,9.619H5.691L3.908,21.153a.591.591,0,0,1-.551.458H.593a.56.56,0,0,1-.583-.7Z" transform="translate(0.159 0.215)" fill="#00207d"/>
        <path id="Fill_3" data-name="Fill 3" d="M0,.578A.6.6,0,0,1,.583,0H3.439a.6.6,0,0,1,.585.578V20.727a.6.6,0,0,1-.585.58H.583A.6.6,0,0,1,0,20.727Z" transform="translate(31.152 0.52)" fill="#00207d"/>
        <path id="Fill_5" data-name="Fill 5" d="M15.2,21.307H11.978a.527.527,0,0,1-.491-.274L7.4,12.966H3.992v7.76a.605.605,0,0,1-.584.58H.583A.583.583,0,0,1,0,20.726V.579A.582.582,0,0,1,.583,0H9.367a6.628,6.628,0,0,1,6.7,6.544,6.714,6.714,0,0,1-4.545,6.147l4.207,7.731a.623.623,0,0,1,0,.612A.589.589,0,0,1,15.2,21.307ZM4.024,3.652V9.708H9.03a3.114,3.114,0,0,0,3.04-3.1A3.037,3.037,0,0,0,9.03,3.652Z" transform="translate(43.313 0.52)" fill="#00207d"/>
        <path id="Fill_7" data-name="Fill 7" d="M19.9,21.611H17.231A.878.878,0,0,1,16.34,21l-1.5-3.287H5.652L4.145,21a.928.928,0,0,1-.889.608H.583a.578.578,0,0,1-.5-.25.556.556,0,0,1-.018-.542L9.613.335A.549.549,0,0,1,10.135,0h.307a.522.522,0,0,1,.523.335l9.459,20.484a.559.559,0,0,1-.019.543A.577.577,0,0,1,19.9,21.611ZM10.166,7.64l-3.009,6.7h6.172l-3.07-6.7h-.094Z" transform="translate(63.887 0.215)" fill="#00207d"/>
        <path id="Fill_9" data-name="Fill 9" d="M11.087,0A10.446,10.446,0,0,1,18.52,2.83a.564.564,0,0,1,.031.852L16.676,5.6a.5.5,0,0,1-.766,0,7.3,7.3,0,0,0-4.73-1.8A6.929,6.929,0,0,0,4.331,10.9a6.921,6.921,0,0,0,6.879,7.032,7.413,7.413,0,0,0,4.7-1.736.569.569,0,0,1,.766,0l1.9,1.949a.575.575,0,0,1-.029.822,10.594,10.594,0,0,1-7.464,2.952A10.959,10.959,0,1,1,11.087,0" transform="translate(88.183 0.215)" fill="#00207d"/>
        <path id="Fill_11" data-name="Fill 11" d="M0,.578A.58.58,0,0,1,.583,0H3.409a.6.6,0,0,1,.583.578V17.653h7.832a.581.581,0,0,1,.583.58v2.494a.581.581,0,0,1-.583.58H.583A.581.581,0,0,1,0,20.727Z" transform="translate(113.487 0.52)" fill="#00207d"/>
        <path id="Fill_13" data-name="Fill 13" d="M0,.578A.58.58,0,0,1,.583,0h12.5a.58.58,0,0,1,.583.578v2.5a.58.58,0,0,1-.583.578H3.992V8.643h7.586a.6.6,0,0,1,.583.578v2.526a.58.58,0,0,1-.583.578H3.992v5.327h9.091a.581.581,0,0,1,.583.58v2.494a.581.581,0,0,1-.583.58H.583A.581.581,0,0,1,0,20.727Z" transform="translate(131.912 0.52)" fill="#00207d"/>
      </g>
      <g id="Group_18" data-name="Group 18" transform="translate(0 4.054)">
        <g id="Clip_20-2" data-name="Clip 20" transform="translate(0 0.017)">
          <path id="Mask-2" data-name="Mask" d="M4.595,4.863,0,3.489,3.432,6.975,0,10.466,4.595,9.091l1.164,4.859L6.921,9.091l4.595,1.375L8.088,6.975l3.428-3.486L6.921,4.863,5.759,0Z" transform="translate(0 0)" fill="#00207d"/>
          <path id="Clip_20-4" data-name="Clip 20" d="M4.6,4.863,0,3.489,3.43,6.975,0,10.466,4.6,9.091l1.163,4.859L6.922,9.091l4.594,1.375L8.087,6.975l3.429-3.486L6.922,4.863,5.759,0Z" transform="translate(170.178 0)" fill="#00207d"/>
        </g>
      </g>
    </g>
    <path id="Fill_22" data-name="Fill 22" d="M9.887,8.491H7.84V3.967l-2.4,4.525H4.464L2.047,3.941v4.55H0V0H2.073L4.951,5.387,7.828,0H9.887Z" transform="translate(66.891 30.03)" fill="#00207d"/>
    <path id="Fill_25" data-name="Fill 25" d="M2.263,8.492H0L3.58,0H5.741L9.323,8.49H7.072l-.6-1.547H2.865l-.6,1.547Zm2.4-6.135L3.58,5.144H5.767Z" transform="translate(80.724 30.03)" fill="#00207d"/>
    <path id="Fill_28" data-name="Fill 28" d="M3.389,8.492H0V0H3.389C6.2,0,8.083,1.706,8.083,4.245S6.2,8.492,3.389,8.492ZM2.111,1.812V6.679h1.2A2.386,2.386,0,0,0,5.96,4.245,2.386,2.386,0,0,0,3.313,1.812Z" transform="translate(93.991 30.029)" fill="#00207d"/>
    <path id="Fill_31" data-name="Fill 31" d="M6.677,8.491H0V0H6.638V1.8H2.111V3.4H6.267v1.7H2.111v1.6H6.677Z" transform="translate(106.467 30.03)" fill="#00207d"/>
  </g>
</svg>
