<?xml version="1.0" encoding="utf-8"?>
<!-- Generator: Adobe Illustrator 25.2.3, SVG Export Plug-In . SVG Version: 6.00 Build 0)  -->
<svg version="1.1" id="Layer_1" xmlns="http://www.w3.org/2000/svg" xmlns:xlink="http://www.w3.org/1999/xlink" x="0px" y="0px"
	 viewBox="0 0 20 10.9" style="enable-background:new 0 0 20 10.9;" xml:space="preserve">
<g>
	<path d="M0,0.7c0.5-0.9,1-0.9,1.8-0.2C4.4,3.1,7,5.8,9.7,8.4c0.2,0.2,0.4,0.2,0.6,0c2.6-2.7,5.3-5.3,7.9-7.9
		c0.7-0.7,1.3-0.6,1.8,0.2c0,0.1,0,0.3,0,0.4c-0.2,0.3-0.4,0.5-0.6,0.7c-2.9,2.9-5.7,5.7-8.6,8.6c-0.6,0.6-1.1,0.6-1.7,0
		C6.3,7.6,3.4,4.7,0.5,1.8C0.3,1.6,0.1,1.4,0,1.1C0,1,0,0.8,0,0.7z"/>
</g>
</svg>
