<svg xmlns="http://www.w3.org/2000/svg" width="122" height="88" viewBox="0 0 122 88">
  <g id="Group_154" data-name="Group 154" transform="translate(-1335 -110)">
    <g id="Rectangle_36" data-name="Rectangle 36" transform="translate(1335 110)" fill="#fff" stroke="#e0e0e0" stroke-width="1">
      <rect width="122" height="88" stroke="none"/>
      <rect x="0.5" y="0.5" width="121" height="87" fill="none"/>
    </g>
    <g id="paypal" transform="translate(1339 116)">
      <g id="Group_51" data-name="Group 51" transform="translate(0 0)">
        <path id="Path_122" data-name="Path 122" d="M4,2H118.11V78.073H4Z" transform="translate(-4 -2)" fill="#fff"/>
      </g>
      <path id="Path_123" data-name="Path 123" d="M45.371,29.272H41.429a.547.547,0,0,0-.542.464L39.295,39.841a.327.327,0,0,0,.325.379H41.5a.547.547,0,0,0,.541-.464l.43-2.726a.547.547,0,0,1,.541-.464h1.248c2.6,0,4.094-1.255,4.485-3.744a3.034,3.034,0,0,0-.5-2.545,3.658,3.658,0,0,0-2.873-1.007Zm.454,3.692c-.215,1.414-1.3,1.414-2.342,1.414h-.594l.417-2.641a.328.328,0,0,1,.324-.278H43.9c.711,0,1.382,0,1.729.407A1.31,1.31,0,0,1,45.825,32.964Zm11.328-.046H55.265a.328.328,0,0,0-.325.278l-.083.528-.133-.191A2.682,2.682,0,0,0,52.5,32.74a4.34,4.34,0,0,0-4.214,3.8,3.565,3.565,0,0,0,.7,2.9,2.953,2.953,0,0,0,2.377.959,3.612,3.612,0,0,0,2.613-1.08l-.083.525a.328.328,0,0,0,.323.38h1.7a.548.548,0,0,0,.541-.464l1.02-6.46a.327.327,0,0,0-.323-.379ZM54.521,36.59a2.1,2.1,0,0,1-2.129,1.8,1.462,1.462,0,0,1-1.564-1.835,2.112,2.112,0,0,1,2.116-1.816,1.593,1.593,0,0,1,1.258.513,1.637,1.637,0,0,1,.32,1.336ZM67.2,32.918h-1.9a.549.549,0,0,0-.453.241l-2.615,3.852-1.11-3.7a.549.549,0,0,0-.525-.391H58.74a.328.328,0,0,0-.311.435l2.088,6.131-1.964,2.772a.328.328,0,0,0,.267.519h1.895a.547.547,0,0,0,.45-.235l6.307-9.105a.329.329,0,0,0-.27-.517Z" transform="translate(2.657 3.145)" fill="#253b80"/>
      <path id="Path_124" data-name="Path 124" d="M69.022,29.272H65.079a.547.547,0,0,0-.541.464L62.946,39.842a.329.329,0,0,0,.323.38h2.023a.384.384,0,0,0,.378-.325l.452-2.865a.547.547,0,0,1,.541-.464h1.248c2.6,0,4.094-1.256,4.486-3.745a3.034,3.034,0,0,0-.5-2.545,3.654,3.654,0,0,0-2.872-1.007Zm.454,3.692c-.214,1.414-1.3,1.414-2.342,1.414H66.54l.418-2.641a.327.327,0,0,1,.324-.278h.273c.71,0,1.382,0,1.729.407a1.311,1.311,0,0,1,.19,1.1ZM80.8,32.919H78.915a.327.327,0,0,0-.325.277l-.083.528-.132-.191a2.686,2.686,0,0,0-2.229-.792,4.341,4.341,0,0,0-4.214,3.8,3.565,3.565,0,0,0,.7,2.9,2.955,2.955,0,0,0,2.377.959,3.612,3.612,0,0,0,2.613-1.08l-.084.525a.329.329,0,0,0,.326.38h1.7a.547.547,0,0,0,.54-.464L81.127,33.3a.33.33,0,0,0-.326-.38Zm-2.632,3.673a2.1,2.1,0,0,1-2.129,1.8,1.593,1.593,0,0,1-1.267-.509,1.611,1.611,0,0,1-.3-1.327,2.114,2.114,0,0,1,2.116-1.816,1.594,1.594,0,0,1,1.259.515,1.621,1.621,0,0,1,.319,1.335Zm4.857-7.042L81.41,39.842a.328.328,0,0,0,.323.38h1.627a.547.547,0,0,0,.541-.464l1.6-10.107a.328.328,0,0,0-.325-.38H83.351a.329.329,0,0,0-.323.279Z" transform="translate(7.119 3.144)" fill="#179bd7"/>
      <path id="Path_125" data-name="Path 125" d="M26.09,42.708l.3-1.914-.672-.015H22.515l2.228-14.128a.182.182,0,0,1,.181-.155h5.406c1.795,0,3.033.374,3.68,1.111a2.531,2.531,0,0,1,.59,1.105,3.981,3.981,0,0,1,0,1.523l-.006.045v.389l.3.172a2.106,2.106,0,0,1,.613.468,2.168,2.168,0,0,1,.5,1.117,4.737,4.737,0,0,1-.071,1.62,5.7,5.7,0,0,1-.663,1.834,3.774,3.774,0,0,1-1.052,1.153,4.267,4.267,0,0,1-1.417.638,7.039,7.039,0,0,1-1.771.2h-.42a1.267,1.267,0,0,0-1.252,1.069l-.032.172L28.8,42.493l-.024.124a.1.1,0,0,1-.033.071.09.09,0,0,1-.056.02h-2.6Z" transform="translate(-0.507 2.621)" fill="#253b80"/>
      <path id="Path_126" data-name="Path 126" d="M34.717,29.717q-.025.159-.056.317c-.713,3.661-3.151,4.925-6.267,4.925H26.809a.77.77,0,0,0-.761.653l-.813,5.149-.229,1.461a.4.4,0,0,0,.4.468h2.812a.678.678,0,0,0,.669-.571l.027-.143.529-3.361.036-.184a.678.678,0,0,1,.668-.571h.42c2.726,0,4.859-1.108,5.483-4.309a3.669,3.669,0,0,0-.563-3.24,2.689,2.689,0,0,0-.77-.594Z" transform="translate(-0.038 3.229)" fill="#179bd7"/>
      <path id="Path_127" data-name="Path 127" d="M33.8,29.508a5.62,5.62,0,0,0-.693-.155,8.8,8.8,0,0,0-1.4-.1H27.476a.675.675,0,0,0-.668.571l-.9,5.709-.026.166a.769.769,0,0,1,.761-.651h1.587c3.114,0,5.553-1.266,6.267-4.925.021-.108.039-.214.055-.317A3.791,3.791,0,0,0,33.8,29.508Z" transform="translate(0.128 3.141)" fill="#222d65"/>
      <path id="Path_128" data-name="Path 128" d="M27.54,30.437a.673.673,0,0,1,.668-.571h4.238a8.841,8.841,0,0,1,1.4.1,5.642,5.642,0,0,1,.853.2,3.908,3.908,0,0,1,.586.247,3.455,3.455,0,0,0-.732-3.107C33.744,26.393,32.289,26,30.426,26h-5.4a.773.773,0,0,0-.764.654L22.006,40.926a.465.465,0,0,0,.458.536H25.8l.838-5.316Z" transform="translate(-0.604 2.527)" fill="#253b80"/>
      <circle id="Ellipse_8" data-name="Ellipse 8" cx="1.461" cy="1.461" r="1.461" transform="translate(3.09 3.521)" fill="#f04050"/>
      <ellipse id="Ellipse_9" data-name="Ellipse 9" cx="1.096" cy="1.461" rx="1.096" ry="1.461" transform="translate(7.473 3.521)" fill="#f89b10"/>
      <circle id="Ellipse_10" data-name="Ellipse 10" cx="1.461" cy="1.461" r="1.461" transform="translate(10.395 3.521)" fill="#00b080"/>
    </g>
  </g>
</svg>
