<svg id="protect" xmlns="http://www.w3.org/2000/svg" width="20.584" height="22.352" viewBox="0 0 20.584 22.352">
  <path id="Path_30" data-name="Path 30" d="M10.062,12.842a.894.894,0,1,0-.894-.894A.894.894,0,0,0,10.062,12.842Zm0-5.817A1.223,1.223,0,0,0,8.809,8.278V9.352H11.4V8.278a1.517,1.517,0,0,0-1.342-1.253Z" transform="translate(0.141 0.112)" fill="#8797ad"/>
  <path id="Path_31" data-name="Path 31" d="M20.137,3.558H18.884c-3.132,0-5.549-1.611-8.324-3.491a.571.571,0,0,0-.536,0C7.338,1.947,4.832,3.558,1.7,3.558H.447A.422.422,0,0,0,0,4.005v.358c0,3.759,0,13.693,10.024,17.9a.447.447,0,0,0,.536,0c10.113-4.206,10.024-14.141,10.024-17.9V4.005a.422.422,0,0,0-.447-.447Zm-6.175,11.1H6.354V9.464H7.518V8.39a2.6,2.6,0,0,1,5.191,0V9.464h1.164v5.192h.089Z" transform="translate(0 0)" fill="#8797ad"/>
</svg>
