<?xml version="1.0" encoding="utf-8"?>
<!-- Generator: Adobe Illustrator 25.2.0, SVG Export Plug-In . SVG Version: 6.00 Build 0)  -->
<svg version="1.1" id="Layer_1" xmlns="http://www.w3.org/2000/svg" xmlns:xlink="http://www.w3.org/1999/xlink" x="0px" y="0px"
	 viewBox="0 0 85.2 32" style="enable-background:new 0 0 85.2 32;" xml:space="preserve">
<style type="text/css">
	.st0{fill:#77BC1F;}
	.st1{fill:#FFFFFF;}
	.st2{fill:#313C3F;}
	.st3{fill:#A0A2A2;}
</style>
<desc>Created with Sketch.</desc>
<g>
	<g id="_">
		<g>
			<path class="st0" d="M18,11.6c0.7,0,1.3,0.3,1.8,0.7c0.5,0.5,0.8,1.1,0.8,1.8v12.8c0,0.7-0.3,1.3-0.8,1.8
				c-0.5,0.5-1.1,0.7-1.8,0.7H2.6c-0.7,0-1.3-0.3-1.8-0.7c-0.5-0.5-0.8-1.1-0.8-1.8V14.1c0-0.7,0.3-1.3,0.8-1.8
				c0.5-0.5,1.1-0.7,1.8-0.7h1.3V9c0-1.1,0.3-2.2,0.9-3.2c0.6-1,1.4-1.8,2.3-2.3c2-1.1,4.4-1.1,6.4,0c1,0.6,1.8,1.4,2.3,2.3
				c0.6,1,0.9,2.1,0.9,3.2v2.6H18z M14.3,11.6V9c0-0.7-0.2-1.4-0.5-2c-0.3-0.6-0.9-1.1-1.5-1.5c-1.2-0.7-2.7-0.7-3.9,0
				C7.7,5.9,7.2,6.4,6.9,7C6.5,7.6,6.4,8.3,6.4,9v2.6H14.3z M10.3,23.1c1.4,0,2.6-1.1,2.6-2.5c0-0.7-0.3-1.4-0.8-1.9
				c-1-1-2.6-1-3.6-0.1c0,0,0,0-0.1,0.1c-1,1-1,2.6,0,3.6C9,22.8,9.6,23.1,10.3,23.1L10.3,23.1z"/>
		</g>
	</g>
	<circle id="Oval-Copy" class="st0" cx="12.4" cy="22.7" r="6.3"/>
	<g id="check---material-copy">
		<g>
			<path class="st1" d="M8.2,22.8l6.8-6.8l0.9,0.9l-7.7,7.7L4.6,21l0.9-0.9L8.2,22.8z"/>
		</g>
	</g>
	<g id="SECURE-SSL-ENCRYPTIO">
		<g>
			<path class="st2" d="M27.6,16.5c0,0,1.2,1.1,2.6,1.1c0.6,0,1.1-0.2,1.1-0.9c0-1.3-4.9-1.3-4.9-4.6c0-2,1.7-3.4,3.9-3.4
				c2.4,0,3.5,1.2,3.5,1.2l-1.1,2.2c0,0-1.1-1-2.4-1c-0.6,0-1.2,0.2-1.2,0.9c0,1.4,4.9,1.1,4.9,4.6c0,1.8-1.4,3.4-3.9,3.4
				c-2.6,0-4-1.6-4-1.6L27.6,16.5z"/>
			<path class="st2" d="M35.8,9h6.9v2.3h-4.2v2h3.3v2.3h-3.3v2.1h4.4v2.3h-7.1V9z"/>
			<path class="st2" d="M49.8,8.8c2.7,0,4.1,1.5,4.1,1.5l-1.2,2c0,0-1.2-1.1-2.7-1.1c-2.1,0-3.1,1.5-3.1,3.1c0,1.6,1.1,3.3,3.1,3.3
				c1.7,0,2.9-1.3,2.9-1.3l1.4,2c0,0-1.5,1.8-4.4,1.8c-3.4,0-5.7-2.4-5.7-5.7C44.1,11.2,46.5,8.8,49.8,8.8z"/>
			<path class="st2" d="M55.7,9h2.7v6.9c0,1.1,0.8,1.8,1.9,1.8c1.1,0,1.9-0.6,1.9-1.8V9h2.7v6.9c0,2.5-1.8,4.2-4.6,4.2
				c-2.8,0-4.6-1.7-4.6-4.2L55.7,9z"/>
			<path class="st2" d="M67.3,9h3.8c1.1,0,1.7,0.1,2.1,0.3c1.2,0.5,2,1.6,2,3.2c0,1.2-0.6,2.4-1.6,3v0c0.2,0.2,0.3,0.4,0.4,0.7
				l2.1,3.8h-3l-1.9-3.7H70v3.7h-2.7V9z M71.1,13.9c0.9,0,1.4-0.5,1.4-1.3c0-0.8-0.3-1.3-1.7-1.3H70v2.7L71.1,13.9z"/>
			<path class="st2" d="M77.7,9h6.9v2.3h-4.2v2h3.3v2.3h-3.3v2.1h4.4v2.3h-7.1V9z"/>
		</g>
		<g>
			<path class="st3" d="M27.6,25.4c0,0,0.6,0.5,1.2,0.5c0.2,0,0.5-0.1,0.5-0.4c0-0.6-2.2-0.6-2.2-2.1c0-0.9,0.8-1.5,1.7-1.5
				c1.1,0,1.6,0.6,1.6,0.6l-0.5,1c0,0-0.5-0.4-1.1-0.4c-0.2,0-0.5,0.1-0.5,0.4c0,0.6,2.2,0.5,2.2,2.1c0,0.8-0.6,1.5-1.7,1.5
				c-0.7,0-1.3-0.2-1.8-0.7L27.6,25.4z"/>
			<path class="st3" d="M31.6,25.4c0,0,0.6,0.5,1.2,0.5c0.2,0,0.5-0.1,0.5-0.4c0-0.6-2.2-0.6-2.2-2.1c0-0.9,0.8-1.5,1.7-1.5
				c1.1,0,1.6,0.6,1.6,0.6l-0.5,1c0,0-0.5-0.4-1.1-0.4c-0.2,0-0.5,0.1-0.5,0.4c0,0.6,2.2,0.5,2.2,2.1c0,0.8-0.6,1.5-1.7,1.5
				c-0.7,0-1.3-0.2-1.8-0.7L31.6,25.4z"/>
			<path class="st3" d="M35.4,22h1.2v3.9h2v1h-3.2V22z"/>
			<path class="st3" d="M40.8,22h3.1v1H42v0.9h1.5v1H42v0.9h2v1h-3.2L40.8,22z"/>
			<path class="st3" d="M44.9,22h1.2l1.4,2.3c0.2,0.3,0.3,0.6,0.4,0.8h0c0,0-0.1-0.5-0.1-0.8V22h1.2V27h-1.2l-1.4-2.3
				c-0.2-0.3-0.3-0.6-0.4-0.8h0c0,0,0.1,0.5,0.1,0.8V27h-1.2V22z"/>
			<path class="st3" d="M52.5,21.9c1.2,0,1.9,0.7,1.9,0.7l-0.6,0.9c0,0-0.6-0.5-1.2-0.5c-0.9,0-1.4,0.7-1.4,1.4
				c0,0.7,0.5,1.5,1.4,1.5c0.7,0,1.3-0.6,1.3-0.6l0.6,0.9c-0.5,0.5-1.2,0.8-2,0.8c-1.5,0-2.6-1.1-2.6-2.6C49.9,23,51,21.9,52.5,21.9
				z"/>
			<path class="st3" d="M55.2,22h1.7c0.5,0,0.7,0,1,0.1c0.6,0.2,0.9,0.7,0.9,1.4c0,0.5-0.2,1.1-0.7,1.3v0c0.1,0.1,0.1,0.2,0.2,0.3
				l1,1.7h-1.3L57,25.3h-0.6V27h-1.2V22z M56.9,24.3c0.4,0,0.6-0.2,0.6-0.6c0-0.4-0.1-0.6-0.7-0.6h-0.4v1.2H56.9z"/>
			<path class="st3" d="M60.9,24.9L59.2,22h1.4l0.6,1.2c0.2,0.3,0.3,0.7,0.3,0.7h0c0,0,0.1-0.4,0.3-0.7l0.6-1.2h1.4l-1.6,2.9v2h-1.2
				V24.9z"/>
			<path class="st3" d="M64.3,22h2.1c1,0,1.6,0.7,1.6,1.7s-0.6,1.7-1.6,1.7h-0.8V27h-1.2V22z M66.1,24.4c0.4,0,0.6-0.3,0.6-0.7
				s-0.2-0.7-0.6-0.7h-0.6v1.3H66.1z"/>
			<path class="st3" d="M69.6,23.1h-1.5v-1h4.2v1h-1.5V27h-1.2V23.1z"/>
			<path class="st3" d="M72.9,22h1.2V27h-1.2V22z"/>
			<path class="st3" d="M77.5,21.9c1.5,0,2.6,1.1,2.6,2.5c0,1.5-1.1,2.6-2.6,2.6s-2.6-1.1-2.6-2.6C74.9,23,76,21.9,77.5,21.9z
				 M77.5,25.9c0.7,0,1.3-0.6,1.3-1.5c0-0.8-0.6-1.4-1.3-1.4s-1.3,0.6-1.3,1.4C76.2,25.3,76.8,25.9,77.5,25.9L77.5,25.9z"/>
			<path class="st3" d="M80.9,22h1.2l1.4,2.3c0.2,0.3,0.3,0.6,0.4,0.8h0c0,0-0.1-0.5-0.1-0.8V22h1.2V27h-1.2l-1.4-2.3
				c-0.2-0.3-0.3-0.6-0.4-0.8h0c0,0,0.1,0.5,0.1,0.8V27h-1.2V22z"/>
		</g>
	</g>
</g>
</svg>
